<svg xmlns="http://www.w3.org/2000/svg" xmlns:xlink="http://www.w3.org/1999/xlink" width="500" zoomAndPan="magnify" viewBox="0 0 375 374.999991" height="500" preserveAspectRatio="xMidYMid meet" version="1.0"><defs><g/><clipPath id="56fa9fb2eb"><path d="M 183 112.816406 L 184 112.816406 L 184 116 L 183 116 Z M 183 112.816406 " clip-rule="nonzero"/></clipPath><clipPath id="db08dc5bdf"><path d="M 94 113 L 286.230469 113 L 286.230469 219 L 94 219 Z M 94 113 " clip-rule="nonzero"/></clipPath><clipPath id="2da351160d"><path d="M 282.890625 165.007812 C 281.125 165.007812 279.691406 166.378906 279.570312 168.105469 L 269.300781 168.105469 L 266.925781 167.800781 L 269.53125 164.449219 L 266.164062 167.042969 L 265.625 162.835938 L 265.085938 167.042969 L 261.71875 164.449219 L 264.324219 167.800781 L 261.949219 168.105469 L 256.050781 168.105469 C 255.929688 166.925781 254.945312 166.003906 253.730469 166.003906 C 252.519531 166.003906 251.53125 166.925781 251.414062 168.105469 L 240.203125 168.105469 C 240.09375 167.570312 239.617188 167.167969 239.050781 167.167969 C 238.484375 167.167969 238.007812 167.570312 237.898438 168.105469 L 228.773438 168.105469 L 228.085938 168.015625 L 229.648438 166.007812 L 227.628906 167.5625 L 227.308594 165.042969 L 226.984375 167.5625 L 224.96875 166.007812 L 226.527344 168.015625 L 225.84375 168.105469 L 213.824219 168.105469 C 213.8125 166.867188 213.726562 165.644531 213.570312 164.445312 L 214.121094 164.347656 L 214.054688 163.964844 L 213.519531 164.058594 C 213.28125 162.410156 212.914062 160.804688 212.417969 159.25 L 236.90625 150.378906 L 236.773438 150.011719 L 212.292969 158.878906 C 211.765625 157.296875 211.113281 155.773438 210.339844 154.320312 L 210.527344 154.210938 L 210.328125 153.871094 L 210.160156 153.972656 C 209.355469 152.503906 208.429688 151.117188 207.402344 149.8125 L 227.136719 133.316406 L 226.886719 133.019531 L 207.15625 149.503906 C 204.96875 146.792969 202.324219 144.464844 199.332031 142.644531 L 212.101562 120.613281 L 211.761719 120.417969 L 198.996094 142.445312 C 196.015625 140.683594 192.710938 139.421875 189.191406 138.765625 L 193.613281 113.804688 L 193.226562 113.734375 L 188.808594 138.695312 C 187.121094 138.402344 185.390625 138.242188 183.625 138.242188 C 181.855469 138.242188 180.101562 138.402344 178.375 138.703125 L 173.992188 113.691406 L 173.605469 113.757812 L 177.988281 138.769531 C 176.925781 138.96875 175.875 139.230469 174.835938 139.542969 C 174.132812 139.332031 173.421875 139.144531 172.707031 138.984375 L 171.507812 135.6875 L 171.140625 135.820312 L 172.253906 138.886719 C 170.21875 138.460938 168.140625 138.242188 166.046875 138.242188 C 165.960938 138.242188 165.878906 138.25 165.792969 138.25 L 155.421875 120.289062 L 155.082031 120.484375 L 165.347656 138.261719 C 162.976562 138.316406 160.667969 138.632812 158.460938 139.207031 L 155.964844 136.234375 L 155.664062 136.484375 L 158.046875 139.320312 C 155.667969 139.972656 153.40625 140.910156 151.296875 142.089844 L 140.242188 132.816406 L 139.988281 133.117188 L 150.9375 142.296875 C 146.371094 144.933594 142.5625 148.730469 139.914062 153.273438 L 130.277344 149.765625 L 130.140625 150.132812 L 139.714844 153.621094 C 138.4375 155.878906 137.441406 158.316406 136.78125 160.886719 L 133.804688 160.359375 L 133.734375 160.746094 L 136.691406 161.269531 C 136.140625 163.539062 135.839844 165.902344 135.839844 168.339844 C 135.839844 168.449219 135.847656 168.554688 135.851562 168.660156 L 128.222656 168.660156 C 128.109375 167.871094 127.429688 167.261719 126.605469 167.261719 C 125.777344 167.261719 125.101562 167.871094 124.984375 168.660156 L 113.640625 168.660156 L 111.261719 168.359375 L 113.867188 165.003906 L 110.5 167.601562 L 109.964844 163.394531 L 109.425781 167.601562 L 106.058594 165.003906 L 108.664062 168.359375 L 106.285156 168.660156 L 94.109375 168.660156 L 94.109375 169.128906 L 106.285156 169.128906 L 108.664062 169.433594 L 106.058594 172.785156 L 109.425781 170.191406 L 109.964844 174.398438 L 110.503906 170.191406 L 113.867188 172.785156 L 111.265625 169.433594 L 113.644531 169.128906 L 124.988281 169.128906 C 125.101562 169.921875 125.777344 170.53125 126.605469 170.53125 C 127.433594 170.53125 128.109375 169.921875 128.222656 169.128906 L 135.863281 169.128906 C 135.9375 171.941406 136.390625 174.660156 137.1875 177.230469 L 133.6875 177.839844 L 133.753906 178.226562 L 137.3125 177.605469 C 138.125 180.097656 139.257812 182.449219 140.660156 184.613281 L 130.035156 188.453125 L 130.171875 188.820312 L 140.878906 184.949219 C 142.3125 187.105469 144.019531 189.0625 145.949219 190.78125 L 146.089844 191.023438 L 146.171875 190.972656 C 148.019531 192.585938 150.066406 193.976562 152.273438 195.109375 L 139.789062 205.519531 L 140.042969 205.820312 L 152.652344 195.300781 C 154.8125 196.371094 157.121094 197.191406 159.535156 197.722656 L 159.664062 197.832031 L 159.722656 197.765625 C 161.761719 198.199219 163.878906 198.433594 166.046875 198.433594 C 166.136719 198.433594 166.226562 198.429688 166.320312 198.429688 L 154.816406 218.238281 L 155.15625 218.433594 L 166.777344 198.421875 C 169.519531 198.355469 172.222656 197.925781 174.835938 197.132812 C 177.679688 197.996094 180.632812 198.433594 183.625 198.433594 C 194.308594 198.433594 203.710938 192.871094 209.082031 184.507812 L 209.179688 184.5625 L 209.375 184.226562 L 209.292969 184.175781 C 210.136719 182.824219 210.878906 181.398438 211.503906 179.914062 L 236.699219 189.066406 L 236.832031 188.699219 L 211.648438 179.550781 C 213.019531 176.152344 213.792969 172.449219 213.824219 168.574219 L 225.839844 168.574219 L 226.527344 168.660156 L 224.96875 170.671875 L 226.984375 169.113281 L 227.308594 171.636719 L 227.628906 169.113281 L 229.648438 170.671875 L 228.085938 168.660156 L 228.777344 168.574219 L 237.898438 168.574219 C 238.007812 169.105469 238.480469 169.507812 239.050781 169.507812 C 239.617188 169.507812 240.09375 169.105469 240.199219 168.574219 L 251.410156 168.574219 C 251.53125 169.75 252.515625 170.671875 253.730469 170.671875 C 254.945312 170.671875 255.929688 169.75 256.050781 168.574219 L 261.941406 168.574219 L 264.324219 168.875 L 261.71875 172.230469 L 265.085938 169.632812 L 265.625 173.839844 L 266.164062 169.632812 L 269.527344 172.230469 L 266.925781 168.875 L 269.304688 168.574219 L 279.566406 168.574219 C 279.691406 170.300781 281.125 171.671875 282.886719 171.671875 C 284.730469 171.671875 286.230469 170.175781 286.230469 168.339844 C 286.230469 166.503906 284.730469 165.007812 282.886719 165.007812 Z M 171.699219 140.683594 C 170.488281 141.199219 169.324219 141.785156 168.214844 142.4375 L 166.882812 140.132812 C 168.503906 140.179688 170.117188 140.363281 171.699219 140.683594 Z M 166.046875 140.117188 C 166.171875 140.117188 166.296875 140.121094 166.421875 140.125 L 167.875 142.636719 C 166.429688 143.507812 165.078125 144.5 163.816406 145.582031 L 163.761719 145.519531 L 163.460938 145.769531 L 163.523438 145.84375 C 162.269531 146.949219 161.117188 148.152344 160.074219 149.445312 L 152.839844 143.382812 C 156.789062 141.300781 161.28125 140.117188 166.046875 140.117188 Z M 146.316406 148.117188 L 149.535156 149.976562 L 149.730469 149.636719 L 146.609375 147.835938 C 148.367188 146.183594 150.332031 144.746094 152.464844 143.578125 L 159.828125 149.753906 C 158.804688 151.050781 157.894531 152.4375 157.097656 153.890625 L 156.738281 153.683594 L 156.542969 154.019531 L 156.914062 154.234375 C 156.144531 155.679688 155.492188 157.191406 154.96875 158.757812 L 141.707031 153.929688 C 142.984375 151.792969 144.539062 149.84375 146.316406 148.121094 Z M 137.722656 168.339844 C 137.722656 166.015625 138.011719 163.757812 138.546875 161.597656 L 139.117188 161.699219 L 139.1875 161.3125 L 138.636719 161.214844 C 139.28125 158.753906 140.257812 156.425781 141.507812 154.273438 L 154.851562 159.132812 C 153.921875 162.046875 153.417969 165.144531 153.417969 168.339844 C 153.417969 168.445312 153.425781 168.554688 153.425781 168.660156 L 147.136719 168.660156 C 147.015625 167.257812 145.847656 166.15625 144.40625 166.15625 C 142.96875 166.15625 141.800781 167.257812 141.679688 168.660156 L 137.730469 168.660156 C 137.730469 168.554688 137.722656 168.445312 137.722656 168.339844 Z M 139.082031 176.972656 L 139.070312 176.902344 L 139.058594 176.902344 C 138.269531 174.441406 137.816406 171.832031 137.742188 169.128906 L 141.683594 169.128906 C 141.804688 170.53125 142.96875 171.636719 144.410156 171.636719 C 145.847656 171.636719 147.015625 170.53125 147.136719 169.128906 L 153.433594 169.128906 C 153.527344 172.679688 154.230469 176.09375 155.460938 179.265625 L 142.46875 183.957031 C 141.035156 181.816406 139.890625 179.46875 139.082031 176.972656 Z M 168.421875 194.804688 L 167.425781 196.523438 C 166.964844 196.546875 166.507812 196.5625 166.046875 196.5625 C 164.359375 196.5625 162.710938 196.40625 161.105469 196.121094 L 163.050781 193.816406 L 162.753906 193.566406 L 160.660156 196.042969 C 158.414062 195.609375 156.261719 194.910156 154.234375 193.980469 L 160.875 188.441406 C 160.792969 188.339844 160.703125 188.242188 160.621094 188.144531 L 153.839844 193.800781 C 151.695312 192.777344 149.703125 191.488281 147.894531 189.984375 L 149.597656 189.007812 L 149.402344 188.667969 L 147.582031 189.710938 C 145.730469 188.121094 144.085938 186.304688 142.699219 184.292969 L 155.605469 179.628906 C 158.535156 186.894531 164.246094 192.820312 171.699219 195.992188 C 170.445312 196.246094 169.175781 196.414062 167.894531 196.496094 L 168.761719 195 C 168.648438 194.933594 168.535156 194.871094 168.421875 194.804688 Z M 183.625 196.5625 C 180.726562 196.5625 177.863281 196.125 175.117188 195.265625 C 163.515625 191.628906 155.648438 181.1875 155.316406 169.128906 L 170.402344 169.128906 L 179.964844 170.34375 L 172.929688 179.410156 L 182.023438 172.394531 L 183.480469 183.761719 L 184.933594 172.394531 L 194.03125 179.410156 L 186.992188 170.34375 L 198.398438 168.894531 L 186.992188 167.445312 L 194.03125 158.382812 L 184.933594 165.394531 L 183.480469 154.027344 L 182.023438 165.394531 L 172.929688 158.382812 L 179.964844 167.445312 L 170.402344 168.660156 L 155.304688 168.660156 C 155.304688 168.554688 155.300781 168.445312 155.300781 168.339844 C 155.300781 155.949219 163.265625 145.128906 175.117188 141.414062 C 177.863281 140.554688 180.726562 140.117188 183.625 140.117188 C 199.242188 140.117188 211.949219 152.777344 211.949219 168.339844 C 211.949219 183.898438 199.242188 196.5625 183.625 196.5625 Z M 282.886719 171.203125 C 281.304688 171.203125 280.015625 169.917969 280.015625 168.339844 C 280.015625 166.761719 281.304688 165.476562 282.886719 165.476562 C 284.472656 165.476562 285.761719 166.761719 285.761719 168.339844 C 285.761719 169.917969 284.472656 171.203125 282.886719 171.203125 Z M 282.886719 171.203125 " clip-rule="nonzero"/></clipPath><linearGradient x1="260.965067" gradientTransform="matrix(0.3945, 0, 0, 0.393078, 88.982111, 112.895567)" y1="-5.252673" x2="252.412295" gradientUnits="userSpaceOnUse" y2="275.77638" id="2aaf3e8036"><stop stop-opacity="1" stop-color="rgb(65.098572%, 42.399597%, 14.099121%)" offset="0"/><stop stop-opacity="1" stop-color="rgb(65.098572%, 42.399597%, 14.099121%)" offset="0.0526907"/><stop stop-opacity="1" stop-color="rgb(65.098572%, 42.399597%, 14.099121%)" offset="0.25"/><stop stop-opacity="1" stop-color="rgb(65.098572%, 42.399597%, 14.099121%)" offset="0.3125"/><stop stop-opacity="1" stop-color="rgb(65.788269%, 43.122864%, 14.978027%)" offset="0.316406"/><stop stop-opacity="1" stop-color="rgb(66.479492%, 43.84613%, 15.856934%)" offset="0.320312"/><stop stop-opacity="1" stop-color="rgb(67.199707%, 44.60144%, 16.775513%)" offset="0.324219"/><stop stop-opacity="1" stop-color="rgb(67.921448%, 45.358276%, 17.694092%)" offset="0.328125"/><stop stop-opacity="1" stop-color="rgb(68.641663%, 46.113586%, 18.611145%)" offset="0.332031"/><stop stop-opacity="1" stop-color="rgb(69.363403%, 46.868896%, 19.529724%)" offset="0.335938"/><stop stop-opacity="1" stop-color="rgb(70.083618%, 47.624207%, 20.446777%)" offset="0.339844"/><stop stop-opacity="1" stop-color="rgb(70.805359%, 48.379517%, 21.365356%)" offset="0.34375"/><stop stop-opacity="1" stop-color="rgb(71.525574%, 49.134827%, 22.28241%)" offset="0.347656"/><stop stop-opacity="1" stop-color="rgb(72.247314%, 49.891663%, 23.200989%)" offset="0.351562"/><stop stop-opacity="1" stop-color="rgb(72.967529%, 50.646973%, 24.119568%)" offset="0.355469"/><stop stop-opacity="1" stop-color="rgb(73.68927%, 51.402283%, 25.038147%)" offset="0.359375"/><stop stop-opacity="1" stop-color="rgb(74.409485%, 52.157593%, 25.9552%)" offset="0.363281"/><stop stop-opacity="1" stop-color="rgb(75.131226%, 52.914429%, 26.873779%)" offset="0.367187"/><stop stop-opacity="1" stop-color="rgb(75.85144%, 53.669739%, 27.790833%)" offset="0.371094"/><stop stop-opacity="1" stop-color="rgb(76.573181%, 54.425049%, 28.709412%)" offset="0.375"/><stop stop-opacity="1" stop-color="rgb(77.294922%, 55.180359%, 29.626465%)" offset="0.378906"/><stop stop-opacity="1" stop-color="rgb(78.016663%, 55.937195%, 30.545044%)" offset="0.382812"/><stop stop-opacity="1" stop-color="rgb(78.736877%, 56.692505%, 31.463623%)" offset="0.386719"/><stop stop-opacity="1" stop-color="rgb(79.458618%, 57.447815%, 32.382202%)" offset="0.390625"/><stop stop-opacity="1" stop-color="rgb(80.178833%, 58.203125%, 33.299255%)" offset="0.394531"/><stop stop-opacity="1" stop-color="rgb(80.900574%, 58.958435%, 34.217834%)" offset="0.398437"/><stop stop-opacity="1" stop-color="rgb(81.620789%, 59.713745%, 35.134888%)" offset="0.402344"/><stop stop-opacity="1" stop-color="rgb(82.342529%, 60.470581%, 36.053467%)" offset="0.40625"/><stop stop-opacity="1" stop-color="rgb(83.062744%, 61.225891%, 36.97052%)" offset="0.410156"/><stop stop-opacity="1" stop-color="rgb(83.784485%, 61.981201%, 37.889099%)" offset="0.414062"/><stop stop-opacity="1" stop-color="rgb(84.5047%, 62.736511%, 38.807678%)" offset="0.417969"/><stop stop-opacity="1" stop-color="rgb(85.22644%, 63.493347%, 39.726257%)" offset="0.421875"/><stop stop-opacity="1" stop-color="rgb(85.946655%, 64.248657%, 40.643311%)" offset="0.425781"/><stop stop-opacity="1" stop-color="rgb(86.668396%, 65.003967%, 41.56189%)" offset="0.429688"/><stop stop-opacity="1" stop-color="rgb(87.388611%, 65.759277%, 42.478943%)" offset="0.433594"/><stop stop-opacity="1" stop-color="rgb(88.110352%, 66.516113%, 43.397522%)" offset="0.4375"/><stop stop-opacity="1" stop-color="rgb(88.830566%, 67.271423%, 44.316101%)" offset="0.441406"/><stop stop-opacity="1" stop-color="rgb(89.552307%, 68.026733%, 45.23468%)" offset="0.445312"/><stop stop-opacity="1" stop-color="rgb(90.272522%, 68.782043%, 46.151733%)" offset="0.449219"/><stop stop-opacity="1" stop-color="rgb(90.994263%, 69.537354%, 47.070312%)" offset="0.453125"/><stop stop-opacity="1" stop-color="rgb(91.714478%, 70.292664%, 47.987366%)" offset="0.457031"/><stop stop-opacity="1" stop-color="rgb(92.436218%, 71.0495%, 48.905945%)" offset="0.460938"/><stop stop-opacity="1" stop-color="rgb(93.156433%, 71.80481%, 49.822998%)" offset="0.464844"/><stop stop-opacity="1" stop-color="rgb(93.878174%, 72.56012%, 50.741577%)" offset="0.46875"/><stop stop-opacity="1" stop-color="rgb(94.598389%, 73.31543%, 51.660156%)" offset="0.472656"/><stop stop-opacity="1" stop-color="rgb(95.320129%, 74.072266%, 52.578735%)" offset="0.476562"/><stop stop-opacity="1" stop-color="rgb(96.040344%, 74.827576%, 53.495789%)" offset="0.480469"/><stop stop-opacity="1" stop-color="rgb(96.762085%, 75.582886%, 54.414368%)" offset="0.484375"/><stop stop-opacity="1" stop-color="rgb(97.4823%, 76.338196%, 55.331421%)" offset="0.488281"/><stop stop-opacity="1" stop-color="rgb(98.204041%, 77.093506%, 56.25%)" offset="0.492188"/><stop stop-opacity="1" stop-color="rgb(97.772217%, 76.641846%, 55.700684%)" offset="0.496094"/><stop stop-opacity="1" stop-color="rgb(97.340393%, 76.190186%, 55.151367%)" offset="0.5"/><stop stop-opacity="1" stop-color="rgb(96.728516%, 75.547791%, 54.371643%)" offset="0.503906"/><stop stop-opacity="1" stop-color="rgb(96.116638%, 74.906921%, 53.591919%)" offset="0.507812"/><stop stop-opacity="1" stop-color="rgb(95.503235%, 74.264526%, 52.812195%)" offset="0.511719"/><stop stop-opacity="1" stop-color="rgb(94.891357%, 73.622131%, 52.032471%)" offset="0.515625"/><stop stop-opacity="1" stop-color="rgb(94.277954%, 72.979736%, 51.252747%)" offset="0.519531"/><stop stop-opacity="1" stop-color="rgb(93.666077%, 72.338867%, 50.473022%)" offset="0.523438"/><stop stop-opacity="1" stop-color="rgb(93.054199%, 71.696472%, 49.693298%)" offset="0.527344"/><stop stop-opacity="1" stop-color="rgb(92.442322%, 71.055603%, 48.913574%)" offset="0.53125"/><stop stop-opacity="1" stop-color="rgb(91.828918%, 70.413208%, 48.13385%)" offset="0.535156"/><stop stop-opacity="1" stop-color="rgb(91.217041%, 69.772339%, 47.354126%)" offset="0.539062"/><stop stop-opacity="1" stop-color="rgb(90.603638%, 69.129944%, 46.574402%)" offset="0.542969"/><stop stop-opacity="1" stop-color="rgb(89.99176%, 68.489075%, 45.794678%)" offset="0.546875"/><stop stop-opacity="1" stop-color="rgb(89.379883%, 67.84668%, 45.014954%)" offset="0.550781"/><stop stop-opacity="1" stop-color="rgb(88.768005%, 67.204285%, 44.235229%)" offset="0.554688"/><stop stop-opacity="1" stop-color="rgb(88.154602%, 66.56189%, 43.455505%)" offset="0.558594"/><stop stop-opacity="1" stop-color="rgb(87.542725%, 65.921021%, 42.675781%)" offset="0.5625"/><stop stop-opacity="1" stop-color="rgb(86.930847%, 65.278625%, 41.896057%)" offset="0.566406"/><stop stop-opacity="1" stop-color="rgb(86.31897%, 64.637756%, 41.116333%)" offset="0.570312"/><stop stop-opacity="1" stop-color="rgb(85.705566%, 63.995361%, 40.336609%)" offset="0.574219"/><stop stop-opacity="1" stop-color="rgb(85.093689%, 63.354492%, 39.558411%)" offset="0.578125"/><stop stop-opacity="1" stop-color="rgb(84.480286%, 62.712097%, 38.778687%)" offset="0.582031"/><stop stop-opacity="1" stop-color="rgb(83.868408%, 62.071228%, 37.998962%)" offset="0.585938"/><stop stop-opacity="1" stop-color="rgb(83.256531%, 61.428833%, 37.219238%)" offset="0.589844"/><stop stop-opacity="1" stop-color="rgb(82.644653%, 60.787964%, 36.439514%)" offset="0.59375"/><stop stop-opacity="1" stop-color="rgb(82.03125%, 60.145569%, 35.65979%)" offset="0.597656"/><stop stop-opacity="1" stop-color="rgb(81.419373%, 59.503174%, 34.880066%)" offset="0.601562"/><stop stop-opacity="1" stop-color="rgb(80.807495%, 58.860779%, 34.100342%)" offset="0.605469"/><stop stop-opacity="1" stop-color="rgb(80.195618%, 58.21991%, 33.320618%)" offset="0.609375"/><stop stop-opacity="1" stop-color="rgb(79.582214%, 57.577515%, 32.540894%)" offset="0.613281"/><stop stop-opacity="1" stop-color="rgb(78.970337%, 56.936646%, 31.761169%)" offset="0.617188"/><stop stop-opacity="1" stop-color="rgb(78.356934%, 56.29425%, 30.981445%)" offset="0.621094"/><stop stop-opacity="1" stop-color="rgb(77.745056%, 55.653381%, 30.201721%)" offset="0.625"/><stop stop-opacity="1" stop-color="rgb(77.133179%, 55.010986%, 29.421997%)" offset="0.628906"/><stop stop-opacity="1" stop-color="rgb(76.521301%, 54.370117%, 28.642273%)" offset="0.632812"/><stop stop-opacity="1" stop-color="rgb(75.907898%, 53.727722%, 27.862549%)" offset="0.636719"/><stop stop-opacity="1" stop-color="rgb(75.296021%, 53.085327%, 27.082825%)" offset="0.640625"/><stop stop-opacity="1" stop-color="rgb(74.682617%, 52.442932%, 26.303101%)" offset="0.644531"/><stop stop-opacity="1" stop-color="rgb(74.07074%, 51.802063%, 25.523376%)" offset="0.648438"/><stop stop-opacity="1" stop-color="rgb(73.458862%, 51.159668%, 24.743652%)" offset="0.652344"/><stop stop-opacity="1" stop-color="rgb(72.846985%, 50.518799%, 23.963928%)" offset="0.65625"/><stop stop-opacity="1" stop-color="rgb(72.233582%, 49.876404%, 23.184204%)" offset="0.660156"/><stop stop-opacity="1" stop-color="rgb(71.621704%, 49.235535%, 22.40448%)" offset="0.664062"/><stop stop-opacity="1" stop-color="rgb(71.009827%, 48.59314%, 21.624756%)" offset="0.667969"/><stop stop-opacity="1" stop-color="rgb(70.397949%, 47.952271%, 20.845032%)" offset="0.671875"/><stop stop-opacity="1" stop-color="rgb(69.784546%, 47.309875%, 20.065308%)" offset="0.675781"/><stop stop-opacity="1" stop-color="rgb(69.172668%, 46.669006%, 19.285583%)" offset="0.679688"/><stop stop-opacity="1" stop-color="rgb(68.559265%, 46.026611%, 18.505859%)" offset="0.683594"/><stop stop-opacity="1" stop-color="rgb(67.947388%, 45.384216%, 17.726135%)" offset="0.6875"/><stop stop-opacity="1" stop-color="rgb(67.33551%, 44.741821%, 16.946411%)" offset="0.691406"/><stop stop-opacity="1" stop-color="rgb(66.723633%, 44.100952%, 16.166687%)" offset="0.695313"/><stop stop-opacity="1" stop-color="rgb(66.110229%, 43.458557%, 15.386963%)" offset="0.699219"/><stop stop-opacity="1" stop-color="rgb(65.498352%, 42.817688%, 14.607239%)" offset="0.703125"/><stop stop-opacity="1" stop-color="rgb(65.298462%, 42.608643%, 14.352417%)" offset="0.707031"/><stop stop-opacity="1" stop-color="rgb(65.098572%, 42.399597%, 14.099121%)" offset="0.710938"/><stop stop-opacity="1" stop-color="rgb(65.098572%, 42.399597%, 14.099121%)" offset="0.71875"/><stop stop-opacity="1" stop-color="rgb(65.098572%, 42.399597%, 14.099121%)" offset="0.75"/><stop stop-opacity="1" stop-color="rgb(65.098572%, 42.399597%, 14.099121%)" offset="0.947309"/><stop stop-opacity="1" stop-color="rgb(65.098572%, 42.399597%, 14.099121%)" offset="1"/></linearGradient><clipPath id="694b55a5bc"><path d="M 88.980469 167 L 93 167 L 93 171 L 88.980469 171 Z M 88.980469 167 " clip-rule="nonzero"/></clipPath><clipPath id="bcb2e64089"><path d="M 90.859375 167.027344 C 89.824219 167.027344 88.980469 167.863281 88.980469 168.894531 C 88.980469 169.925781 89.824219 170.765625 90.859375 170.765625 C 91.894531 170.765625 92.738281 169.925781 92.738281 168.894531 C 92.738281 167.863281 91.894531 167.027344 90.859375 167.027344 Z M 90.859375 170.296875 C 90.082031 170.296875 89.453125 169.667969 89.453125 168.894531 C 89.453125 168.125 90.082031 167.496094 90.859375 167.496094 C 91.636719 167.496094 92.265625 168.125 92.265625 168.894531 C 92.265625 169.667969 91.636719 170.296875 90.859375 170.296875 Z M 90.859375 170.296875 " clip-rule="nonzero"/></clipPath><linearGradient x1="4.908062" gradientTransform="matrix(0.3945, 0, 0, 0.393078, 88.982111, 112.895567)" y1="137.567666" x2="4.609806" gradientUnits="userSpaceOnUse" y2="147.366306" id="ccf6874280"><stop stop-opacity="1" stop-color="rgb(91.784668%, 70.367432%, 48.077393%)" offset="0"/><stop stop-opacity="1" stop-color="rgb(91.699219%, 70.277405%, 47.969055%)" offset="0.0295394"/><stop stop-opacity="1" stop-color="rgb(91.61377%, 70.188904%, 47.860718%)" offset="0.03125"/><stop stop-opacity="1" stop-color="rgb(91.52832%, 70.098877%, 47.750854%)" offset="0.0625"/><stop stop-opacity="1" stop-color="rgb(91.358948%, 69.918823%, 47.53418%)" offset="0.09375"/><stop stop-opacity="1" stop-color="rgb(91.188049%, 69.740295%, 47.315979%)" offset="0.125"/><stop stop-opacity="1" stop-color="rgb(91.017151%, 69.561768%, 47.099304%)" offset="0.15625"/><stop stop-opacity="1" stop-color="rgb(90.846252%, 69.381714%, 46.881104%)" offset="0.1875"/><stop stop-opacity="1" stop-color="rgb(90.675354%, 69.203186%, 46.664429%)" offset="0.21875"/><stop stop-opacity="1" stop-color="rgb(90.504456%, 69.024658%, 46.446228%)" offset="0.25"/><stop stop-opacity="1" stop-color="rgb(90.333557%, 68.844604%, 46.229553%)" offset="0.28125"/><stop stop-opacity="1" stop-color="rgb(90.162659%, 68.666077%, 46.011353%)" offset="0.3125"/><stop stop-opacity="1" stop-color="rgb(89.99176%, 68.487549%, 45.793152%)" offset="0.34375"/><stop stop-opacity="1" stop-color="rgb(89.820862%, 68.309021%, 45.576477%)" offset="0.375"/><stop stop-opacity="1" stop-color="rgb(89.649963%, 68.128967%, 45.358276%)" offset="0.40625"/><stop stop-opacity="1" stop-color="rgb(89.479065%, 67.950439%, 45.141602%)" offset="0.4375"/><stop stop-opacity="1" stop-color="rgb(89.308167%, 67.771912%, 44.923401%)" offset="0.46875"/><stop stop-opacity="1" stop-color="rgb(89.137268%, 67.591858%, 44.706726%)" offset="0.5"/><stop stop-opacity="1" stop-color="rgb(88.96637%, 67.41333%, 44.488525%)" offset="0.53125"/><stop stop-opacity="1" stop-color="rgb(88.795471%, 67.234802%, 44.271851%)" offset="0.5625"/><stop stop-opacity="1" stop-color="rgb(88.624573%, 67.054749%, 44.05365%)" offset="0.59375"/><stop stop-opacity="1" stop-color="rgb(88.4552%, 66.876221%, 43.836975%)" offset="0.625"/><stop stop-opacity="1" stop-color="rgb(88.284302%, 66.697693%, 43.618774%)" offset="0.65625"/><stop stop-opacity="1" stop-color="rgb(88.113403%, 66.517639%, 43.4021%)" offset="0.6875"/><stop stop-opacity="1" stop-color="rgb(87.942505%, 66.339111%, 43.183899%)" offset="0.71875"/><stop stop-opacity="1" stop-color="rgb(87.771606%, 66.160583%, 42.967224%)" offset="0.75"/><stop stop-opacity="1" stop-color="rgb(87.600708%, 65.98053%, 42.749023%)" offset="0.78125"/><stop stop-opacity="1" stop-color="rgb(87.42981%, 65.802002%, 42.532349%)" offset="0.8125"/><stop stop-opacity="1" stop-color="rgb(87.258911%, 65.623474%, 42.314148%)" offset="0.84375"/><stop stop-opacity="1" stop-color="rgb(87.088013%, 65.44342%, 42.095947%)" offset="0.875"/><stop stop-opacity="1" stop-color="rgb(86.917114%, 65.264893%, 41.879272%)" offset="0.90625"/><stop stop-opacity="1" stop-color="rgb(86.746216%, 65.086365%, 41.661072%)" offset="0.9375"/><stop stop-opacity="1" stop-color="rgb(86.575317%, 64.907837%, 41.444397%)" offset="0.96875"/><stop stop-opacity="1" stop-color="rgb(86.404419%, 64.727783%, 41.226196%)" offset="0.970461"/><stop stop-opacity="1" stop-color="rgb(86.31897%, 64.639282%, 41.117859%)" offset="1"/></linearGradient></defs><path fill="#ffffff" d="M 183.367188 123.960938 L 183.757812 123.960938 L 183.757812 124.566406 L 183.367188 124.566406 Z M 183.367188 123.960938 " fill-opacity="1" fill-rule="nonzero"/><path fill="#ffffff" d="M 183.367188 119.117188 L 183.757812 119.117188 L 183.757812 123.152344 L 183.367188 123.152344 Z M 183.367188 119.117188 " fill-opacity="1" fill-rule="nonzero"/><path fill="#ffffff" d="M 183.367188 117.90625 L 183.757812 117.90625 L 183.757812 118.511719 L 183.367188 118.511719 Z M 183.367188 117.90625 " fill-opacity="1" fill-rule="nonzero"/><g clip-path="url(#56fa9fb2eb)"><path fill="#ffffff" d="M 183.367188 112.894531 L 183.757812 112.894531 L 183.757812 115.890625 L 183.367188 115.890625 Z M 183.367188 112.894531 " fill-opacity="1" fill-rule="nonzero"/></g><path fill="#ffffff" d="M 183.367188 116.695312 L 183.757812 116.695312 L 183.757812 117.300781 L 183.367188 117.300781 Z M 183.367188 116.695312 " fill-opacity="1" fill-rule="nonzero"/><path fill="#ffffff" d="M 183.367188 133.644531 L 183.757812 133.644531 L 183.757812 137.679688 L 183.367188 137.679688 Z M 183.367188 133.644531 " fill-opacity="1" fill-rule="nonzero"/><path fill="#ffffff" d="M 183.367188 125.171875 L 183.757812 125.171875 L 183.757812 125.777344 L 183.367188 125.777344 Z M 183.367188 125.171875 " fill-opacity="1" fill-rule="nonzero"/><path fill="#ffffff" d="M 183.367188 126.382812 L 183.757812 126.382812 L 183.757812 130.417969 L 183.367188 130.417969 Z M 183.367188 126.382812 " fill-opacity="1" fill-rule="nonzero"/><path fill="#ffffff" d="M 183.367188 131.222656 L 183.757812 131.222656 L 183.757812 131.828125 L 183.367188 131.828125 Z M 183.367188 131.222656 " fill-opacity="1" fill-rule="nonzero"/><path fill="#ffffff" d="M 183.367188 132.433594 L 183.757812 132.433594 L 183.757812 133.039062 L 183.367188 133.039062 Z M 183.367188 132.433594 " fill-opacity="1" fill-rule="nonzero"/><path fill="#ffffff" d="M 200.859375 121.546875 L 201.066406 120.976562 L 201.433594 121.113281 L 201.226562 121.679688 Z M 200.859375 121.546875 " fill-opacity="1" fill-rule="nonzero"/><path fill="#ffffff" d="M 201.273438 120.410156 L 201.480469 119.839844 L 201.851562 119.976562 L 201.640625 120.542969 Z M 201.273438 120.410156 " fill-opacity="1" fill-rule="nonzero"/><path fill="#ffffff" d="M 138.671875 143.707031 L 138.867188 143.367188 L 139.394531 143.671875 L 139.195312 144.011719 Z M 138.671875 143.707031 " fill-opacity="1" fill-rule="nonzero"/><path fill="#ffffff" d="M 194.277344 139.558594 L 195.664062 135.765625 L 196.03125 135.898438 L 194.648438 139.691406 Z M 194.277344 139.558594 " fill-opacity="1" fill-rule="nonzero"/><path fill="#ffffff" d="M 212.347656 134.996094 L 212.738281 134.53125 L 213.039062 134.785156 L 212.648438 135.25 Z M 212.347656 134.996094 " fill-opacity="1" fill-rule="nonzero"/><path fill="#ffffff" d="M 211.566406 135.925781 L 211.957031 135.460938 L 212.257812 135.710938 L 211.867188 136.175781 Z M 211.566406 135.925781 " fill-opacity="1" fill-rule="nonzero"/><path fill="#ffffff" d="M 201.757812 119.082031 L 202.789062 116.269531 L 203.15625 116.402344 L 202.128906 119.21875 Z M 201.757812 119.082031 " fill-opacity="1" fill-rule="nonzero"/><path fill="#ffffff" d="M 196.285156 134.058594 L 196.492188 133.492188 L 196.863281 133.625 L 196.65625 134.191406 Z M 196.285156 134.058594 " fill-opacity="1" fill-rule="nonzero"/><path fill="#ffffff" d="M 195.871094 135.195312 L 196.078125 134.628906 L 196.445312 134.761719 L 196.238281 135.328125 Z M 195.871094 135.195312 " fill-opacity="1" fill-rule="nonzero"/><path fill="#ffffff" d="M 196.769531 132.730469 L 198.15625 128.941406 L 198.523438 129.074219 L 197.140625 132.867188 Z M 196.769531 132.730469 " fill-opacity="1" fill-rule="nonzero"/><path fill="#ffffff" d="M 199.265625 125.90625 L 200.652344 122.117188 L 201.019531 122.25 L 199.632812 126.042969 Z M 199.265625 125.90625 " fill-opacity="1" fill-rule="nonzero"/><path fill="#ffffff" d="M 198.363281 128.371094 L 198.570312 127.804688 L 198.941406 127.9375 L 198.734375 128.503906 Z M 198.363281 128.371094 " fill-opacity="1" fill-rule="nonzero"/><path fill="#ffffff" d="M 198.78125 127.234375 L 198.988281 126.664062 L 199.355469 126.800781 L 199.148438 127.367188 Z M 198.78125 127.234375 " fill-opacity="1" fill-rule="nonzero"/><path fill="#ffffff" d="M 139.722656 144.3125 L 139.917969 143.976562 L 143.421875 146 L 143.226562 146.335938 Z M 139.722656 144.3125 " fill-opacity="1" fill-rule="nonzero"/><path fill="#ffffff" d="M 149.429688 129.058594 L 149.730469 128.808594 L 150.121094 129.269531 L 149.820312 129.523438 Z M 149.429688 129.058594 " fill-opacity="1" fill-rule="nonzero"/><path fill="#ffffff" d="M 146.980469 126.140625 L 147.28125 125.890625 L 149.210938 128.1875 L 148.910156 128.4375 Z M 146.980469 126.140625 " fill-opacity="1" fill-rule="nonzero"/><path fill="#ffffff" d="M 150.210938 129.988281 L 150.511719 129.734375 L 150.898438 130.199219 L 150.597656 130.449219 Z M 150.210938 129.988281 " fill-opacity="1" fill-rule="nonzero"/><path fill="#ffffff" d="M 154.886719 135.558594 L 155.1875 135.308594 L 155.578125 135.769531 L 155.277344 136.023438 Z M 154.886719 135.558594 " fill-opacity="1" fill-rule="nonzero"/><path fill="#ffffff" d="M 154.105469 134.628906 L 154.40625 134.378906 L 154.796875 134.839844 L 154.496094 135.09375 Z M 154.105469 134.628906 " fill-opacity="1" fill-rule="nonzero"/><path fill="#ffffff" d="M 153.886719 133.757812 L 151.289062 130.664062 L 150.988281 130.914062 L 153.585938 134.007812 Z M 153.886719 133.757812 " fill-opacity="1" fill-rule="nonzero"/><path fill="#ffffff" d="M 143.925781 146.738281 L 144.125 146.402344 L 144.648438 146.707031 L 144.453125 147.042969 Z M 143.925781 146.738281 " fill-opacity="1" fill-rule="nonzero"/><path fill="#ffffff" d="M 213.257812 133.917969 L 215.863281 130.824219 L 216.164062 131.078125 L 213.558594 134.167969 Z M 213.257812 133.917969 " fill-opacity="1" fill-rule="nonzero"/><path fill="#ffffff" d="M 151.285156 150.988281 L 151.484375 150.648438 L 152.007812 150.953125 L 151.8125 151.292969 Z M 151.285156 150.988281 " fill-opacity="1" fill-rule="nonzero"/><path fill="#ffffff" d="M 150.234375 150.382812 L 150.429688 150.042969 L 150.957031 150.347656 L 150.761719 150.683594 Z M 150.234375 150.382812 " fill-opacity="1" fill-rule="nonzero"/><path fill="#ffffff" d="M 168.246094 127.855469 L 168.613281 127.722656 L 168.820312 128.289062 L 168.453125 128.425781 Z M 168.246094 127.855469 " fill-opacity="1" fill-rule="nonzero"/><path fill="#ffffff" d="M 168.660156 128.992188 L 169.027344 128.859375 L 170.40625 132.652344 L 170.035156 132.785156 Z M 168.660156 128.992188 " fill-opacity="1" fill-rule="nonzero"/><path fill="#ffffff" d="M 170.3125 133.542969 L 170.683594 133.410156 L 170.890625 133.980469 L 170.519531 134.113281 Z M 170.3125 133.542969 " fill-opacity="1" fill-rule="nonzero"/><path fill="#ffffff" d="M 167.832031 126.714844 L 168.199219 126.582031 L 168.40625 127.152344 L 168.039062 127.285156 Z M 167.832031 126.714844 " fill-opacity="1" fill-rule="nonzero"/><path fill="#ffffff" d="M 170.726562 134.683594 L 171.097656 134.550781 L 171.300781 135.117188 L 170.933594 135.25 Z M 170.726562 134.683594 " fill-opacity="1" fill-rule="nonzero"/><path fill="#ffffff" d="M 164.050781 116.3125 L 164.417969 116.179688 L 165.441406 118.996094 L 165.074219 119.128906 Z M 164.050781 116.3125 " fill-opacity="1" fill-rule="nonzero"/><path fill="#ffffff" d="M 159.5625 141.128906 L 159.863281 140.875 L 160.253906 141.339844 L 159.953125 141.59375 Z M 159.5625 141.128906 " fill-opacity="1" fill-rule="nonzero"/><path fill="#ffffff" d="M 165.761719 121.023438 L 166.132812 120.890625 L 166.339844 121.460938 L 165.96875 121.59375 Z M 165.761719 121.023438 " fill-opacity="1" fill-rule="nonzero"/><path fill="#ffffff" d="M 165.347656 119.886719 L 165.71875 119.753906 L 165.925781 120.324219 L 165.554688 120.457031 Z M 165.347656 119.886719 " fill-opacity="1" fill-rule="nonzero"/><path fill="#ffffff" d="M 166.175781 122.164062 L 166.546875 122.03125 L 167.921875 125.824219 L 167.554688 125.957031 Z M 166.175781 122.164062 " fill-opacity="1" fill-rule="nonzero"/><path fill="#ffffff" d="M 202.558594 191.949219 C 202.460938 192.035156 202.363281 192.121094 202.261719 192.207031 L 202.4375 192.414062 L 202.738281 192.160156 Z M 202.558594 191.949219 " fill-opacity="1" fill-rule="nonzero"/><path fill="#ffffff" d="M 163.273438 192.949219 L 163.664062 192.484375 L 163.964844 192.738281 L 163.574219 193.199219 Z M 163.273438 192.949219 " fill-opacity="1" fill-rule="nonzero"/><path fill="#ffffff" d="M 209.707031 184.867188 L 209.902344 184.527344 L 210.429688 184.832031 L 210.230469 185.171875 Z M 209.707031 184.867188 " fill-opacity="1" fill-rule="nonzero"/><path fill="#ffffff" d="M 202.824219 192.875 L 203.125 192.625 L 203.515625 193.089844 L 203.214844 193.339844 Z M 202.824219 192.875 " fill-opacity="1" fill-rule="nonzero"/><path fill="#ffffff" d="M 157.472656 184.039062 L 157.667969 184.375 L 157.90625 184.242188 C 157.839844 184.128906 157.773438 184.015625 157.710938 183.902344 Z M 157.472656 184.039062 " fill-opacity="1" fill-rule="nonzero"/><path fill="#ffffff" d="M 152.335938 151.59375 L 152.535156 151.253906 L 156.039062 153.277344 L 155.839844 153.617188 Z M 152.335938 151.59375 " fill-opacity="1" fill-rule="nonzero"/><path fill="#ffffff" d="M 156.421875 184.640625 L 156.945312 184.339844 L 157.140625 184.679688 L 156.617188 184.980469 Z M 156.421875 184.640625 " fill-opacity="1" fill-rule="nonzero"/><path fill="#ffffff" d="M 210.933594 185.574219 L 211.128906 185.234375 L 214.636719 187.257812 L 214.4375 187.59375 Z M 210.933594 185.574219 " fill-opacity="1" fill-rule="nonzero"/><path fill="#ffffff" d="M 152.207031 187.058594 L 155.71875 185.042969 L 155.914062 185.382812 L 152.40625 187.398438 Z M 152.207031 187.058594 " fill-opacity="1" fill-rule="nonzero"/><path fill="#ffffff" d="M 229.207031 161.304688 L 233.195312 160.605469 L 233.265625 160.992188 L 229.277344 161.691406 Z M 229.207031 161.304688 " fill-opacity="1" fill-rule="nonzero"/><path fill="#ffffff" d="M 233.796875 160.503906 L 234.394531 160.398438 L 234.460938 160.78125 L 233.863281 160.886719 Z M 233.796875 160.503906 " fill-opacity="1" fill-rule="nonzero"/><path fill="#ffffff" d="M 227.8125 161.550781 L 228.410156 161.445312 L 228.480469 161.832031 L 227.878906 161.9375 Z M 227.8125 161.550781 " fill-opacity="1" fill-rule="nonzero"/><path fill="#ffffff" d="M 236.386719 160.046875 L 239.347656 159.53125 L 239.414062 159.914062 L 236.457031 160.433594 Z M 236.386719 160.046875 " fill-opacity="1" fill-rule="nonzero"/><path fill="#ffffff" d="M 226.617188 161.761719 L 227.214844 161.65625 L 227.28125 162.042969 L 226.683594 162.144531 Z M 226.617188 161.761719 " fill-opacity="1" fill-rule="nonzero"/><path fill="#ffffff" d="M 234.992188 160.292969 L 235.589844 160.1875 L 235.65625 160.574219 L 235.058594 160.679688 Z M 234.992188 160.292969 " fill-opacity="1" fill-rule="nonzero"/><path fill="#ffffff" d="M 222.03125 162.566406 L 226.019531 161.867188 L 226.085938 162.25 L 222.097656 162.949219 Z M 222.03125 162.566406 " fill-opacity="1" fill-rule="nonzero"/><path fill="#ffffff" d="M 216.253906 130.363281 L 216.644531 129.898438 L 216.945312 130.148438 L 216.554688 130.613281 Z M 216.253906 130.363281 " fill-opacity="1" fill-rule="nonzero"/><path fill="#ffffff" d="M 220.632812 162.808594 L 221.230469 162.703125 L 221.300781 163.089844 L 220.703125 163.195312 Z M 220.632812 162.808594 " fill-opacity="1" fill-rule="nonzero"/><path fill="#ffffff" d="M 219.4375 163.019531 L 220.035156 162.914062 L 220.101562 163.300781 L 219.503906 163.40625 Z M 219.4375 163.019531 " fill-opacity="1" fill-rule="nonzero"/><path fill="#ffffff" d="M 214.851562 163.824219 L 218.839844 163.125 L 218.90625 163.511719 L 214.917969 164.210938 Z M 214.851562 163.824219 " fill-opacity="1" fill-rule="nonzero"/><path fill="#ffffff" d="M 228.742188 143.285156 L 229.269531 142.984375 L 229.464844 143.320312 L 228.941406 143.625 Z M 228.742188 143.285156 " fill-opacity="1" fill-rule="nonzero"/><path fill="#ffffff" d="M 227.691406 143.890625 L 228.21875 143.585938 L 228.414062 143.925781 L 227.886719 144.230469 Z M 227.691406 143.890625 " fill-opacity="1" fill-rule="nonzero"/><path fill="#ffffff" d="M 221.378906 147.519531 L 221.902344 147.21875 L 222.101562 147.558594 L 221.574219 147.859375 Z M 221.378906 147.519531 " fill-opacity="1" fill-rule="nonzero"/><path fill="#ffffff" d="M 222.429688 146.917969 L 222.957031 146.613281 L 223.152344 146.953125 L 222.625 147.253906 Z M 222.429688 146.917969 " fill-opacity="1" fill-rule="nonzero"/><path fill="#ffffff" d="M 217.34375 149.839844 L 220.851562 147.824219 L 221.046875 148.164062 L 217.539062 150.179688 Z M 217.34375 149.839844 " fill-opacity="1" fill-rule="nonzero"/><path fill="#ffffff" d="M 223.65625 146.210938 L 227.164062 144.195312 L 227.363281 144.53125 L 223.855469 146.550781 Z M 223.65625 146.210938 " fill-opacity="1" fill-rule="nonzero"/><path fill="#ffffff" d="M 207.660156 140.558594 L 208.050781 140.097656 L 208.351562 140.347656 L 207.960938 140.8125 Z M 207.660156 140.558594 " fill-opacity="1" fill-rule="nonzero"/><path fill="#ffffff" d="M 217.945312 128.351562 L 219.875 126.058594 L 220.175781 126.308594 L 218.246094 128.605469 Z M 217.945312 128.351562 " fill-opacity="1" fill-rule="nonzero"/><path fill="#ffffff" d="M 208.570312 139.476562 L 211.175781 136.386719 L 211.476562 136.636719 L 208.871094 139.730469 Z M 208.570312 139.476562 " fill-opacity="1" fill-rule="nonzero"/><path fill="#ffffff" d="M 217.035156 129.433594 L 217.425781 128.972656 L 217.726562 129.222656 L 217.335938 129.6875 Z M 217.035156 129.433594 " fill-opacity="1" fill-rule="nonzero"/><path fill="#ffffff" d="M 206.878906 141.488281 L 207.269531 141.023438 L 207.570312 141.273438 L 207.179688 141.738281 Z M 206.878906 141.488281 " fill-opacity="1" fill-rule="nonzero"/><path fill="#ffffff" d="M 216.117188 150.542969 L 216.640625 150.242188 L 216.839844 150.582031 L 216.3125 150.882812 Z M 216.117188 150.542969 " fill-opacity="1" fill-rule="nonzero"/><path fill="#ffffff" d="M 229.972656 142.578125 L 232.574219 141.082031 L 232.769531 141.417969 L 230.167969 142.917969 Z M 229.972656 142.578125 " fill-opacity="1" fill-rule="nonzero"/><path fill="#ffffff" d="M 203.882812 145.039062 L 206.488281 141.949219 L 206.789062 142.199219 L 204.183594 145.292969 Z M 203.882812 145.039062 " fill-opacity="1" fill-rule="nonzero"/><path fill="#ffffff" d="M 203.734375 193.960938 L 204.035156 193.707031 L 206.636719 196.800781 L 206.335938 197.050781 Z M 203.734375 193.960938 " fill-opacity="1" fill-rule="nonzero"/><path fill="#ffffff" d="M 164.054688 192.019531 L 164.355469 192.273438 L 164.53125 192.066406 C 164.429688 191.980469 164.332031 191.894531 164.234375 191.808594 Z M 164.054688 192.019531 " fill-opacity="1" fill-rule="nonzero"/><path fill="#ffffff" d="M 215.0625 151.152344 L 215.589844 150.847656 L 215.785156 151.1875 L 215.261719 151.488281 Z M 215.0625 151.152344 " fill-opacity="1" fill-rule="nonzero"/><path fill="#ffffff" d="M 163.242188 144.898438 L 160.644531 141.804688 L 160.34375 142.054688 L 162.941406 145.152344 Z M 163.242188 144.898438 " fill-opacity="1" fill-rule="nonzero"/><path fill="#ffffff" d="M 211.03125 153.46875 L 214.539062 151.453125 L 214.734375 151.789062 L 211.226562 153.804688 Z M 211.03125 153.46875 " fill-opacity="1" fill-rule="nonzero"/><path fill="#ffffff" d="M 183.167969 207.046875 L 183.558594 207.046875 L 183.558594 207.652344 L 183.167969 207.652344 Z M 183.167969 207.046875 " fill-opacity="1" fill-rule="nonzero"/><path fill="#ffffff" d="M 198.171875 210.574219 L 198.542969 210.4375 L 198.75 211.007812 L 198.378906 211.140625 Z M 198.171875 210.574219 " fill-opacity="1" fill-rule="nonzero"/><path fill="#ffffff" d="M 198.585938 211.710938 L 198.957031 211.578125 L 199.164062 212.144531 L 198.792969 212.28125 Z M 198.585938 211.710938 " fill-opacity="1" fill-rule="nonzero"/><path fill="#ffffff" d="M 199.070312 213.039062 L 199.4375 212.902344 L 200.824219 216.695312 L 200.453125 216.828125 Z M 199.070312 213.039062 " fill-opacity="1" fill-rule="nonzero"/><path fill="#ffffff" d="M 196.097656 204.882812 L 196.46875 204.75 L 196.675781 205.316406 L 196.304688 205.453125 Z M 196.097656 204.882812 " fill-opacity="1" fill-rule="nonzero"/><path fill="#ffffff" d="M 195.683594 203.746094 L 196.054688 203.613281 L 196.261719 204.179688 L 195.890625 204.3125 Z M 195.683594 203.746094 " fill-opacity="1" fill-rule="nonzero"/><path fill="#ffffff" d="M 211.410156 203.082031 L 211.710938 202.828125 L 212.101562 203.292969 L 211.800781 203.542969 Z M 211.410156 203.082031 " fill-opacity="1" fill-rule="nonzero"/><path fill="#ffffff" d="M 200.660156 217.398438 L 201.03125 217.265625 L 201.238281 217.835938 L 200.867188 217.96875 Z M 200.660156 217.398438 " fill-opacity="1" fill-rule="nonzero"/><path fill="#ffffff" d="M 206.726562 197.515625 L 207.027344 197.265625 L 207.417969 197.730469 L 207.117188 197.980469 Z M 206.726562 197.515625 " fill-opacity="1" fill-rule="nonzero"/><path fill="#ffffff" d="M 201.074219 218.535156 L 201.445312 218.402344 L 201.652344 218.972656 L 201.28125 219.105469 Z M 201.074219 218.535156 " fill-opacity="1" fill-rule="nonzero"/><path fill="#ffffff" d="M 207.507812 198.445312 L 207.808594 198.191406 L 208.199219 198.65625 L 207.898438 198.90625 Z M 207.507812 198.445312 " fill-opacity="1" fill-rule="nonzero"/><path fill="#ffffff" d="M 208.417969 199.527344 L 208.71875 199.277344 L 211.320312 202.367188 L 211.019531 202.617188 Z M 208.417969 199.527344 " fill-opacity="1" fill-rule="nonzero"/><path fill="#ffffff" d="M 194.09375 199.386719 L 194.460938 199.25 L 195.847656 203.042969 L 195.476562 203.175781 Z M 194.09375 199.386719 " fill-opacity="1" fill-rule="nonzero"/><path fill="#ffffff" d="M 201.558594 219.867188 L 201.925781 219.730469 L 202.953125 222.546875 L 202.582031 222.679688 Z M 201.558594 219.867188 " fill-opacity="1" fill-rule="nonzero"/><path fill="#ffffff" d="M 198.007812 195.109375 L 211.574219 218.5625 L 211.914062 218.367188 L 198.347656 194.914062 C 198.234375 194.980469 198.121094 195.042969 198.007812 195.109375 Z M 198.007812 195.109375 " fill-opacity="1" fill-rule="nonzero"/><path fill="#ffffff" d="M 196.582031 206.210938 L 196.953125 206.078125 L 198.335938 209.871094 L 197.964844 210.003906 Z M 196.582031 206.210938 " fill-opacity="1" fill-rule="nonzero"/><path fill="#ffffff" d="M 183.160156 214.308594 L 183.554688 214.308594 L 183.554688 214.914062 L 183.160156 214.914062 Z M 183.160156 214.308594 " fill-opacity="1" fill-rule="nonzero"/><path fill="#ffffff" d="M 183.160156 215.722656 L 183.550781 215.722656 L 183.550781 219.757812 L 183.160156 219.757812 Z M 183.160156 215.722656 " fill-opacity="1" fill-rule="nonzero"/><path fill="#ffffff" d="M 183.160156 213.097656 L 183.554688 213.097656 L 183.554688 213.703125 L 183.160156 213.703125 Z M 183.160156 213.097656 " fill-opacity="1" fill-rule="nonzero"/><path fill="#ffffff" d="M 183.15625 221.574219 L 183.546875 221.574219 L 183.546875 222.179688 L 183.15625 222.179688 Z M 183.15625 221.574219 " fill-opacity="1" fill-rule="nonzero"/><path fill="#ffffff" d="M 193.609375 198.058594 L 193.980469 197.925781 L 194.1875 198.492188 L 193.816406 198.625 Z M 193.609375 198.058594 " fill-opacity="1" fill-rule="nonzero"/><path fill="#ffffff" d="M 183.164062 208.460938 L 183.558594 208.460938 L 183.558594 212.496094 L 183.164062 212.496094 Z M 183.164062 208.460938 " fill-opacity="1" fill-rule="nonzero"/><path fill="#ffffff" d="M 183.15625 220.363281 L 183.546875 220.363281 L 183.546875 220.96875 L 183.15625 220.96875 Z M 183.15625 220.363281 " fill-opacity="1" fill-rule="nonzero"/><path fill="#ffffff" d="M 183.152344 222.984375 L 183.546875 222.984375 L 183.546875 225.980469 L 183.152344 225.980469 Z M 183.152344 222.984375 " fill-opacity="1" fill-rule="nonzero"/><path fill="#ffffff" d="M 188.316406 198.511719 L 193.011719 225.175781 L 193.398438 225.109375 L 188.703125 198.441406 C 188.574219 198.464844 188.445312 198.492188 188.316406 198.511719 Z M 188.316406 198.511719 " fill-opacity="1" fill-rule="nonzero"/><path fill="#ffffff" d="M 193.683594 197.109375 C 193.558594 197.152344 193.433594 197.191406 193.3125 197.234375 L 193.402344 197.488281 L 193.773438 197.355469 Z M 193.683594 197.109375 " fill-opacity="1" fill-rule="nonzero"/><path fill="#ffffff" d="M 183.175781 198.902344 L 183.175781 199.179688 L 183.566406 199.179688 L 183.566406 198.910156 C 183.535156 198.910156 183.507812 198.910156 183.480469 198.910156 C 183.375 198.910156 183.277344 198.902344 183.175781 198.902344 Z M 183.175781 198.902344 " fill-opacity="1" fill-rule="nonzero"/><path fill="#ffffff" d="M 183.167969 205.835938 L 183.5625 205.835938 L 183.5625 206.441406 L 183.167969 206.441406 Z M 183.167969 205.835938 " fill-opacity="1" fill-rule="nonzero"/><path fill="#ffffff" d="M 183.171875 201.195312 L 183.5625 201.195312 L 183.5625 205.230469 L 183.171875 205.230469 Z M 183.171875 201.195312 " fill-opacity="1" fill-rule="nonzero"/><path fill="#ffffff" d="M 183.171875 199.785156 L 183.566406 199.785156 L 183.566406 200.390625 L 183.171875 200.390625 Z M 183.171875 199.785156 " fill-opacity="1" fill-rule="nonzero"/><path fill="#ffffff" d="M 213.097656 205.09375 L 213.398438 204.839844 L 216 207.933594 L 215.699219 208.183594 Z M 213.097656 205.09375 " fill-opacity="1" fill-rule="nonzero"/><path fill="#ffffff" d="M 219.402344 176.050781 L 219.46875 175.664062 L 220.070312 175.769531 L 220 176.15625 Z M 219.402344 176.050781 " fill-opacity="1" fill-rule="nonzero"/><path fill="#ffffff" d="M 226.578125 177.3125 L 226.648438 176.929688 L 227.246094 177.035156 L 227.179688 177.417969 Z M 226.578125 177.3125 " fill-opacity="1" fill-rule="nonzero"/><path fill="#ffffff" d="M 221.992188 176.503906 L 222.0625 176.121094 L 226.050781 176.824219 L 225.980469 177.207031 Z M 221.992188 176.503906 " fill-opacity="1" fill-rule="nonzero"/><path fill="#ffffff" d="M 220.597656 176.261719 L 220.667969 175.875 L 221.265625 175.980469 L 221.199219 176.367188 Z M 220.597656 176.261719 " fill-opacity="1" fill-rule="nonzero"/><path fill="#ffffff" d="M 213.421875 174.996094 L 213.488281 174.609375 L 214.085938 174.714844 L 214.019531 175.101562 Z M 213.421875 174.996094 " fill-opacity="1" fill-rule="nonzero"/><path fill="#ffffff" d="M 229.863281 196.480469 L 230.0625 196.140625 L 232.664062 197.640625 L 232.464844 197.976562 Z M 229.863281 196.480469 " fill-opacity="1" fill-rule="nonzero"/><path fill="#ffffff" d="M 214.816406 175.242188 L 214.886719 174.855469 L 218.871094 175.558594 L 218.804688 175.945312 Z M 214.816406 175.242188 " fill-opacity="1" fill-rule="nonzero"/><path fill="#ffffff" d="M 236.347656 179.035156 L 236.417969 178.648438 L 239.378906 179.171875 L 239.308594 179.554688 Z M 236.347656 179.035156 " fill-opacity="1" fill-rule="nonzero"/><path fill="#ffffff" d="M 227.777344 177.523438 L 227.84375 177.140625 L 228.445312 177.246094 L 228.375 177.628906 Z M 227.777344 177.523438 " fill-opacity="1" fill-rule="nonzero"/><path fill="#ffffff" d="M 234.953125 178.789062 L 235.023438 178.40625 L 235.621094 178.511719 L 235.554688 178.894531 Z M 234.953125 178.789062 " fill-opacity="1" fill-rule="nonzero"/><path fill="#ffffff" d="M 229.171875 177.769531 L 229.242188 177.386719 L 233.230469 178.089844 L 233.160156 178.472656 Z M 229.171875 177.769531 " fill-opacity="1" fill-rule="nonzero"/><path fill="#ffffff" d="M 233.757812 178.578125 L 233.828125 178.195312 L 234.425781 178.300781 L 234.355469 178.683594 Z M 233.757812 178.578125 " fill-opacity="1" fill-rule="nonzero"/><path fill="#ffffff" d="M 223.554688 192.84375 L 223.75 192.507812 L 227.257812 194.527344 L 227.058594 194.863281 Z M 223.554688 192.84375 " fill-opacity="1" fill-rule="nonzero"/><path fill="#ffffff" d="M 217.78125 210.660156 L 218.082031 210.410156 L 220.011719 212.703125 L 219.710938 212.957031 Z M 217.78125 210.660156 " fill-opacity="1" fill-rule="nonzero"/><path fill="#ffffff" d="M 205.941406 188.605469 L 226.746094 206.023438 L 227 205.722656 L 206.195312 188.308594 C 206.113281 188.410156 206.023438 188.503906 205.941406 188.605469 Z M 205.941406 188.605469 " fill-opacity="1" fill-rule="nonzero"/><path fill="#ffffff" d="M 216.871094 209.574219 L 217.171875 209.324219 L 217.5625 209.789062 L 217.261719 210.039062 Z M 216.871094 209.574219 " fill-opacity="1" fill-rule="nonzero"/><path fill="#ffffff" d="M 228.636719 195.773438 L 228.835938 195.433594 L 229.359375 195.734375 L 229.164062 196.074219 Z M 228.636719 195.773438 " fill-opacity="1" fill-rule="nonzero"/><path fill="#ffffff" d="M 216.089844 208.652344 L 216.390625 208.398438 L 216.78125 208.863281 L 216.480469 209.113281 Z M 216.089844 208.652344 " fill-opacity="1" fill-rule="nonzero"/><path fill="#ffffff" d="M 214.964844 187.894531 L 215.160156 187.558594 L 215.6875 187.859375 L 215.492188 188.199219 Z M 214.964844 187.894531 " fill-opacity="1" fill-rule="nonzero"/><path fill="#ffffff" d="M 173.300781 225.0625 L 173.6875 225.132812 L 178.429688 198.472656 C 178.300781 198.453125 178.171875 198.429688 178.042969 198.40625 Z M 173.300781 225.0625 " fill-opacity="1" fill-rule="nonzero"/><path fill="#ffffff" d="M 212.1875 204.007812 L 212.488281 203.757812 L 212.878906 204.222656 L 212.578125 204.472656 Z M 212.1875 204.007812 " fill-opacity="1" fill-rule="nonzero"/><path fill="#ffffff" d="M 216.015625 188.503906 L 216.214844 188.164062 L 216.738281 188.46875 L 216.542969 188.804688 Z M 216.015625 188.503906 " fill-opacity="1" fill-rule="nonzero"/><path fill="#ffffff" d="M 222.328125 192.136719 L 222.523438 191.800781 L 223.050781 192.101562 L 222.851562 192.441406 Z M 222.328125 192.136719 " fill-opacity="1" fill-rule="nonzero"/><path fill="#ffffff" d="M 227.585938 195.164062 L 227.78125 194.828125 L 228.308594 195.128906 L 228.113281 195.46875 Z M 227.585938 195.164062 " fill-opacity="1" fill-rule="nonzero"/><path fill="#ffffff" d="M 217.242188 189.210938 L 217.441406 188.871094 L 220.945312 190.890625 L 220.75 191.230469 Z M 217.242188 189.210938 " fill-opacity="1" fill-rule="nonzero"/><path fill="#ffffff" d="M 221.277344 191.53125 L 221.472656 191.195312 L 221.996094 191.496094 L 221.800781 191.835938 Z M 221.277344 191.53125 " fill-opacity="1" fill-rule="nonzero"/><path fill="#ffffff" d="M 148.046875 175.335938 L 152.035156 174.640625 L 152.101562 175.023438 L 148.113281 175.722656 Z M 148.046875 175.335938 " fill-opacity="1" fill-rule="nonzero"/><path fill="#ffffff" d="M 145.652344 175.753906 L 146.25 175.648438 L 146.316406 176.035156 L 145.71875 176.136719 Z M 145.652344 175.753906 " fill-opacity="1" fill-rule="nonzero"/><path fill="#ffffff" d="M 140.867188 176.589844 L 144.855469 175.890625 L 144.921875 176.273438 L 140.933594 176.972656 Z M 140.867188 176.589844 " fill-opacity="1" fill-rule="nonzero"/><path fill="#ffffff" d="M 139.667969 176.796875 L 140.269531 176.691406 L 140.335938 177.078125 L 139.738281 177.179688 Z M 139.667969 176.796875 " fill-opacity="1" fill-rule="nonzero"/><path fill="#ffffff" d="M 137.621094 143.101562 L 137.816406 142.761719 L 138.34375 143.066406 L 138.144531 143.40625 Z M 137.621094 143.101562 " fill-opacity="1" fill-rule="nonzero"/><path fill="#ffffff" d="M 152.832031 174.5 L 153.429688 174.394531 L 153.5 174.78125 L 152.902344 174.882812 Z M 152.832031 174.5 " fill-opacity="1" fill-rule="nonzero"/><path fill="#ffffff" d="M 146.847656 175.542969 L 147.449219 175.441406 L 147.515625 175.824219 L 146.917969 175.929688 Z M 146.847656 175.542969 " fill-opacity="1" fill-rule="nonzero"/><path fill="#ffffff" d="M 127.535156 178.914062 L 130.496094 178.398438 L 130.5625 178.78125 L 127.601562 179.296875 Z M 127.535156 178.914062 " fill-opacity="1" fill-rule="nonzero"/><path fill="#ffffff" d="M 150.101562 188.265625 L 150.628906 187.964844 L 150.824219 188.304688 L 150.300781 188.605469 Z M 150.101562 188.265625 " fill-opacity="1" fill-rule="nonzero"/><path fill="#ffffff" d="M 132.488281 178.050781 L 133.085938 177.945312 L 133.15625 178.328125 L 132.558594 178.433594 Z M 132.488281 178.050781 " fill-opacity="1" fill-rule="nonzero"/><path fill="#ffffff" d="M 131.292969 178.257812 L 131.890625 178.152344 L 131.960938 178.539062 L 131.359375 178.640625 Z M 131.292969 178.257812 " fill-opacity="1" fill-rule="nonzero"/><path fill="#ffffff" d="M 151.15625 187.660156 L 151.683594 187.359375 L 151.878906 187.699219 L 151.351562 188 Z M 151.15625 187.660156 " fill-opacity="1" fill-rule="nonzero"/><path fill="#ffffff" d="M 152.875 164.132812 L 152.945312 163.75 L 153.542969 163.855469 L 153.472656 164.238281 Z M 152.875 164.132812 " fill-opacity="1" fill-rule="nonzero"/><path fill="#ffffff" d="M 148.089844 163.285156 L 148.160156 162.902344 L 152.144531 163.605469 L 152.078125 163.992188 Z M 148.089844 163.285156 " fill-opacity="1" fill-rule="nonzero"/><path fill="#ffffff" d="M 146.894531 163.074219 L 146.960938 162.691406 L 147.5625 162.796875 L 147.492188 163.179688 Z M 146.894531 163.074219 " fill-opacity="1" fill-rule="nonzero"/><path fill="#ffffff" d="M 134.316406 141.195312 L 134.515625 140.855469 L 137.117188 142.355469 L 136.917969 142.695312 Z M 134.316406 141.195312 " fill-opacity="1" fill-rule="nonzero"/><path fill="#ffffff" d="M 145.699219 162.863281 L 145.765625 162.476562 L 146.363281 162.582031 L 146.296875 162.96875 Z M 145.699219 162.863281 " fill-opacity="1" fill-rule="nonzero"/><path fill="#ffffff" d="M 132.539062 160.535156 L 132.609375 160.148438 L 133.207031 160.253906 L 133.136719 160.640625 Z M 132.539062 160.535156 " fill-opacity="1" fill-rule="nonzero"/><path fill="#ffffff" d="M 127.585938 159.65625 L 127.65625 159.273438 L 130.617188 159.796875 L 130.546875 160.179688 Z M 127.585938 159.65625 " fill-opacity="1" fill-rule="nonzero"/><path fill="#ffffff" d="M 131.34375 160.320312 L 131.414062 159.9375 L 132.011719 160.042969 L 131.941406 160.429688 Z M 131.34375 160.320312 " fill-opacity="1" fill-rule="nonzero"/><path fill="#ffffff" d="M 140.914062 162.015625 L 140.984375 161.632812 L 144.96875 162.335938 L 144.902344 162.722656 Z M 140.914062 162.015625 " fill-opacity="1" fill-rule="nonzero"/><path fill="#ffffff" d="M 139.71875 161.804688 L 139.785156 161.417969 L 140.382812 161.523438 L 140.316406 161.910156 Z M 139.71875 161.804688 " fill-opacity="1" fill-rule="nonzero"/><path fill="#ffffff" d="M 137.46875 195.515625 L 137.996094 195.210938 L 138.191406 195.550781 L 137.664062 195.851562 Z M 137.46875 195.515625 " fill-opacity="1" fill-rule="nonzero"/><path fill="#ffffff" d="M 165.066406 218.886719 L 165.273438 218.316406 L 165.644531 218.449219 L 165.433594 219.019531 Z M 165.066406 218.886719 " fill-opacity="1" fill-rule="nonzero"/><path fill="#ffffff" d="M 165.898438 216.609375 L 167.289062 212.820312 L 167.65625 212.953125 L 166.265625 216.742188 Z M 165.898438 216.609375 " fill-opacity="1" fill-rule="nonzero"/><path fill="#ffffff" d="M 163.757812 222.457031 L 164.789062 219.644531 L 165.15625 219.777344 L 164.125 222.589844 Z M 163.757812 222.457031 " fill-opacity="1" fill-rule="nonzero"/><path fill="#ffffff" d="M 165.484375 217.746094 L 165.691406 217.179688 L 166.058594 217.3125 L 165.851562 217.882812 Z M 165.484375 217.746094 " fill-opacity="1" fill-rule="nonzero"/><path fill="#ffffff" d="M 153.890625 204.066406 L 154.28125 203.601562 L 154.582031 203.855469 L 154.191406 204.316406 Z M 153.890625 204.066406 " fill-opacity="1" fill-rule="nonzero"/><path fill="#ffffff" d="M 154.671875 203.140625 L 155.0625 202.675781 L 155.363281 202.929688 L 154.972656 203.390625 Z M 154.671875 203.140625 " fill-opacity="1" fill-rule="nonzero"/><path fill="#ffffff" d="M 168.398438 209.789062 L 169.789062 205.996094 L 170.15625 206.132812 L 168.765625 209.921875 Z M 168.398438 209.789062 " fill-opacity="1" fill-rule="nonzero"/><path fill="#ffffff" d="M 167.566406 212.0625 L 167.773438 211.492188 L 168.140625 211.628906 L 167.933594 212.195312 Z M 167.566406 212.0625 " fill-opacity="1" fill-rule="nonzero"/><path fill="#ffffff" d="M 170.480469 204.101562 L 170.691406 203.535156 L 171.058594 203.667969 L 170.847656 204.238281 Z M 170.480469 204.101562 " fill-opacity="1" fill-rule="nonzero"/><path fill="#ffffff" d="M 170.898438 202.964844 L 172.289062 199.175781 L 172.65625 199.308594 L 171.265625 203.097656 Z M 170.898438 202.964844 " fill-opacity="1" fill-rule="nonzero"/><path fill="#ffffff" d="M 170.0625 205.238281 L 170.273438 204.671875 L 170.640625 204.804688 L 170.433594 205.375 Z M 170.0625 205.238281 " fill-opacity="1" fill-rule="nonzero"/><path fill="#ffffff" d="M 150.761719 207.773438 L 153.371094 204.683594 L 153.671875 204.9375 L 151.0625 208.023438 Z M 150.761719 207.773438 " fill-opacity="1" fill-rule="nonzero"/><path fill="#ffffff" d="M 167.980469 210.925781 L 168.191406 210.355469 L 168.558594 210.492188 L 168.351562 211.058594 Z M 167.980469 210.925781 " fill-opacity="1" fill-rule="nonzero"/><path fill="#ffffff" d="M 149.199219 209.625 L 149.589844 209.160156 L 149.890625 209.414062 L 149.5 209.878906 Z M 149.199219 209.625 " fill-opacity="1" fill-rule="nonzero"/><path fill="#ffffff" d="M 134.164062 197.414062 L 136.769531 195.917969 L 136.964844 196.257812 L 134.359375 197.75 Z M 134.164062 197.414062 " fill-opacity="1" fill-rule="nonzero"/><path fill="#ffffff" d="M 172.5625 198.414062 L 172.773438 197.847656 L 173.140625 197.980469 L 172.933594 198.550781 Z M 172.5625 198.414062 " fill-opacity="1" fill-rule="nonzero"/><path fill="#ffffff" d="M 138.523438 194.910156 L 139.050781 194.609375 L 139.246094 194.949219 L 138.71875 195.25 Z M 138.523438 194.910156 " fill-opacity="1" fill-rule="nonzero"/><path fill="#ffffff" d="M 144.839844 191.289062 L 145.367188 190.984375 L 145.5625 191.324219 L 145.035156 191.625 Z M 144.839844 191.289062 " fill-opacity="1" fill-rule="nonzero"/><path fill="#ffffff" d="M 139.574219 194.304688 L 143.085938 192.292969 L 143.28125 192.632812 L 139.769531 194.644531 Z M 139.574219 194.304688 " fill-opacity="1" fill-rule="nonzero"/><path fill="#ffffff" d="M 143.785156 191.890625 L 144.3125 191.589844 L 144.507812 191.929688 L 143.980469 192.230469 Z M 143.785156 191.890625 " fill-opacity="1" fill-rule="nonzero"/><path fill="#ffffff" d="M 149.980469 208.699219 L 150.371094 208.234375 L 150.671875 208.488281 L 150.28125 208.949219 Z M 149.980469 208.699219 " fill-opacity="1" fill-rule="nonzero"/><path fill="#ffffff" d="M 155.453125 202.214844 L 158.0625 199.125 L 158.363281 199.375 L 155.753906 202.464844 Z M 155.453125 202.214844 " fill-opacity="1" fill-rule="nonzero"/><path fill="#ffffff" d="M 146.742188 212.535156 L 148.679688 210.242188 L 148.980469 210.496094 L 147.042969 212.785156 Z M 146.742188 212.535156 " fill-opacity="1" fill-rule="nonzero"/><path fill="#ffffff" d="M 158.582031 198.507812 L 158.972656 198.042969 L 159.273438 198.292969 L 158.882812 198.757812 Z M 158.582031 198.507812 " fill-opacity="1" fill-rule="nonzero"/><g clip-path="url(#db08dc5bdf)"><g clip-path="url(#2da351160d)"><path fill="url(#2aaf3e8036)" d="M 94.109375 113.691406 L 94.109375 218.433594 L 286.230469 218.433594 L 286.230469 113.691406 Z M 94.109375 113.691406 " fill-rule="nonzero"/></g></g><g clip-path="url(#694b55a5bc)"><g clip-path="url(#bcb2e64089)"><path fill="url(#ccf6874280)" d="M 88.980469 167.027344 L 88.980469 170.765625 L 92.738281 170.765625 L 92.738281 167.027344 Z M 88.980469 167.027344 " fill-rule="nonzero"/></g></g><g fill="#d5a372" fill-opacity="1"><g transform="translate(89.651467, 245.406766)"><g><path d="M 10.4375 -12.953125 C 10.488281 -12.742188 10.515625 -12.53125 10.515625 -12.3125 C 10.515625 -12.0625 10.460938 -11.878906 10.359375 -11.765625 C 10.253906 -11.648438 10.082031 -11.59375 9.84375 -11.59375 L 6.1875 -11.59375 L 6.1875 0.015625 C 6.039062 0.0546875 5.835938 0.078125 5.578125 0.078125 C 5.316406 0.078125 5.125 0.0546875 5 0.015625 C 4.875 -0.015625 4.789062 -0.078125 4.75 -0.171875 C 4.707031 -0.265625 4.6875 -0.410156 4.6875 -0.609375 L 4.6875 -11.59375 L 0.4375 -11.59375 C 0.382812 -11.8125 0.359375 -12.023438 0.359375 -12.234375 C 0.359375 -12.492188 0.410156 -12.675781 0.515625 -12.78125 C 0.617188 -12.894531 0.789062 -12.953125 1.03125 -12.953125 Z M 10.4375 -12.953125 "/></g></g></g><g fill="#d5a372" fill-opacity="1"><g transform="translate(104.602401, 245.406766)"><g><path d="M 13.5 -6.484375 C 13.5 -5.191406 13.238281 -4.03125 12.71875 -3 C 12.195312 -1.976562 11.453125 -1.175781 10.484375 -0.59375 C 9.523438 -0.0078125 8.429688 0.28125 7.203125 0.28125 C 5.941406 0.28125 4.832031 -0.00390625 3.875 -0.578125 C 2.925781 -1.160156 2.191406 -1.960938 1.671875 -2.984375 C 1.160156 -4.015625 0.90625 -5.179688 0.90625 -6.484375 C 0.90625 -7.765625 1.164062 -8.914062 1.6875 -9.9375 C 2.207031 -10.96875 2.945312 -11.773438 3.90625 -12.359375 C 4.863281 -12.953125 5.960938 -13.25 7.203125 -13.25 C 8.460938 -13.25 9.566406 -12.957031 10.515625 -12.375 C 11.472656 -11.789062 12.207031 -10.984375 12.71875 -9.953125 C 13.238281 -8.929688 13.5 -7.773438 13.5 -6.484375 Z M 11.890625 -6.484375 C 11.890625 -7.535156 11.695312 -8.46875 11.3125 -9.28125 C 10.9375 -10.101562 10.394531 -10.742188 9.6875 -11.203125 C 8.976562 -11.660156 8.148438 -11.890625 7.203125 -11.890625 C 6.253906 -11.890625 5.425781 -11.660156 4.71875 -11.203125 C 4.007812 -10.753906 3.460938 -10.117188 3.078125 -9.296875 C 2.691406 -8.472656 2.5 -7.535156 2.5 -6.484375 C 2.5 -5.421875 2.691406 -4.484375 3.078125 -3.671875 C 3.460938 -2.859375 4.007812 -2.21875 4.71875 -1.75 C 5.425781 -1.289062 6.253906 -1.0625 7.203125 -1.0625 C 8.148438 -1.0625 8.976562 -1.289062 9.6875 -1.75 C 10.394531 -2.207031 10.9375 -2.84375 11.3125 -3.65625 C 11.695312 -4.476562 11.890625 -5.421875 11.890625 -6.484375 Z M 11.890625 -6.484375 "/></g></g></g><g fill="#d5a372" fill-opacity="1"><g transform="translate(123.079043, 245.406766)"><g><path d="M 10.4375 -12.953125 C 10.488281 -12.742188 10.515625 -12.53125 10.515625 -12.3125 C 10.515625 -12.0625 10.460938 -11.878906 10.359375 -11.765625 C 10.253906 -11.648438 10.082031 -11.59375 9.84375 -11.59375 L 6.1875 -11.59375 L 6.1875 0.015625 C 6.039062 0.0546875 5.835938 0.078125 5.578125 0.078125 C 5.316406 0.078125 5.125 0.0546875 5 0.015625 C 4.875 -0.015625 4.789062 -0.078125 4.75 -0.171875 C 4.707031 -0.265625 4.6875 -0.410156 4.6875 -0.609375 L 4.6875 -11.59375 L 0.4375 -11.59375 C 0.382812 -11.8125 0.359375 -12.023438 0.359375 -12.234375 C 0.359375 -12.492188 0.410156 -12.675781 0.515625 -12.78125 C 0.617188 -12.894531 0.789062 -12.953125 1.03125 -12.953125 Z M 10.4375 -12.953125 "/></g></g></g><g fill="#d5a372" fill-opacity="1"><g transform="translate(138.029978, 245.406766)"><g><path d="M 12.578125 0 C 12.472656 0.0195312 12.347656 0.03125 12.203125 0.03125 C 12.054688 0.0390625 11.929688 0.046875 11.828125 0.046875 C 11.460938 0.046875 11.195312 0.00390625 11.03125 -0.078125 C 10.863281 -0.171875 10.722656 -0.351562 10.609375 -0.625 L 9.3125 -3.703125 L 2.8125 -3.703125 C 2.300781 -2.441406 1.910156 -1.207031 1.640625 0 C 1.460938 0.03125 1.269531 0.046875 1.0625 0.046875 C 0.78125 0.046875 0.578125 0.00390625 0.453125 -0.078125 C 0.328125 -0.160156 0.265625 -0.289062 0.265625 -0.46875 C 0.265625 -0.632812 0.300781 -0.882812 0.375 -1.21875 C 0.457031 -1.5625 0.5625 -1.90625 0.6875 -2.25 C 1.125 -3.570312 1.796875 -5.132812 2.703125 -6.9375 C 3.609375 -8.738281 4.546875 -10.457031 5.515625 -12.09375 L 5.09375 -13.1875 C 5.257812 -13.226562 5.460938 -13.25 5.703125 -13.25 C 6.003906 -13.25 6.238281 -13.210938 6.40625 -13.140625 C 6.582031 -13.066406 6.738281 -12.9375 6.875 -12.75 C 7.007812 -12.570312 7.160156 -12.296875 7.328125 -11.921875 Z M 8.75 -5 L 6.28125 -10.859375 C 5.144531 -8.890625 4.160156 -6.9375 3.328125 -5 Z M 8.75 -5 "/></g></g></g><g fill="#d5a372" fill-opacity="1"><g transform="translate(154.959617, 245.406766)"><g><path d="M 9.734375 -1.40625 C 9.785156 -1.1875 9.8125 -0.960938 9.8125 -0.734375 C 9.8125 -0.484375 9.757812 -0.296875 9.65625 -0.171875 C 9.550781 -0.0546875 9.378906 0 9.140625 0 L 2.53125 0 C 2.21875 0 1.988281 -0.03125 1.84375 -0.09375 C 1.695312 -0.15625 1.59375 -0.253906 1.53125 -0.390625 C 1.46875 -0.535156 1.4375 -0.753906 1.4375 -1.046875 L 1.4375 -13.015625 C 1.582031 -13.046875 1.785156 -13.0625 2.046875 -13.0625 C 2.316406 -13.0625 2.515625 -13.039062 2.640625 -13 C 2.765625 -12.96875 2.847656 -12.90625 2.890625 -12.8125 C 2.929688 -12.726562 2.953125 -12.585938 2.953125 -12.390625 L 2.953125 -1.40625 Z M 9.734375 -1.40625 "/></g></g></g><g fill="#d5a372" fill-opacity="1"><g transform="translate(169.209004, 245.406766)"><g><path d="M 9.734375 -1.40625 C 9.785156 -1.1875 9.8125 -0.960938 9.8125 -0.734375 C 9.8125 -0.484375 9.757812 -0.296875 9.65625 -0.171875 C 9.550781 -0.0546875 9.378906 0 9.140625 0 L 2.53125 0 C 2.21875 0 1.988281 -0.03125 1.84375 -0.09375 C 1.695312 -0.15625 1.59375 -0.253906 1.53125 -0.390625 C 1.46875 -0.535156 1.4375 -0.753906 1.4375 -1.046875 L 1.4375 -13.015625 C 1.582031 -13.046875 1.785156 -13.0625 2.046875 -13.0625 C 2.316406 -13.0625 2.515625 -13.039062 2.640625 -13 C 2.765625 -12.96875 2.847656 -12.90625 2.890625 -12.8125 C 2.929688 -12.726562 2.953125 -12.585938 2.953125 -12.390625 L 2.953125 -1.40625 Z M 9.734375 -1.40625 "/></g></g></g><g fill="#d5a372" fill-opacity="1"><g transform="translate(183.458391, 245.406766)"><g><path d="M 9.90625 -13.03125 C 10.332031 -13 10.640625 -12.929688 10.828125 -12.828125 C 11.015625 -12.734375 11.109375 -12.578125 11.109375 -12.359375 C 11.109375 -12.117188 10.972656 -11.734375 10.703125 -11.203125 C 10.441406 -10.671875 10.078125 -10.066406 9.609375 -9.390625 C 8.640625 -8.015625 7.554688 -6.726562 6.359375 -5.53125 L 6.359375 0.015625 C 6.210938 0.0546875 6.003906 0.078125 5.734375 0.078125 C 5.472656 0.078125 5.28125 0.0546875 5.15625 0.015625 C 5.03125 -0.015625 4.945312 -0.078125 4.90625 -0.171875 C 4.863281 -0.265625 4.84375 -0.410156 4.84375 -0.609375 L 4.84375 -5.46875 L 0 -12.78125 C 0.09375 -12.851562 0.234375 -12.910156 0.421875 -12.953125 C 0.609375 -13.003906 0.789062 -13.03125 0.96875 -13.03125 C 1.164062 -13.03125 1.316406 -13.007812 1.421875 -12.96875 C 1.523438 -12.925781 1.617188 -12.859375 1.703125 -12.765625 C 1.796875 -12.671875 1.910156 -12.515625 2.046875 -12.296875 L 5.765625 -6.65625 C 6.554688 -7.457031 7.3125 -8.40625 8.03125 -9.5 C 8.757812 -10.601562 9.382812 -11.78125 9.90625 -13.03125 Z M 9.90625 -13.03125 "/></g></g></g><g fill="#d5a372" fill-opacity="1"><g transform="translate(198.96696, 245.406766)"><g/></g></g><g fill="#d5a372" fill-opacity="1"><g transform="translate(207.550028, 245.406766)"><g><path d="M 10.4375 -12.953125 C 10.488281 -12.742188 10.515625 -12.53125 10.515625 -12.3125 C 10.515625 -12.0625 10.460938 -11.878906 10.359375 -11.765625 C 10.253906 -11.648438 10.082031 -11.59375 9.84375 -11.59375 L 6.1875 -11.59375 L 6.1875 0.015625 C 6.039062 0.0546875 5.835938 0.078125 5.578125 0.078125 C 5.316406 0.078125 5.125 0.0546875 5 0.015625 C 4.875 -0.015625 4.789062 -0.078125 4.75 -0.171875 C 4.707031 -0.265625 4.6875 -0.410156 4.6875 -0.609375 L 4.6875 -11.59375 L 0.4375 -11.59375 C 0.382812 -11.8125 0.359375 -12.023438 0.359375 -12.234375 C 0.359375 -12.492188 0.410156 -12.675781 0.515625 -12.78125 C 0.617188 -12.894531 0.789062 -12.953125 1.03125 -12.953125 Z M 10.4375 -12.953125 "/></g></g></g><g fill="#d5a372" fill-opacity="1"><g transform="translate(222.500966, 245.406766)"><g><path d="M 12.578125 0 C 12.472656 0.0195312 12.347656 0.03125 12.203125 0.03125 C 12.054688 0.0390625 11.929688 0.046875 11.828125 0.046875 C 11.460938 0.046875 11.195312 0.00390625 11.03125 -0.078125 C 10.863281 -0.171875 10.722656 -0.351562 10.609375 -0.625 L 9.3125 -3.703125 L 2.8125 -3.703125 C 2.300781 -2.441406 1.910156 -1.207031 1.640625 0 C 1.460938 0.03125 1.269531 0.046875 1.0625 0.046875 C 0.78125 0.046875 0.578125 0.00390625 0.453125 -0.078125 C 0.328125 -0.160156 0.265625 -0.289062 0.265625 -0.46875 C 0.265625 -0.632812 0.300781 -0.882812 0.375 -1.21875 C 0.457031 -1.5625 0.5625 -1.90625 0.6875 -2.25 C 1.125 -3.570312 1.796875 -5.132812 2.703125 -6.9375 C 3.609375 -8.738281 4.546875 -10.457031 5.515625 -12.09375 L 5.09375 -13.1875 C 5.257812 -13.226562 5.460938 -13.25 5.703125 -13.25 C 6.003906 -13.25 6.238281 -13.210938 6.40625 -13.140625 C 6.582031 -13.066406 6.738281 -12.9375 6.875 -12.75 C 7.007812 -12.570312 7.160156 -12.296875 7.328125 -11.921875 Z M 8.75 -5 L 6.28125 -10.859375 C 5.144531 -8.890625 4.160156 -6.9375 3.328125 -5 Z M 8.75 -5 "/></g></g></g><g fill="#d5a372" fill-opacity="1"><g transform="translate(239.430611, 245.406766)"><g><path d="M 11.765625 -0.140625 C 11.429688 0.0234375 11.070312 0.109375 10.6875 0.109375 C 10.457031 0.109375 10.269531 0.0507812 10.125 -0.0625 C 9.988281 -0.175781 9.835938 -0.382812 9.671875 -0.6875 L 7.078125 -5.171875 C 6.691406 -5.128906 6.296875 -5.109375 5.890625 -5.109375 L 3.46875 -5.109375 L 3.46875 0.015625 C 3.332031 0.0546875 3.128906 0.078125 2.859375 0.078125 C 2.597656 0.078125 2.40625 0.0546875 2.28125 0.015625 C 2.15625 -0.015625 2.070312 -0.078125 2.03125 -0.171875 C 1.988281 -0.265625 1.96875 -0.410156 1.96875 -0.609375 L 1.96875 -11.59375 L 0.25 -11.59375 C 0.226562 -11.675781 0.210938 -11.773438 0.203125 -11.890625 C 0.191406 -12.015625 0.1875 -12.144531 0.1875 -12.28125 C 0.1875 -12.539062 0.238281 -12.71875 0.34375 -12.8125 C 0.457031 -12.90625 0.664062 -12.953125 0.96875 -12.953125 L 5.890625 -12.953125 C 7.628906 -12.953125 8.925781 -12.628906 9.78125 -11.984375 C 10.632812 -11.335938 11.0625 -10.347656 11.0625 -9.015625 C 11.0625 -8.085938 10.851562 -7.332031 10.4375 -6.75 C 10.019531 -6.175781 9.394531 -5.742188 8.5625 -5.453125 Z M 5.84375 -6.515625 C 6.664062 -6.515625 7.332031 -6.582031 7.84375 -6.71875 C 8.363281 -6.863281 8.765625 -7.113281 9.046875 -7.46875 C 9.328125 -7.832031 9.46875 -8.34375 9.46875 -9 C 9.46875 -9.925781 9.171875 -10.585938 8.578125 -10.984375 C 7.984375 -11.390625 7.070312 -11.59375 5.84375 -11.59375 L 3.46875 -11.59375 L 3.46875 -6.515625 Z M 5.84375 -6.515625 "/></g></g></g><g fill="#d5a372" fill-opacity="1"><g transform="translate(256.000499, 245.406766)"><g><path d="M 13.5 -6.484375 C 13.5 -5.191406 13.238281 -4.03125 12.71875 -3 C 12.195312 -1.976562 11.453125 -1.175781 10.484375 -0.59375 C 9.523438 -0.0078125 8.429688 0.28125 7.203125 0.28125 C 5.941406 0.28125 4.832031 -0.00390625 3.875 -0.578125 C 2.925781 -1.160156 2.191406 -1.960938 1.671875 -2.984375 C 1.160156 -4.015625 0.90625 -5.179688 0.90625 -6.484375 C 0.90625 -7.765625 1.164062 -8.914062 1.6875 -9.9375 C 2.207031 -10.96875 2.945312 -11.773438 3.90625 -12.359375 C 4.863281 -12.953125 5.960938 -13.25 7.203125 -13.25 C 8.460938 -13.25 9.566406 -12.957031 10.515625 -12.375 C 11.472656 -11.789062 12.207031 -10.984375 12.71875 -9.953125 C 13.238281 -8.929688 13.5 -7.773438 13.5 -6.484375 Z M 11.890625 -6.484375 C 11.890625 -7.535156 11.695312 -8.46875 11.3125 -9.28125 C 10.9375 -10.101562 10.394531 -10.742188 9.6875 -11.203125 C 8.976562 -11.660156 8.148438 -11.890625 7.203125 -11.890625 C 6.253906 -11.890625 5.425781 -11.660156 4.71875 -11.203125 C 4.007812 -10.753906 3.460938 -10.117188 3.078125 -9.296875 C 2.691406 -8.472656 2.5 -7.535156 2.5 -6.484375 C 2.5 -5.421875 2.691406 -4.484375 3.078125 -3.671875 C 3.460938 -2.859375 4.007812 -2.21875 4.71875 -1.75 C 5.425781 -1.289062 6.253906 -1.0625 7.203125 -1.0625 C 8.148438 -1.0625 8.976562 -1.289062 9.6875 -1.75 C 10.394531 -2.207031 10.9375 -2.84375 11.3125 -3.65625 C 11.695312 -4.476562 11.890625 -5.421875 11.890625 -6.484375 Z M 11.890625 -6.484375 "/></g></g></g><g fill="#d5a372" fill-opacity="1"><g transform="translate(274.477144, 245.406766)"><g><path d="M 10.4375 -12.953125 C 10.488281 -12.742188 10.515625 -12.53125 10.515625 -12.3125 C 10.515625 -12.0625 10.460938 -11.878906 10.359375 -11.765625 C 10.253906 -11.648438 10.082031 -11.59375 9.84375 -11.59375 L 6.1875 -11.59375 L 6.1875 0.015625 C 6.039062 0.0546875 5.835938 0.078125 5.578125 0.078125 C 5.316406 0.078125 5.125 0.0546875 5 0.015625 C 4.875 -0.015625 4.789062 -0.078125 4.75 -0.171875 C 4.707031 -0.265625 4.6875 -0.410156 4.6875 -0.609375 L 4.6875 -11.59375 L 0.4375 -11.59375 C 0.382812 -11.8125 0.359375 -12.023438 0.359375 -12.234375 C 0.359375 -12.492188 0.410156 -12.675781 0.515625 -12.78125 C 0.617188 -12.894531 0.789062 -12.953125 1.03125 -12.953125 Z M 10.4375 -12.953125 "/></g></g></g></svg>