<?xml version="1.0" encoding="UTF-8" standalone="no"?>
<!-- Created with Inkscape (http://www.inkscape.org/) -->

<svg
   version="1.1"
   id="svg1"
   width="256"
   height="256"
   viewBox="0 0 256 256"
   sodipodi:docname="connection.svg"
   inkscape:export-filename="connection.svg"
   inkscape:export-xdpi="96"
   inkscape:export-ydpi="96"
   inkscape:version="1.3 (0e150ed6c4, 2023-07-21)"
   xmlns:inkscape="http://www.inkscape.org/namespaces/inkscape"
   xmlns:sodipodi="http://sodipodi.sourceforge.net/DTD/sodipodi-0.dtd"
   xmlns="http://www.w3.org/2000/svg"
   xmlns:svg="http://www.w3.org/2000/svg">
  <defs
     id="defs1" />
  <sodipodi:namedview
     id="namedview1"
     pagecolor="#ffffff"
     bordercolor="#000000"
     borderopacity="0.25"
     inkscape:showpageshadow="2"
     inkscape:pageopacity="0.0"
     inkscape:pagecheckerboard="0"
     inkscape:deskcolor="#d1d1d1"
     showgrid="false"
     inkscape:zoom="1.9570312"
     inkscape:cx="127.74451"
     inkscape:cy="128"
     inkscape:window-width="1366"
     inkscape:window-height="697"
     inkscape:window-x="-8"
     inkscape:window-y="-8"
     inkscape:window-maximized="1"
     inkscape:current-layer="g1" />
  <g
     inkscape:groupmode="layer"
     inkscape:label="Image"
     id="g1">
    <path
       style="fill:#1E2019"
       d="m 71.912175,222.84959 c -0.991697,-0.56874 -1.418725,-1.28173 -1.429823,-2.38733 -0.01605,-1.5992 0.264593,-1.9877 2.418564,-3.34805 11.610749,-7.33285 9.900459,-23.86422 -2.976293,-28.76833 -2.534862,-0.9654 -6.932636,-1.20245 -9.604344,-0.5177 -7.517612,1.92674 -12.579964,8.30234 -12.564305,15.82366 0.0043,2.05409 0.527696,4.28325 1.546569,6.58658 0.923905,2.08864 0.872135,2.9444 -0.245752,4.06229 -0.992003,0.992 -2.396898,1.22962 -3.567128,0.60333 -0.859444,-0.45996 -2.443021,-3.71727 -3.066673,-6.30795 -0.678963,-2.82043 -0.665688,-7.63617 0.02845,-10.32 1.006709,-3.89237 2.927408,-7.24718 5.771,-10.08 2.867115,-2.85625 5.10853,-4.30726 8.446955,-5.46825 3.501326,-1.21764 6.912252,-1.59231 10.340659,-1.13584 l 2.881264,0.38361 11.09043,-10.85916 c 6.099736,-5.97254 11.507217,-11.29851 12.016625,-11.83549 l 0.926196,-0.97633 -1.665531,-2.49427 c -4.6604,-6.97933 -6.860123,-14.32633 -6.830694,-22.81427 0.03068,-8.84893 2.757492,-16.99252 8.035171,-23.99696 l 2.047164,-2.71695 -5.742364,-5.60305 C 86.610015,97.597455 79.166284,90.332315 73.226691,84.534375 l -10.79926,-10.54171 -1.017628,0.41642 c -3.276377,1.3407 -5.225703,1.71188 -9.017627,1.7171 -3.160234,0.004 -4.293893,-0.13238 -6.404045,-0.77239 -12.487827,-3.78755 -19.196656,-17.011871 -14.702139,-28.980589 1.527313,-4.067175 4.906974,-8.272501 8.595796,-10.695784 2.452025,-1.6108 3.920658,-1.684428 5.121942,-0.256783 1.392312,1.654669 0.957094,3.585593 -1.064228,4.72164 -1.934831,1.087436 -4.217477,3.278864 -5.529014,5.308064 -3.403597,5.266026 -3.368127,12.253442 0.08848,17.429746 5.87897,8.803836 18.363343,9.999506 25.733207,2.464558 4.858842,-4.967677 5.914631,-11.644157 2.899525,-18.335684 -0.974803,-2.163415 -0.941526,-3.170875 0.140475,-4.252876 0.929334,-0.929334 2.144512,-1.124071 3.369406,-0.53996 2.119605,1.010769 4.04532,6.675571 4.04532,11.89996 0,5.8686 -1.926019,10.775979 -5.941445,15.138439 l -1.268784,1.378439 1.577751,1.53583 c 0.867764,0.8447 8.089858,7.8924 16.049098,15.66156 7.95924,7.76915 14.587114,14.125735 14.728614,14.125735 0.14149,0 1.036355,-0.5854 1.988575,-1.30088 13.48246,-10.130535 32.62497,-10.518665 46.71945,-0.947285 1.04329,0.708495 2.01434,1.288165 2.15788,1.288165 0.14354,0 2.74388,-2.485935 5.77852,-5.524305 l 5.51754,-5.5243 -0.83815,-1.23344 c -1.22954,-1.80943 -2.62578,-5.04052 -3.16332,-7.32036 -0.61129,-2.59261 -0.60251,-7.83769 0.0175,-10.4776 1.04338,-4.442226 3.93606,-9.060751 7.54697,-12.049659 2.10354,-1.741193 6.40974,-3.932736 8.19909,-4.172737 1.16928,-0.156833 1.43972,-0.06305 2.30049,0.79772 0.69954,0.699536 0.97545,1.279068 0.97545,2.048861 0,1.538921 -0.68333,2.310955 -2.78898,3.151011 -7.14479,2.850438 -11.45768,9.517974 -10.85726,16.784804 0.35954,4.35148 2.06039,7.80505 5.3387,10.84019 7.94695,7.35746 20.86748,5.06723 25.67972,-4.55187 1.86871,-3.73532 2.13552,-6.30998 1.3207,-12.74444 -0.18957,-1.497029 -0.13057,-1.735279 0.61416,-2.480004 0.61668,-0.616643 1.15319,-0.823874 2.133,-0.823874 2.67615,0 3.70695,2.534658 3.64388,8.959998 -0.0298,3.0349 -0.18262,4.12877 -0.87181,6.24 -4.63013,14.18363 -20.82992,20.080695 -33.59192,12.22816 l -1.5609,-0.96043 -5.40962,5.4026 c -2.9753,2.971445 -5.40963,5.516535 -5.40963,5.655785 0,0.13924 0.75955,1.14883 1.68788,2.24353 4.41442,5.2055 7.4288,11.7374 8.70792,18.8693 0.81992,4.57156 0.55622,12.35424 -0.56206,16.58829 -1.02736,3.88981 -2.48312,7.54939 -4.07261,10.23797 -0.68453,1.15785 -1.28881,2.25613 -1.34286,2.44061 -0.054,0.18449 6.5733,5.87601 14.72744,12.64782 l 14.82572,12.3124 2.77428,-0.9664 c 3.84397,-1.33902 8.63803,-1.5602 12.55422,-0.5792 6.97226,1.74653 12.47569,6.2665 15.30347,12.56874 1.35877,3.02827 1.7894,5.18326 1.78066,8.91083 -0.009,3.85823 -0.73666,6.73394 -2.60937,10.31291 -2.26649,4.33154 -8.04368,9.35254 -10.76108,9.35254 -1.63992,0 -2.77361,-1.23397 -2.77361,-3.01896 0,-1.34124 -0.15224,-1.17823 3.82318,-4.09351 6.05117,-4.43748 8.11557,-12.8905 4.77887,-19.56784 -4.97307,-9.95199 -18.32218,-12.2013 -26.39663,-4.4478 -5.05612,4.85513 -6.27922,11.60731 -3.33585,18.41574 0.79661,1.84268 0.71291,2.90444 -0.30957,3.92692 -1.59045,1.59045 -3.78777,1.03329 -4.94702,-1.25438 -3.02446,-5.96849 -3.0013,-13.3127 0.0611,-19.37755 1.02102,-2.02204 2.25989,-3.81435 3.74302,-5.41513 0.63547,-0.68589 1.11659,-1.28433 1.06914,-1.32988 -0.0475,-0.0456 -6.41059,-5.34686 -14.14032,-11.78071 l -14.05405,-11.6979 -2.17485,2.05165 c -5.27674,4.97782 -11.40665,8.26674 -18.83704,10.10678 -2.63105,0.65155 -3.83637,0.75389 -8.96,0.76077 -5.48773,0.007 -6.17703,-0.0587 -9.44,-0.9047 -6.09041,-1.5791 -11.40449,-4.20547 -15.92444,-7.87029 l -2.315565,-1.87748 -4,3.9047 c -2.2,2.14759 -7.208284,7.02221 -11.12952,10.83249 l -7.129519,6.92778 1.48982,1.02503 c 8.108116,5.57853 11.414106,16.22309 7.931295,25.53703 -1.679902,4.49249 -5.145132,8.68117 -9.101606,11.00179 -2.114626,1.24031 -3.198686,1.44537 -4.30047,0.8135 z M 129.7199,167.42393 c 4.89001,-0.3625 11.70624,-2.95184 16.1865,-6.14888 3.08796,-2.20353 6.49288,-5.76757 8.67613,-9.08158 9.16969,-13.91896 7.13326,-32.25487 -4.85855,-43.74608 -4.56996,-4.3792 -9.81659,-7.29732 -15.85426,-8.818005 -3.97635,-1.0015 -12.09873,-1.0015 -16.07508,0 -6.38219,1.607455 -11.50378,4.544035 -16.29962,9.345785 -3.214365,3.21832 -4.663625,5.19292 -6.506583,8.86514 -7.215593,14.37755 -3.342568,32.1767 9.182043,42.19762 3.88884,3.11146 8.39581,5.37291 13.1408,6.59361 2.5603,0.65867 7.44112,1.20052 9.3209,1.03477 0.528,-0.0466 1.91747,-0.15563 3.08772,-0.24238 z m -8.66366,-9.156 c -9.77862,-2.05502 -17.3592,-9.19795 -19.89971,-18.75083 -0.93046,-3.49875 -0.93431,-9.20931 -0.009,-12.68858 2.05603,-7.72716 8.2094,-14.59164 15.56812,-17.36726 6.1453,-2.31793 12.3289,-2.28358 18.47412,0.10262 5.66244,2.19873 10.71109,6.87095 13.35028,12.35488 2.10555,4.37512 2.67801,6.83414 2.65328,11.39733 -0.0618,11.39975 -7.09724,20.82286 -18.1616,24.32516 -2.5244,0.79907 -9.43493,1.16068 -11.97594,0.62668 z m 10.85594,-6.57741 c 6.37776,-2.01987 11.5809,-7.83884 12.99622,-14.53443 2.1376,-10.11249 -4.28461,-20.29794 -14.42345,-22.87519 -1.04898,-0.26665 -3.14272,-0.48481 -4.65277,-0.48481 -5.42092,0 -9.91902,1.87402 -13.76179,5.73351 -7.50106,7.5337 -7.67825,19.22698 -0.40813,26.93369 5.35912,5.68095 12.77383,7.59495 20.24992,5.22723 z m -18.58462,-16.42981 c -0.7897,-0.78971 -0.93538,-1.18998 -0.93538,-2.5701 0,-1.85644 0.94558,-4.93982 2.04847,-6.67971 1.15663,-1.82467 3.86738,-4.17507 5.87542,-5.09438 1.29081,-0.59095 2.54237,-0.87642 4.28466,-0.97728 2.3116,-0.13381 2.51138,-0.0923 3.28633,0.68264 1.47126,1.47126 0.88415,4.27934 -1.00405,4.80231 -0.31396,0.087 -1.23613,0.24823 -2.04927,0.35838 -1.88128,0.25484 -4.17411,1.7031 -5.23552,3.307 -0.47985,0.7251 -0.95994,2.08134 -1.14622,3.23803 -0.36795,2.28473 -0.75907,3.0434 -1.81763,3.52572 -1.2772,0.58193 -2.31895,0.39524 -3.30681,-0.59261 z m -52.744765,79.83117 c -1.774596,-0.57597 -4.557838,-2.47716 -5.567052,-3.80278 -4.76214,-6.25512 -2.817225,-14.91575 4.113863,-18.31886 1.736085,-0.85241 2.196586,-0.93406 5.262569,-0.9331 3.077338,9.6e-4 3.515533,0.0797 5.208819,0.93624 2.280273,1.15344 4.480364,3.45518 5.613563,5.87293 0.741568,1.58218 0.857618,2.24114 0.857618,4.86978 0,2.62864 -0.11605,3.2876 -0.857618,4.86978 -1.139002,2.43013 -3.343469,4.72898 -5.613563,5.85389 -1.544432,0.76533 -2.322979,0.93208 -4.728819,1.01286 -1.874645,0.0629 -3.371989,-0.063 -4.28938,-0.36074 z m 7.140881,-6.49689 c 3.341338,-2.34655 3.396678,-7.31812 0.107977,-9.70044 -4.90666,-3.55437 -11.443947,1.74132 -8.914664,7.22154 1.605723,3.47913 5.72956,4.63991 8.806687,2.4789 z m 128.348494,3.63241 c -2.32564,-0.73743 -3.88162,-1.73205 -5.52839,-3.53387 -2.19112,-2.39744 -3.06062,-4.67514 -3.06062,-8.01744 0,-3.62439 0.89942,-5.80642 3.44101,-8.348 2.56671,-2.56672 4.70385,-3.43711 8.508,-3.46504 2.40378,-0.0177 2.96181,0.0953 4.8,0.97163 7.0997,3.38463 9.21031,11.88171 4.53403,18.25352 -2.63252,3.58702 -8.45152,5.48445 -12.69403,4.1392 z m 5.49917,-5.97167 c 1.10356,-0.41695 2.56327,-1.76353 3.1694,-2.92375 0.53355,-1.0213 0.59267,-3.68146 0.11011,-4.95506 -0.76274,-2.01311 -3.18927,-3.62083 -5.4649,-3.62083 -6.28398,0 -8.27117,8.42562 -2.67378,11.33677 1.10763,0.57607 3.54897,0.6579 4.85917,0.16287 z M 176.68956,87.758535 c -3.41539,-0.92089 -6.74526,-3.90628 -8.00617,-7.17793 -0.5136,-1.33262 -0.70318,-2.51471 -0.70318,-4.38452 0,-3.64079 0.89232,-5.81636 3.42396,-8.348001 2.58942,-2.589426 4.72903,-3.462823 8.508,-3.47301 2.3965,-0.0065 2.97594,0.113217 4.87192,1.006249 5.25201,2.473753 8.00634,8.192892 6.65619,13.820972 -1.48958,6.20925 -8.45989,10.25242 -14.75072,8.55624 z m 5.36178,-5.98281 c 2.19515,-0.82938 3.71226,-3.12789 3.71226,-5.62431 0,-4.37853 -4.57318,-7.170848 -8.573,-5.23457 -5.55532,2.68929 -3.69774,11.1338 2.46074,11.18643 0.82454,0.007 1.90454,-0.14035 2.4,-0.32755 z M 48.552176,65.15629 c -6.122202,-2.046638 -9.490941,-8.522279 -7.653025,-14.711213 1.000178,-3.367963 3.21687,-5.909499 6.533025,-7.490403 1.838187,-0.876316 2.396218,-0.989273 4.8,-0.971625 3.804146,0.02793 5.941287,0.898318 8.508002,3.465035 2.541588,2.541587 3.441007,4.723609 3.441007,8.348003 0,3.329584 -0.870966,5.621602 -3.036659,7.991215 -3.240061,3.545144 -8.142183,4.85667 -12.59235,3.368988 z m 7.359614,-6.538213 c 3.465918,-2.643586 2.980766,-8.194484 -0.879531,-10.063222 -1.738773,-0.841726 -3.736368,-0.868111 -5.292831,-0.06991 -2.316108,1.18777 -3.267252,2.791188 -3.267252,5.507865 0,1.801302 0.488818,2.930613 1.811432,4.184928 1.306024,1.238582 2.251342,1.543609 4.470154,1.442392 1.581074,-0.07212 2.193674,-0.266504 3.158028,-1.002053 z"
       id="path1" />
  </g>
</svg>
