<?xml version="1.0" encoding="UTF-8" standalone="no"?>
<!-- Created with Inkscape (http://www.inkscape.org/) -->

<svg
   version="1.1"
   id="svg1"
   width="250"
   height="250"
   viewBox="0 0 250 250"
   sodipodi:docname="harmony.svg"
   inkscape:export-filename="harmony.svg"
   inkscape:export-xdpi="96"
   inkscape:export-ydpi="96"
   inkscape:version="1.3 (0e150ed6c4, 2023-07-21)"
   xmlns:inkscape="http://www.inkscape.org/namespaces/inkscape"
   xmlns:sodipodi="http://sodipodi.sourceforge.net/DTD/sodipodi-0.dtd"
   xmlns="http://www.w3.org/2000/svg"
   xmlns:svg="http://www.w3.org/2000/svg">
  <defs
     id="defs1" />
  <sodipodi:namedview
     id="namedview1"
     pagecolor="#ffffff"
     bordercolor="#000000"
     borderopacity="0.25"
     inkscape:showpageshadow="2"
     inkscape:pageopacity="0.0"
     inkscape:pagecheckerboard="0"
     inkscape:deskcolor="#d1d1d1"
     inkscape:export-bgcolor="#66666600"
     inkscape:zoom="1.1312533"
     inkscape:cx="25.193297"
     inkscape:cy="160.44152"
     inkscape:window-width="1366"
     inkscape:window-height="697"
     inkscape:window-x="-8"
     inkscape:window-y="-8"
     inkscape:window-maximized="1"
     inkscape:current-layer="g1" />
  <g
     inkscape:groupmode="layer"
     inkscape:label="Image"
     id="g1">
    <path
       style="fill:#1E2019;stroke-width:1.2203"
       d="m 162.55484,201.29772 c -13.80935,-1.01249 -23.52133,-4.15889 -29.44763,-9.54018 -2.56021,-2.32478 -6.65751,-7.98808 -7.47424,-10.33099 -0.24386,-0.69955 -0.59062,-1.27191 -0.77057,-1.27191 -0.17996,0 -0.52669,0.57236 -0.77057,1.27191 -0.81823,2.34718 -4.91613,8.00816 -7.47427,10.32523 -4.56713,4.13676 -11.93436,7.09635 -21.255147,8.53874 -5.978811,0.92522 -20.640092,1.23262 -31.108008,0.65228 -4.586275,-0.25429 -12.548702,-0.65717 -17.694281,-0.89531 -10.01499,-0.46347 -10.37251,-0.55485 -10.37251,-2.65085 0,-0.49881 0.886333,-2.34004 1.969629,-4.0916 1.083298,-1.75157 3.950491,-6.84553 6.371545,-11.31996 12.539618,-23.17482 17.299109,-30.36098 25.064057,-37.84314 6.234141,-6.00713 10.593432,-8.7469 16.202119,-10.18288 2.925457,-0.74899 8.64016,-0.9575 12.549288,-0.45788 l 2.565568,0.32791 -1.862671,-2.28683 c -3.687407,-4.52717 -6.565165,-11.65621 -7.006976,-17.35834 -0.299288,-3.86273 0.218934,-6.65006 2.519572,-13.55184 3.470412,-10.41108 7.392235,-18.041295 18.248845,-35.504684 3.44773,-5.545852 7.34147,-11.973013 8.65273,-14.282592 1.31131,-2.30958 2.80351,-4.479484 3.31606,-4.822021 1.24014,-0.828789 2.65414,-0.193272 3.58335,1.610509 1.14487,2.222437 4.03017,6.912228 10.95947,17.813601 12.78668,20.116397 16.26787,27.217031 18.94503,38.642687 1.32979,5.67535 1.32837,12.98025 -0.004,16.88074 -1.30817,3.83167 -2.84631,6.82673 -5.02236,9.77946 l -1.81119,2.45767 4.91974,0.008 c 10.06434,0.0141 16.38923,3.17968 25.68494,12.85484 6.58312,6.85182 10.83671,13.34555 21.12835,32.25546 3.50862,6.44675 7.27852,13.17118 8.37755,14.94319 2.0299,3.27288 2.31129,4.25295 1.60174,5.57877 -0.34038,0.636 -1.16068,0.77994 -5.79639,1.01703 -2.96997,0.1519 -9.33538,0.52847 -14.14538,0.83682 -11.99756,0.76913 -24.87623,1.02013 -30.64408,0.59723 z m -77.352035,-5.22533 4.06765,-0.25729 -2.643969,-1.40882 c -1.625828,-0.86631 -3.91143,-2.66764 -5.935372,-4.67779 -5.812732,-5.77314 -8.594719,-12.92672 -8.210224,-21.11173 0.325162,-6.92186 2.718564,-12.33488 7.652362,-17.30685 4.375442,-4.4093 9.346135,-6.54383 15.238686,-6.54383 10.418002,0 19.327752,7.52703 20.984032,17.72749 1.31784,8.11616 -3.26875,16.83278 -10.80636,20.53702 -2.59822,1.27685 -3.14979,1.39491 -6.508243,1.39307 -3.261019,-8.4e-4 -3.967722,-0.14316 -6.349441,-1.2699 -5.120246,-2.42229 -7.814474,-6.45192 -7.837782,-11.72254 -0.0212,-4.80004 1.278692,-7.14993 3.628932,-6.56004 1.548933,0.38874 1.906704,1.51881 1.343745,4.24439 -0.958093,4.63863 1.28074,8.53821 5.755176,10.02439 5.728503,1.9027 12.586453,-1.84982 15.093623,-8.25889 1.37296,-3.50971 1.31386,-8.45002 -0.13848,-11.57421 -1.51273,-3.25407 -4.73447,-6.53222 -8.0008,-8.14089 -2.49839,-1.23045 -2.947364,-1.31531 -6.957735,-1.31531 -4.047444,0 -4.443082,0.0767 -7.080177,1.37398 -4.953176,2.4365 -8.946774,7.40546 -10.625494,13.22056 -0.945753,3.2761 -0.678438,9.6751 0.544653,13.03787 2.766802,7.60711 9.054611,13.343 16.262531,14.83508 10.005242,2.07117 20.665212,-3.82202 25.313192,-13.99394 3.62782,-7.93938 3.03523,-17.97111 -1.52584,-25.82959 -1.88222,-3.24299 -7.24026,-8.68039 -10.34971,-10.50299 -8.888027,-5.20972 -20.616518,-5.35811 -28.040841,-0.35476 -7.788552,5.24884 -14.484659,13.16889 -22.420166,26.51821 -3.154111,5.30594 -14.554133,26.14186 -14.554133,26.60072 0,0.17552 5.811657,0.54288 12.914793,0.81633 7.103134,0.27348 13.555446,0.54653 14.338468,0.6068 2.702783,0.20802 10.791844,0.14997 14.846924,-0.10654 z m 110.131635,-0.53023 c 6.20825,-0.26969 11.28774,-0.62113 11.28774,-0.78099 0,-0.48691 -11.70717,-21.78057 -15.07521,-27.41963 -7.68416,-12.86551 -14.21257,-20.54557 -21.78009,-25.62223 -6.16105,-4.13316 -14.82484,-4.91449 -22.99356,-2.07369 -4.23158,1.47158 -7.08375,3.31395 -10.76066,6.9509 -3.66364,3.62384 -5.78184,7.03078 -7.41832,11.93179 -0.9084,2.72058 -1.04267,3.81925 -1.05213,8.60986 -0.01,4.93312 0.0987,5.7946 1.06648,8.47478 3.05127,8.45016 9.63259,14.68392 17.44742,16.52604 10.97315,2.5866 21.78883,-3.94463 25.38523,-15.32926 1.21993,-3.86174 1.37212,-9.1133 0.36361,-12.54678 -1.66563,-5.67069 -5.69374,-10.63542 -10.57858,-13.03831 -2.63711,-1.29721 -3.03273,-1.37398 -7.08019,-1.37398 -4.01038,0 -4.45933,0.0847 -6.95773,1.31531 -3.26633,1.60867 -6.48808,4.88682 -8.00079,8.14089 -1.45235,3.12419 -1.51147,8.0645 -0.13849,11.57421 2.50717,6.40907 9.36511,10.16159 15.09363,8.25889 4.47645,-1.48684 6.68965,-5.41091 5.71089,-10.12558 -0.53809,-2.59191 -0.14749,-3.75783 1.38802,-4.1432 2.35024,-0.58989 3.65015,1.76 3.62895,6.56004 -0.0232,5.27062 -2.71755,9.30025 -7.83779,11.72254 -2.38172,1.12674 -3.08843,1.2681 -6.34946,1.2699 -3.35844,0.003 -3.91002,-0.11618 -6.50823,-1.39307 -7.80847,-3.83734 -12.36063,-12.90609 -10.66125,-21.23925 1.58198,-7.75749 6.64392,-13.44093 14.24322,-15.99192 7.70357,-2.58602 15.83698,-0.53333 21.83439,5.51049 4.9338,4.97197 7.3272,10.38499 7.65235,17.30685 0.24965,5.31391 -0.57626,9.1243 -3.05735,14.10551 -1.49447,3.00046 -2.51035,4.3817 -5.15286,7.00622 -2.02393,2.01015 -4.30955,3.81148 -5.93538,4.67779 l -2.64398,1.40882 3.6609,0.2586 c 4.5011,0.31791 16.28075,0.11738 31.21922,-0.53154 z m -69.82027,-42.4584 c 0.14327,-0.57085 1.39781,-2.73898 2.78784,-4.81804 l 2.52736,-3.78013 -4.10209,0.0386 c -2.25615,0.0213 -5.05926,-0.10458 -6.22911,-0.27942 l -2.12704,-0.31795 2.22711,3.10411 c 1.22491,1.70727 2.6386,4.00111 3.14155,5.09746 1.03301,2.25173 1.39949,2.44905 1.77438,0.9554 z m 7.6869,-14.19507 c 7.75708,-2.03074 14.71986,-7.63424 18.4895,-14.87998 3.09777,-5.95427 3.56691,-10.50813 1.89486,-18.39226 -2.28913,-10.793812 -6.4953,-19.190509 -21.09728,-42.116111 -5.1213,-8.040671 -6.65334,-10.171124 -7.02014,-9.762362 -0.60165,0.670491 -12.3951,20.000419 -15.43702,25.301907 -2.19662,3.82825 -7.13389,13.415308 -7.13389,13.852358 0,0.11251 0.96098,-0.406189 2.13551,-1.152692 7.86876,-5.001164 18.28487,-5.589945 26.94817,-1.523272 12.30556,5.776392 18.38465,20.662752 13.0572,31.974352 -4.98018,10.57426 -17.85303,15.20399 -28.19948,10.14194 -9.13973,-4.47165 -13.50778,-16.20667 -9.19814,-24.71134 4.17933,-8.247486 14.40746,-10.545916 21.02164,-4.7239 2.20861,1.9441 2.59939,2.91482 1.71608,4.2629 -0.90868,1.38683 -2.67655,1.31951 -4.38293,-0.16689 -2.32643,-2.02651 -3.86535,-2.60308 -6.44913,-2.41618 -1.66149,0.12019 -2.82122,0.48856 -4.00555,1.2723 -6.0882,4.02897 -6.40413,12.78479 -0.68206,18.90216 5.97368,6.38637 15.65637,6.43462 22.34227,0.1113 4.07338,-3.85244 5.75309,-9.25475 4.6141,-14.83995 -1.60806,-7.88535 -7.08724,-14.094086 -14.61444,-16.560326 -4.16816,-1.36567 -10.69618,-1.370685 -14.64919,-0.01098 -5.53618,1.903882 -9.78368,5.70853 -12.10345,10.841516 -1.684764,3.72791 -2.207939,6.47594 -2.207038,11.5928 7.74e-4,4.37907 0.08081,4.84665 1.252729,7.32178 3.955079,8.35284 12.204479,14.56864 21.611879,16.28417 2.67292,0.48745 9.16709,0.16368 12.0958,-0.60302 z"
       id="path1" />
  </g>
</svg>
