<?xml version="1.0" encoding="UTF-8" standalone="no"?>
<!-- Created with Inkscape (http://www.inkscape.org/) -->

<svg
   version="1.1"
   id="svg1"
   width="250"
   height="250"
   viewBox="0 0 250 250"
   sodipodi:docname="mirror.svg"
   inkscape:export-filename="mirror.svg"
   inkscape:export-xdpi="96"
   inkscape:export-ydpi="96"
   inkscape:version="1.3 (0e150ed6c4, 2023-07-21)"
   xmlns:inkscape="http://www.inkscape.org/namespaces/inkscape"
   xmlns:sodipodi="http://sodipodi.sourceforge.net/DTD/sodipodi-0.dtd"
   xmlns="http://www.w3.org/2000/svg"
   xmlns:svg="http://www.w3.org/2000/svg">
  <defs
     id="defs1" />
  <sodipodi:namedview
     id="namedview1"
     pagecolor="#ffffff"
     bordercolor="#000000"
     borderopacity="0.25"
     inkscape:showpageshadow="2"
     inkscape:pageopacity="0.0"
     inkscape:pagecheckerboard="0"
     inkscape:deskcolor="#d1d1d1"
     inkscape:zoom="2.004"
     inkscape:cx="125.2495"
     inkscape:cy="125"
     inkscape:window-width="1366"
     inkscape:window-height="697"
     inkscape:window-x="-8"
     inkscape:window-y="-8"
     inkscape:window-maximized="1"
     inkscape:current-layer="g1" />
  <g
     inkscape:groupmode="layer"
     inkscape:label="Image"
     id="g1">
    <path
       style="fill:#393E41"
       d="m 85.460971,215.06748 c -1.710713,-1.14921 -2.214199,-2.9162 -1.694499,-5.94685 1.005916,-5.86605 5.56277,-10.51952 11.381755,-11.62307 0.97411,-0.18474 5.800633,-0.33588 10.725613,-0.33588 h 8.9545 v -6.32699 c 0,-7.24608 0.50653,-6.31994 -3.83333,-7.00896 -10.086,-1.60129 -21.238951,-6.13485 -30.166667,-12.26242 -11.780808,-8.0858 -20.909687,-18.7321 -27.354682,-31.90163 -5.69866,-11.64448 -8.45098,-22.97351 -8.88171,-36.55875 l -0.19739,-6.225419 1.02458,-1.024584 c 1.30512,-1.305114 2.94757,-1.389338 4.30728,-0.220874 0.91965,0.790298 0.93678,0.872339 1.02657,4.916657 0.13606,6.12833 -0.23477,5.61297 4.03876,5.61297 h 3.617378 l 0.240431,-3.41667 c 1.158187,-16.458524 7.280073,-30.438825 18.336236,-41.873712 3.954327,-4.08978 6.86421,-6.527803 11.175881,-9.363625 8.141151,-5.354504 17.322243,-8.814907 26.950613,-10.157833 4.82373,-0.672795 13.27504,-0.672795 18.09877,0 25.94394,3.618554 47.43616,22.556031 54.26184,47.811837 1.06959,3.957584 1.66158,7.481364 2.08601,12.416663 l 0.39415,4.58334 h 3.77098 3.77097 v -4.17738 c 0,-5.737506 0.66147,-7.155957 3.33706,-7.155957 0.71338,0 1.35838,0.310826 2.02191,0.974359 0.97169,0.971685 0.97436,0.985638 0.97322,5.083328 -0.004,13.67546 -2.99542,26.81458 -8.82878,38.77565 -4.37388,8.96846 -9.42307,16.10167 -16.16376,22.83523 -11.18411,11.17229 -25.11472,18.70153 -39.83965,21.53259 -2.56667,0.49348 -4.85417,0.94539 -5.08333,1.00424 -0.31397,0.0806 -0.41667,1.5884 -0.41667,6.11748 v 6.01046 h 8.77211 c 4.91866,0 9.64097,0.16008 10.75,0.36442 2.90543,0.53532 5.40406,1.85025 7.49923,3.94656 2.22969,2.2309 3.49024,4.70042 4.03151,7.89805 0.49595,2.92994 0.014,4.54907 -1.69732,5.70233 l -1.12079,0.7553 H 124.16168 86.593599 Z m 72.276359,-5.61479 c 0.90313,-0.90313 -1.2518,-3.90389 -3.66824,-5.10805 l -1.70498,-0.84963 H 124.16168 95.95924 l -1.721208,0.85771 c -2.481535,1.2366 -4.510368,4.26383 -3.5208,5.2534 0.412441,0.41244 66.605768,0.2609 67.020098,-0.15343 z m -30.57565,-18.12435 v -5.83333 h -3 -3 v 5.83333 5.83334 h 3 3 z m 2.83333,-12.17001 c 16.77516,-1.53776 31.45274,-8.39484 43.74525,-20.4369 8.25408,-8.08592 14.02349,-16.85107 18.31345,-27.82264 1.62519,-4.15643 3.9253,-12.7223 4.29286,-15.98711 l 0.23455,-2.08334 h -3.54305 c -1.94869,0 -3.54306,0.076 -3.54306,0.16886 0,0.0929 -0.22877,1.70538 -0.50838,3.58334 -1.21966,8.19178 -4.23331,16.62292 -8.42889,23.58114 -15.57541,25.83119 -46.7891,37.88353 -75.5386,29.16724 -20.151821,-6.10965 -36.29706,-21.8475 -43.002304,-41.91726 -1.265372,-3.78744 -2.184147,-7.83434 -3.027088,-13.33332 l -0.191613,-1.25 h -3.527954 -3.52795 l 0.23455,2.08334 c 0.37061,3.29191 2.67292,11.8441 4.32808,16.07717 2.912504,7.44873 7.309147,15.14081 12.006705,21.00616 5.119448,6.39212 13.411721,13.5882 20.415935,17.71705 12.436649,7.33118 27.278819,10.7286 41.267509,9.44627 z M 127.96,165.82188 c 18.34367,-1.32258 34.11337,-10.07759 44.71866,-24.82687 2.71376,-3.77416 6.46404,-11.25119 7.96188,-15.87381 3.90548,-12.05303 3.78054,-25.787906 -0.34503,-37.931795 C 175.30348,72.495042 164.32982,60.106234 150.1744,53.183908 136.39823,46.447046 120.01483,45.42232 105.22025,50.372177 90.58611,55.268357 78.49132,65.673214 71.367356,79.49501 c -4.817828,9.34747 -6.852677,18.573338 -6.432972,29.16667 0.294031,7.42134 1.435221,13.27351 3.765602,19.31047 8.195014,21.22959 28.052141,36.11034 50.478144,37.82784 1.91595,0.14674 3.63355,0.28683 3.81688,0.31131 0.18333,0.0245 2.41758,-0.10575 4.96499,-0.28942 z m -8.96499,-6.36211 c -15.93562,-1.67262 -30.121945,-10.15003 -38.864759,-23.22463 -5.799187,-8.67251 -8.586575,-17.37465 -8.889327,-27.75222 -0.178594,-6.12177 0.171539,-9.698776 1.448369,-14.796783 5.071344,-20.248377 21.773714,-35.78907 42.305717,-39.363286 27.34517,-4.760253 53.90638,12.481715 60.63905,39.363286 1.27683,5.098007 1.62696,8.675013 1.44837,14.796783 -0.17227,5.90499 -1.06222,10.89672 -2.82264,15.83215 -6.14221,17.22006 -21.27876,30.5325 -38.86022,34.17718 -5.92355,1.22796 -11.04529,1.53004 -16.40456,0.96752 z m 14.67437,-6.92608 c 20.42848,-4.43186 35.05472,-20.85243 37.14808,-41.70535 0.80166,-7.98563 -0.81272,-17.050182 -4.33371,-24.33333 -7.97936,-16.505275 -24.10628,-26.666667 -42.32207,-26.666667 -12.16231,0 -23.44295,4.466193 -32.18737,12.743514 -7.124107,6.743561 -11.956948,15.581273 -13.854559,25.335536 -0.940995,4.836987 -1.000394,11.907757 -0.140746,16.754287 3.594578,20.26549 19.61419,35.60173 40.210765,38.49543 3.38769,0.47595 12.0134,0.12856 15.47961,-0.62342 z M 88.328343,118.79351 c -1.109483,-0.6347 -1.5,-1.35903 -1.5,-2.78218 0,-1.35075 0.09251,-1.44874 22.755707,-24.102958 25.10123,-25.091291 23.59088,-23.814428 25.88538,-21.883731 0.84152,0.708092 1.02558,1.110971 1.02558,2.244877 V 73.65143 L 113.90528,96.248359 C 94.164771,115.99515 91.1692,118.86607 90.155277,119.01009 c -0.638147,0.0906 -1.460267,-0.007 -1.826934,-0.21658 z m 2.508479,-22.290021 c -0.786746,-0.786746 -1.152827,-2.061112 -0.888171,-3.091812 0.105919,-0.4125 4.7656,-5.3175 10.354849,-10.9 9.63353,-9.621903 10.22592,-10.15 11.38579,-10.15 0.95694,0 1.4322,0.233555 2.18129,1.071925 1.06858,1.195952 1.18478,1.998486 0.48185,3.327961 -0.26175,0.495063 -4.88012,5.287614 -10.26304,10.650114 -9.721536,9.684651 -9.796542,9.75 -11.190757,9.75 -0.953151,0 -1.614858,-0.211236 -2.061811,-0.658188 z"
       id="path1" />
  </g>
</svg>
