<?xml version="1.0" encoding="UTF-8" standalone="no"?>
<!-- Created with Inkscape (http://www.inkscape.org/) -->

<svg
   version="1.1"
   id="svg1"
   width="230.39999"
   height="230.39999"
   viewBox="0 0 230.39999 230.39999"
   sodipodi:docname="peace.svg"
   inkscape:export-filename="peace.svg"
   inkscape:export-xdpi="96"
   inkscape:export-ydpi="96"
   inkscape:version="1.3 (0e150ed6c4, 2023-07-21)"
   xmlns:inkscape="http://www.inkscape.org/namespaces/inkscape"
   xmlns:sodipodi="http://sodipodi.sourceforge.net/DTD/sodipodi-0.dtd"
   xmlns="http://www.w3.org/2000/svg"
   xmlns:svg="http://www.w3.org/2000/svg">
  <defs
     id="defs1" />
  <sodipodi:namedview
     id="namedview1"
     pagecolor="#ffffff"
     bordercolor="#000000"
     borderopacity="0.25"
     inkscape:showpageshadow="2"
     inkscape:pageopacity="0.0"
     inkscape:pagecheckerboard="0"
     inkscape:deskcolor="#d1d1d1"
     showgrid="false"
     inkscape:zoom="2.1744792"
     inkscape:cx="115.42994"
     inkscape:cy="115.2"
     inkscape:window-width="1366"
     inkscape:window-height="697"
     inkscape:window-x="-8"
     inkscape:window-y="-8"
     inkscape:window-maximized="1"
     inkscape:current-layer="g1" />
  <g
     inkscape:groupmode="layer"
     inkscape:label="Image"
     id="g1">
    <path
       style="fill:#1E2019"
       d="m 59.331771,189.75582 c -2.145817,-0.70141 -4.224865,-2.05744 -4.434394,-2.89227 -0.279222,-1.1125 0.637449,-2.62012 3.078401,-5.06293 2.56987,-2.57183 5.800195,-4.25465 9.298799,-4.84414 l 2.307073,-0.38873 -3.490706,-2.6765 C 55.004366,165.39062 45.74043,152.91714 40.649851,139.63594 l -1.31525,-3.43145 -2.927181,-0.16403 c -3.418933,-0.19159 -5.682176,-0.95075 -8.556389,-2.87008 -3.293847,-2.19954 -5.599154,-5.72077 -6.164649,-9.41616 -0.301889,-1.97277 0.368668,-2.62405 3.098553,-3.00946 3.63009,-0.5125 8.087824,0.59544 10.951259,2.72185 l 0.655954,0.48712 -0.403936,-3.27651 c -1.162464,-9.42925 -0.0802,-22.422948 2.587917,-31.070668 l 0.759811,-2.46265 -0.866905,-0.44829 c -1.478775,-0.76471 -3.610172,-3.133559 -4.476208,-4.974896 -1.671456,-3.553789 -0.844353,-8.349787 1.479423,-8.578518 1.972826,-0.194187 5.403889,2.317478 6.390085,4.677778 l 0.470691,1.126521 1.880143,-3.570817 1.880143,-3.570816 -0.504546,-1.362074 c -0.789953,-2.132555 -0.94571,-7.720004 -0.279125,-10.012977 1.172092,-4.031854 3.907884,-7.742644 6.70745,-9.097891 2.680055,-1.297392 3.590475,-0.780599 4.880834,2.770568 1.514863,4.169019 1.316535,8.126509 -0.599404,11.960642 -1.035831,2.07288 -4.188462,5.697384 -5.763006,6.625589 -1.118272,0.659229 -5.023254,8.278075 -6.823019,13.312101 -1.059582,2.96371 -3.024504,10.10315 -3.029845,11.00879 -0.0013,0.22489 0.924031,-0.30119 2.05635,-1.16907 1.132319,-0.86787 2.896319,-1.89796 3.92,-2.28908 2.476862,-0.94635 5.954039,-1.18797 7.54284,-0.52413 1.149582,0.48033 1.198243,0.56331 1.194599,2.03706 -0.0086,3.48526 -1.968,7.860468 -4.566476,10.196718 -2.487444,2.23643 -7.503502,4.2785 -10.549725,4.29488 -1.00436,0.005 -0.993423,-0.0505 -0.90844,4.64473 0.207718,11.47624 3.83234,24.12234 10.022108,34.96656 l 1.327976,2.32656 0.537517,-2.65499 c 0.295634,-1.46024 0.930899,-3.43129 1.411701,-4.3801 1.761662,-3.47647 6.208151,-7.08069 7.953322,-6.44677 1.865942,0.67779 3.255815,4.59367 3.255815,9.17305 0,3.16272 -0.02668,3.27815 -1.396545,6.04247 -1.015435,2.0491 -1.960414,3.38203 -3.462786,4.8844 l -2.06624,2.06624 4.422786,4.38192 c 3.591632,3.55845 10.09322,9.00066 10.752731,9.00066 0.08234,0 0.081,-1.26 -0.003,-2.8 -0.186668,-3.42323 0.426856,-6.32356 2.020728,-9.55266 1.49472,-3.02822 4.033787,-5.88734 5.228306,-5.88734 1.150201,0 1.684817,0.6289 3.054289,3.59294 1.480071,3.20342 2.152276,6.17701 2.159789,9.55412 0.0072,3.2462 -0.626905,5.71512 -2.192057,8.53456 l -1.111157,2.00162 0.736568,0.2901 c 0.405112,0.15955 1.600568,0.68145 2.656568,1.15977 4.688262,2.12356 11.811749,4.18905 17.700162,5.13225 1.88091,0.30128 3.67184,0.76515 3.97984,1.03081 0.74582,0.64329 0.71096,2.06801 -0.0678,2.77282 -0.57103,0.51677 -0.86785,0.53378 -3.28,0.188 -6.638412,-0.9516 -14.41531,-3.20573 -20.669097,-5.99091 l -3.296935,-1.46832 -1.839097,1.92675 c -2.109214,2.20974 -5.066675,4.22369 -7.68037,5.23012 -2.298338,0.88499 -8.118451,1.15928 -10.19513,0.48047 z m 8.583748,-4.04699 c 1.064301,-0.35854 2.505019,-1.01166 3.201595,-1.45139 1.485107,-0.93751 3.803124,-2.97842 3.803124,-3.34849 0,-0.48763 -4.053613,-0.69403 -6.419911,-0.32689 -2.944503,0.45686 -5.864297,1.86888 -7.670899,3.70967 l -1.3818,1.40795 0.776305,0.31023 c 1.418112,0.56672 5.601683,0.40296 7.691586,-0.30108 z m 11.338683,-10.89567 c 1.281868,-2.52965 1.852949,-5.25095 1.622435,-7.73119 -0.237064,-2.55071 -1.423076,-6.38989 -1.924871,-6.23089 -0.591712,0.18749 -2.07005,3.21604 -2.622523,5.37255 -0.737611,2.87918 -0.49897,6.31145 0.606751,8.72667 0.485832,1.06119 0.992882,1.76868 1.183269,1.65102 0.18323,-0.11324 0.693952,-0.91792 1.134939,-1.78816 z M 59.129307,151.56244 c 0.998844,-2.03353 1.313275,-5.09761 0.759844,-7.40457 -0.216011,-0.90044 -0.49316,-1.63715 -0.615886,-1.63715 -0.574238,0 -2.650979,2.5957 -3.456303,4.32 -0.794517,1.70116 -0.896723,2.28473 -0.896723,5.12 0,1.76 0.120675,3.488 0.268166,3.84 0.244365,0.58319 0.394578,0.49798 1.692358,-0.96 0.783306,-0.88 1.795151,-2.35523 2.248544,-3.27828 z M 37.800239,132.33033 c 0,-0.66068 -2.584846,-4.17709 -3.960786,-5.38824 -1.649167,-1.45166 -3.570391,-2.24307 -6.193711,-2.55139 -1.523368,-0.17904 -1.685503,-0.13832 -1.685503,0.42331 0,0.95297 1.673412,3.37763 3.124092,4.52659 2.233497,1.76896 4.376318,2.5837 8.475908,3.22271 0.132,0.0206 0.24,-0.0843 0.24,-0.23298 z m 5.486293,-27.23813 c 4.284386,-1.3241 6.764337,-3.75304 7.977647,-7.813568 l 0.275526,-0.92209 -1.416272,0.19412 c -3.387812,0.46435 -6.945708,3.2504 -8.772618,6.869488 -0.544817,1.07927 -0.990576,2.03842 -0.990576,2.13144 0,0.31157 0.877329,0.17384 2.926293,-0.45939 z M 38.380391,79.552784 c -0.899402,-1.747708 -1.75356,-2.255173 -1.403423,-0.833789 0.124879,0.506947 0.611421,1.569721 1.081203,2.361721 0.763402,1.287008 0.865887,1.360053 0.964622,0.687521 0.06076,-0.413863 -0.228322,-1.410817 -0.642402,-2.215453 z M 52.884688,64.234539 c 1.152313,-2.335467 1.492303,-5.06965 0.924642,-7.435927 -0.216109,-0.900842 -0.498563,-1.637896 -0.627675,-1.637896 -0.573797,0 -2.665243,2.513567 -3.442341,4.137114 -0.661212,1.381433 -0.885177,2.409988 -0.994645,4.567895 -0.07771,1.531755 -0.04173,3.315667 0.07995,3.964249 l 0.221226,1.17924 1.43437,-1.404249 c 0.788904,-0.772337 1.870918,-2.289029 2.404477,-3.370426 z M 160.44488,189.72423 c -3.38084,-0.94445 -6.7998,-3.12994 -9.39511,-6.00557 l -1.47046,-1.62929 -3.32954,1.47179 c -6.36,2.81136 -13.00063,4.77273 -19.88696,5.87379 -3.30126,0.52784 -3.46288,0.52658 -4.08,-0.0319 -0.66428,-0.60116 -0.83951,-1.91603 -0.35686,-2.67781 0.16246,-0.2564 1.96977,-0.73503 4.3951,-1.16395 6.51677,-1.15249 12.94924,-3.024 17.55918,-5.10881 1.056,-0.47757 2.24336,-0.99578 2.63859,-1.15158 l 0.71859,-0.28326 -1.09439,-2.00846 c -2.32968,-4.27551 -2.85317,-9.19033 -1.50225,-14.10419 0.69368,-2.52318 2.25838,-5.99583 3.16498,-7.02426 0.95716,-1.08578 2.13173,-0.70761 3.87415,1.24734 3.26371,3.66181 5.03896,8.82047 4.74645,13.79266 -0.0854,1.452 -0.0858,2.64 -8.3e-4,2.64 0.67766,0 7.16874,-5.44356 10.79278,-9.05106 l 4.45807,-4.43772 -1.47949,-1.26463 c -1.92395,-1.64453 -4.15497,-5.02794 -5.04218,-7.64659 -0.96748,-2.85556 -0.77816,-6.89426 0.46737,-9.97052 0.97053,-2.39708 1.71059,-3.22948 2.87118,-3.22948 1.98123,0 5.80912,3.36626 7.40171,6.50908 0.47772,0.94274 1.1113,2.91289 1.40794,4.37811 l 0.53935,2.66404 1.64585,-2.97562 c 6.31234,-11.41237 9.67212,-23.62304 9.67212,-35.152 v -3.82362 l -0.88,-0.005 c -1.56641,-0.008 -4.93092,-0.94689 -7.09177,-1.97812 -2.67499,-1.27659 -5.36804,-3.93468 -6.57188,-6.48655 -0.9241,-1.958888 -1.7857,-5.943948 -1.51485,-7.006438 0.256,-1.00423 2.17794,-1.57768 4.6969,-1.40141 2.92934,0.20497 5.4816,1.20932 8.02284,3.15707 1.13232,0.86788 2.05831,1.39396 2.05775,1.16907 -5.6e-4,-0.22489 -0.5143,-2.35281 -1.14164,-4.72871 -1.32431,-5.01549 -3.21801,-10.018667 -5.55391,-14.673493 -1.44676,-2.882991 -2.04305,-3.678762 -4.78813,-6.389896 -3.419,-3.376711 -4.80643,-5.634856 -5.49244,-8.939322 -0.48778,-2.349661 -0.24245,-5.492349 0.61807,-7.917475 1.29482,-3.649038 2.39456,-4.306479 5.01476,-2.997886 2.90818,1.452414 5.53074,4.993592 6.7149,9.066983 0.66659,2.292973 0.51083,7.880422 -0.27912,10.012977 l -0.50455,1.362074 1.86093,3.534316 1.86092,3.534317 0.40546,-0.978864 c 0.91713,-2.214157 4.35989,-4.813917 6.37487,-4.813917 1.18214,0 1.80144,0.817249 2.29686,3.031035 0.76991,3.440328 -1.17492,7.826637 -4.44778,10.031391 l -1.57712,1.06242 0.56558,1.81758 c 0.94643,3.04149 2.18212,8.96687 2.70146,12.953968 0.77085,5.91802 0.59516,17.25719 -0.33027,21.3153 -0.17199,0.75421 -0.15923,0.7594 0.56309,0.22939 2.98976,-2.19379 7.36545,-3.29502 11.03438,-2.77704 2.66304,0.37597 3.42278,1.07123 3.12446,2.85928 -1.19616,7.16942 -7.81118,12.49899 -15.53089,12.51288 l -2.11113,0.004 -1.374,3.6 c -5.05759,13.25127 -14.09268,25.35596 -25.57445,34.26317 l -3.33071,2.58386 2.30708,0.38873 c 3.61143,0.6085 6.76967,2.28331 9.45788,5.01547 3.87306,3.9364 3.92557,5.20572 0.28943,6.99579 -1.98916,0.97926 -2.44687,1.07393 -5.54063,1.14598 -2.20877,0.0514 -3.9504,-0.0829 -5.04769,-0.38949 z m 7.81451,-3.71069 0.90084,-0.34717 -1.67392,-1.54671 c -2.11474,-1.95403 -4.4885,-3.0818 -7.45564,-3.54217 -2.3393,-0.36296 -6.39044,-0.15283 -6.39044,0.33146 0,0.3699 2.31774,2.41081 3.80157,3.34751 2.93845,1.85496 8.30276,2.72628 10.81759,1.75708 z m -16.65,-11.0303 c 1.09573,-2.39339 1.34508,-5.9424 0.61696,-8.78111 -0.5397,-2.10415 -2.05002,-5.15605 -2.6507,-5.35627 -0.1801,-0.06 -0.6706,0.94025 -1.09,2.22285 -1.0158,3.10646 -1.02299,7.2732 -0.017,9.85201 0.71983,1.84523 1.83387,3.84 2.14458,3.84 0.10032,0 0.54859,-0.79987 0.99616,-1.77748 z m 22.03084,-22.79852 c 0,-3.08065 -0.0899,-3.61654 -0.89673,-5.344 -0.81117,-1.73683 -2.88325,-4.32 -3.46527,-4.32 -0.44365,0 -1.00018,3.44731 -0.86291,5.34508 0.16645,2.30113 1.33186,4.83924 3.19269,6.95326 1.77191,2.01299 2.03222,1.67556 2.03222,-2.63434 z m 20.603,-20.25893 c 2.93914,-0.66187 5.96148,-2.71304 7.44542,-5.05296 0.50136,-0.79058 0.91157,-1.71705 0.91157,-2.05882 0,-0.56163 -0.16213,-0.60235 -1.6855,-0.42331 -2.62332,0.30832 -4.54454,1.09973 -6.19371,2.55139 -1.36774,1.20393 -3.96079,4.72626 -3.96079,5.38024 0,0.27086 1.05035,0.15128 3.48301,-0.39654 z m -6.04301,-26.3742 c 0,-0.093 -0.44575,-1.05217 -0.99057,-2.13144 -1.82691,-3.619088 -5.38481,-6.405138 -8.77262,-6.869488 l -1.41627,-0.19412 0.27552,0.92209 c 0.79916,2.67449 2.28532,4.823618 4.2218,6.105118 1.92904,1.27658 6.68214,2.8186 6.68214,2.16784 z m 2.36462,-24.550874 c 1.50113,-2.578996 1.39256,-4.454846 -0.11651,-2.013122 -0.65968,1.067395 -1.24991,3.373122 -0.86346,3.373122 0.10361,0 0.5446,-0.612 0.97997,-1.36 z m -10.7668,-16.72 c -0.0992,-2.340375 -0.31715,-3.605717 -0.81122,-4.710303 -0.64157,-1.434355 -3.0675,-4.409697 -3.59543,-4.409697 -0.47737,0 -1.03145,3.294902 -0.86422,5.139139 0.22249,2.453595 1.43213,5.019657 3.31535,7.032972 1.48443,1.586975 1.53493,1.611826 1.80913,0.890219 0.15515,-0.408281 0.22102,-2.18233 0.14639,-3.94233 z m -71.94285,83.823424 c -3.4311,-0.62132 -7.39241,-1.92779 -10.374953,-3.42172 -2.773466,-1.3892 -6.684595,-3.97183 -7.778792,-5.13655 l -0.682817,-0.72683 11.670802,-11.66752 11.67081,-11.66752 v 16.55836 16.55836 l -1.04,-0.0287 c -0.572,-0.0158 -2.13127,-0.22633 -3.46505,-0.46786 z m 8.34505,-16.06178 V 115.484 l 11.6708,11.66752 11.6708,11.66752 -0.68282,0.72683 c -2.12326,2.26011 -8.57751,5.86323 -13.00408,7.25961 -2.6268,0.82864 -7.41696,1.79524 -8.89662,1.79524 h -0.75808 z m -30.966374,2.99332 c -3.040156,-3.46254 -6.312459,-9.7856 -7.662936,-14.80706 -0.77083,-2.86616 -0.848181,-3.69207 -0.864245,-9.2279 -0.01517,-5.22675 0.08,-6.46477 0.678113,-8.82172 3.317986,-13.074988 12.654694,-23.177909 25.215442,-27.284747 2.48044,-0.811002 7.45676,-1.813537 9.00191,-1.813537 h 0.75809 V 91.562182 110.04364 L 99.29461,123.10635 86.228987,136.16906 Z M 129.22949,123.06999 116.20024,110.03783 V 91.559272 73.080716 h 0.75808 c 1.47993,0 6.27001,0.966661 8.89662,1.795379 11.35898,3.583866 20.69212,12.879337 24.43067,24.332087 2.37643,7.279978 2.36245,16.149958 -0.0367,23.326958 -1.49787,4.48074 -5.07777,10.831 -7.26339,12.88428 l -0.72673,0.68273 z"
       id="path1" />
  </g>
</svg>
