<?xml version="1.0" encoding="UTF-8" standalone="no"?>
<!-- Created with Inkscape (http://www.inkscape.org/) -->

<svg
   version="1.1"
   id="svg1"
   viewBox="0 0 230.39999 230.39999"
   sodipodi:docname="tarot_logo_black.png"
   xmlns:inkscape="http://www.inkscape.org/namespaces/inkscape"
   xmlns:sodipodi="http://sodipodi.sourceforge.net/DTD/sodipodi-0.dtd"
   xmlns="http://www.w3.org/2000/svg"
   xmlns:svg="http://www.w3.org/2000/svg">
  <defs
     id="defs1" />
  <sodipodi:namedview
     id="namedview1"
     pagecolor="#ffffff"
     bordercolor="#000000"
     borderopacity="0.25"
     inkscape:showpageshadow="2"
     inkscape:pageopacity="0.0"
     inkscape:pagecheckerboard="0"
     inkscape:deskcolor="#d1d1d1"
     showgrid="false" />
  <g
     inkscape:groupmode="layer"
     inkscape:label="Image"
     id="g1">
    <path
       style="fill:#"
       d="m 63.162007,203.51449 c -0.4425,-0.4425 -0.885314,-1.1985 -0.984032,-1.68 -0.09872,-0.4815 -7.612614,-33.13145 -16.69755,-72.55545 C 30.439805,64.010383 28.993736,57.491873 29.313109,56.400903 c 0.225027,-0.76869 0.66176,-1.35822 1.218457,-1.64476 0.477242,-0.24564 22.959184,-5.52704 49.959869,-11.73645 l 49.092155,-11.28982 1.14784,0.61458 c 1.33274,0.71358 1.63039,1.49821 3.23799,8.53545 0.87927,3.84899 1.09215,4.41882 1.6976,4.54401 0.38074,0.0787 13.35845,1.38625 28.83936,2.90561 19.61469,1.92507 28.42541,2.9064 29.0652,3.23725 2.0625,1.06656 2.47614,-4.56091 -5.55925,75.632267 -4.02966,40.216 -7.40583,73.58376 -7.50259,74.15058 -0.0968,0.56681 -0.543,1.46681 -0.99164,1.99999 -0.74778,0.88868 -0.97992,0.96865 -2.78727,0.96011 -1.08436,-0.005 -18.79842,-1.7115 -39.36459,-3.79196 l -37.393029,-3.78264 -16.489134,3.79196 c -9.069024,2.08557 -17.170522,3.79195 -18.003329,3.79195 -1.190757,0 -1.68605,-0.17185 -2.318741,-0.80454 z M 181.17013,126.10166 c 3.77358,-37.651557 6.82687,-68.481877 6.7851,-68.511817 -0.0418,-0.0299 -12.02795,-1.23157 -26.63595,-2.67029 -14.608,-1.43872 -27.028,-2.74292 -27.6,-2.89823 -0.8691,-0.23598 -1.03918,-0.19527 -1.035,0.24767 0.006,0.61878 0.82205,4.18559 0.99642,4.35427 0.0652,0.0631 8.75858,1.0124 19.31858,2.10957 12.64747,1.31406 19.44572,2.14606 19.92,2.43791 0.51138,0.31468 0.72,0.7486 0.72,1.49759 0,3.91912 2.75714,7.34678 6.44784,8.01591 1.31396,0.23822 2.03543,0.90776 1.75779,1.63126 -0.10228,0.26655 -2.79921,24.924802 -5.99318,54.796137 -4.75329,44.45471 -5.89883,54.3785 -6.31205,54.68065 -0.27765,0.20303 -1.31526,0.44263 -2.30578,0.53244 -0.99053,0.0898 -2.36653,0.45466 -3.05779,0.81077 -2.40632,1.23961 -4.29683,3.9112 -4.29683,6.0721 0,0.50001 -0.18,1.15138 -0.4,1.44748 -0.37196,0.50062 -1.62218,0.4075 -17.83108,-1.32813 l -17.43108,-1.86649 -7.44464,1.60691 c -4.09455,0.88379 -7.36274,1.68897 -7.26265,1.78928 0.10009,0.10031 14.60616,1.62775 32.23571,3.39431 l 32.05374,3.21192 0.2549,-1.45192 c 0.14019,-0.79856 3.34237,-32.25774 7.11595,-69.9093 z m -96.668133,67.13936 c 7.910495,-1.82709 14.750495,-3.32195 15.199999,-3.32191 0.777484,7e-5 58.933074,-12.43969 59.170964,-12.65695 0.22929,-0.20941 -29.0936,-126.414197 -29.58737,-127.343117 -0.28066,-0.528 -0.98311,-3.01922 -1.56101,-5.53604 -0.57789,-2.51683 -1.12044,-4.64576 -1.20565,-4.73097 -0.1531,-0.1531 -89.525922,20.24661 -89.769585,20.49027 -0.09621,0.0962 29.414332,128.918857 31.033979,135.472917 0.328028,1.3274 0.375463,1.36859 1.33802,1.16198 0.548864,-0.11781 7.470158,-1.70909 15.380653,-3.53618 z m -2.895309,-4.74076 c -0.359129,-0.25154 -0.833899,-1.06127 -1.055044,-1.79939 -0.249962,-0.83429 -0.98314,-1.92309 -1.937916,-2.87786 -1.800783,-1.80078 -3.834813,-2.54397 -6.962573,-2.54397 -1.330847,0 -2.084617,-0.13802 -2.184567,-0.4 -0.08393,-0.22 -5.547467,-24.016 -12.141188,-52.88 C 50.731678,99.135035 45.167362,74.983713 44.960252,74.329413 c -0.465535,-1.4707 -0.16547,-1.91193 1.675323,-2.46344 1.788883,-0.53596 4.174083,-2.95839 4.71915,-4.79281 0.229753,-0.77322 0.3879,-2.14122 0.351438,-3.04 -0.08946,-2.20505 -0.06295,-2.33646 0.516134,-2.55868 1.538169,-0.59025 60.499893,-13.93417 60.945243,-13.79282 0.29374,0.0932 0.71123,0.76082 0.92776,1.48354 0.24094,0.80418 0.98961,1.90994 1.92953,2.84986 1.87631,1.87632 4.10239,2.67102 6.61576,2.36182 1.77577,-0.21846 2.01066,-0.07 2.20108,1.39114 0.0624,0.47906 5.52343,24.53187 12.13556,53.450697 6.61212,28.91883 12.02205,52.86064 12.02205,53.20404 0,0.45244 -0.50663,0.84829 -1.84,1.4377 -3.37031,1.48981 -4.98246,3.74437 -5.01873,7.01858 -0.0117,1.056 0.0874,2.21555 0.22023,2.57678 0.14517,0.39483 0.0814,0.8625 -0.16,1.17254 -0.27975,0.35936 -9.28033,2.5664 -29.6815,7.27821 -16.104002,3.71934 -29.500419,6.82738 -29.769817,6.90674 -0.269398,0.0794 -0.783647,-0.0615 -1.142775,-0.31305 z m 26.851052,-8.19408 c 13.93784,-3.17507 26.58154,-6.06237 28.09709,-6.41623 l 2.75556,-0.64337 0.21195,-2.28048 c 0.38162,-4.1061 2.34665,-7.24026 5.58386,-8.90606 1.28458,-0.66102 1.37241,-0.78701 1.19036,-1.70734 -0.10811,-0.54652 -5.49831,-24.03366 -11.97823,-52.19366 l -11.78168,-51.199997 -2.07734,-0.20859 c -3.52957,-0.35441 -6.72407,-2.53086 -8.17234,-5.56789 -0.35053,-0.73507 -0.69675,-1.05802 -1.0281,-0.95899 -0.27478,0.0821 -12.667593,2.97023 -27.539592,6.41802 -14.871999,3.44778 -27.560014,6.40583 -28.195588,6.57344 -1.132266,0.29861 -1.159023,0.34262 -1.325692,2.18067 -0.315564,3.4801 -2.295986,6.54825 -5.212807,8.07587 -1.260728,0.66029 -1.442953,0.87919 -1.304835,1.56747 0.294109,1.46561 23.57859,102.870707 23.751732,103.439997 0.138245,0.45454 0.542882,0.56004 2.148754,0.56025 3.627335,4.6e-4 7.836505,2.82326 8.867338,5.94672 0.198402,0.60116 0.429871,1.09303 0.514375,1.09303 0.0845,0 11.557337,-2.59779 25.495185,-5.77286 z M 93.021493,156.1858 c -0.243547,-0.29345 -0.471769,-2.97264 -0.647392,-7.6 -0.258363,-6.80741 -0.242151,-7.17694 0.341414,-7.78232 0.481322,-0.49932 0.73175,-0.5608 1.16821,-0.28682 0.666784,0.41856 0.949986,3.49696 1.001669,10.88814 0.02898,4.144 -0.03942,4.87389 -0.472288,5.04 -0.745382,0.28603 -0.974703,0.24335 -1.391613,-0.259 z m -15.154191,-3.26541 c -0.125413,-0.12541 -0.228024,-0.45763 -0.228024,-0.73827 0,-1.00612 4.664972,-12.60908 5.206927,-12.95094 0.694199,-0.43789 1.640438,0.0826 1.746306,0.96054 0.04028,0.33402 -1.039721,3.34332 -2.399999,6.68732 -2.236266,5.49745 -2.551032,6.08907 -3.28521,6.17469 -0.446586,0.0521 -0.914586,-0.008 -1.04,-0.13334 z m 32.280728,-0.84135 c -0.25629,-0.396 -1.72695,-3.50456 -3.26813,-6.90791 -2.19076,-4.8378 -2.72939,-6.30401 -2.4687,-6.72 0.42407,-0.67672 1.50485,-0.84878 1.93177,-0.30754 0.18023,0.2285 1.66184,3.24907 3.29248,6.7124 2.28291,4.84872 2.91727,6.48624 2.75821,7.12 -0.26853,1.0699 -1.58089,1.13012 -2.24563,0.10305 z M 68.252613,144.2657 c -0.48933,-0.48933 -0.123473,-1.65715 1.42791,-4.55789 0.902684,-1.68783 1.861001,-3.32077 2.129595,-3.62877 1.187768,-1.36203 2.644194,-0.10405 1.789518,1.54569 -2.592161,5.00352 -3.791906,6.85431 -4.443203,6.85431 -0.379768,0 -0.786487,-0.096 -0.90382,-0.21334 z m 49.466667,-5.23142 c -2.684,-2.63088 -4.88,-4.9183 -4.88,-5.08316 0,-0.81842 0.46588,-1.31208 1.23823,-1.31208 0.66834,0 1.85668,1.00858 5.56577,4.72387 2.5938,2.59813 4.716,4.94533 4.716,5.216 0,0.63725 -0.63307,1.26303 -1.264,1.24946 -0.2728,-0.006 -2.692,-2.16321 -5.376,-4.79409 z m -29.129342,-1.91555 c -3.062212,-0.43122 -7.274514,-1.54606 -10.47066,-2.77121 -5.095184,-1.95309 -12.730395,-6.08858 -13.121149,-7.10687 -0.390524,-1.01769 3.688303,-6.69666 8.148166,-11.34474 5.309961,-5.53405 11.289881,-9.4025 17.476478,-11.30566 2.640747,-0.81237 3.279483,-0.87986 8.456504,-0.89356 5.142123,-0.0136 5.887813,0.0596 9.120003,0.89497 3.94352,1.01926 9.50361,3.1858 12.64,4.92528 3.12507,1.73321 6.40049,3.97057 6.39614,4.36905 -0.0138,1.26494 -4.28159,7.00977 -8.31231,11.18912 -6.11952,6.34519 -12.4112,10.12046 -19.326896,11.59697 -2.814407,0.60088 -8.323448,0.82445 -11.006276,0.44665 z m 9.803068,-2.89453 c 7.378484,-1.19727 12.600844,-8.35854 11.542964,-15.82853 -1.26852,-8.95738 -11.367231,-14.39284 -19.674687,-10.58956 -2.426894,1.11107 -3.878042,2.29464 -5.482467,4.47156 -3.033864,4.1164 -3.508702,9.55265 -1.236047,14.15106 1.426702,2.88673 3.704254,5.21925 6.382653,6.53669 3.024787,1.48781 5.128651,1.80057 8.467584,1.25878 z m -4.682331,-8.98311 c -2.731838,-1.35224 -3.856606,-5.22528 -2.228815,-7.67473 0.852042,-1.28213 3.135921,-2.52732 4.6355,-2.52732 3.372895,0 6.08764,3.43066 5.2313,6.61086 -0.45602,1.69355 -1.389367,2.85368 -2.926883,3.63806 -1.592942,0.81266 -3.002976,0.79863 -4.711102,-0.0469 z m -8.054902,7.89173 c -2.941048,-2.45718 -4.786898,-5.37936 -5.614049,-8.88765 -1.01613,-4.30984 -0.554736,-7.16624 2.025173,-12.53745 0.07696,-0.16023 -0.553882,0.19977 -1.40187,0.8 -2.515132,1.78027 -7.867546,7.26084 -10.400501,10.64954 l -2.360682,3.15821 0.71873,0.582 c 2.080339,1.68455 10.812182,5.58357 15.096704,6.74111 3.163676,0.85472 3.469339,0.77489 1.936495,-0.50576 z m 30.232377,-8.56799 c 2.3714,-2.23493 4.77099,-5.04012 7.51443,-8.78461 l 0.98091,-1.33881 -2.33211,-1.3676 c -4.66437,-2.73527 -11.58021,-5.45301 -15.81172,-6.21356 l -1.24038,-0.22294 1.48247,1.14686 c 1.83548,1.41997 3.47531,3.62256 4.83598,6.49563 1.00255,2.1169 1.04155,2.34898 1.04155,6.19924 0,3.84904 -0.0392,4.08287 -1.04,6.19592 -0.572,1.20776 -1.04,2.26071 -1.04,2.33989 0,0.35591 3.22116,-2.19973 5.60887,-4.45002 z m 8.78687,4.9686 c -1.7964,-1.35609 -3.34525,-2.67166 -3.44189,-2.9235 -0.22864,-0.59583 0.32584,-1.46161 1.02399,-1.59889 0.827,-0.16261 7.19492,4.75155 7.20999,5.564 0.0135,0.72592 -0.54582,1.424 -1.14087,1.424 -0.21177,0 -1.85482,-1.10953 -3.65122,-2.46561 z M 64.519279,114.05314 c -2.78807,-2.14087 -3.36,-2.72592 -3.36,-3.43707 0,-0.67891 0.166271,-0.87412 0.8,-0.93926 0.960342,-0.0987 7.128012,4.55394 7.313481,5.517 0.10031,0.52087 -0.68302,1.45101 -1.214642,1.44229 -0.09836,-0.002 -1.690839,-1.16394 -3.538839,-2.58296 z m 6.441402,-10.01264 c -4.102435,-4.108845 -4.875247,-5.030705 -4.694563,-5.599995 0.150194,-0.47322 0.479839,-0.68146 1.078726,-0.68146 0.684657,0 1.83458,0.97376 5.578435,4.723865 3.121342,3.12656 4.715999,4.95445 4.715999,5.40577 0,0.64542 -0.551851,1.07036 -1.390044,1.07036 -0.207735,0 -2.587584,-2.21334 -5.288553,-4.91854 z m 46.118599,1.50661 c -0.68837,-0.27777 -0.43062,-1.12022 1.45268,-4.74807 1.69268,-3.260645 1.90193,-3.527235 2.83997,-3.618235 1.79822,-0.17444 1.66378,0.75872 -0.70324,4.881105 -2.06525,3.59682 -2.43149,3.95243 -3.58941,3.4852 z M 81.306785,97.261445 c -1.669378,-3.46597 -3.11591,-6.62321 -3.214515,-7.01609 -0.109905,-0.437892 0.02427,-0.917862 0.34672,-1.240312 0.586399,-0.5864 0.786233,-0.62685 1.344335,-0.27208 0.630206,0.4006 6.538192,13.208517 6.432972,13.946037 -0.0678,0.47525 -0.364617,0.71078 -0.985649,0.78212 -0.860097,0.0988 -0.986087,-0.10025 -3.923863,-6.199675 z m 24.802335,4.638615 c -0.29193,-0.54548 0.0425,-1.68908 1.94151,-6.639995 2.77869,-7.244172 2.70474,-7.101022 3.66865,-7.101022 1.66791,0 1.56195,0.81642 -0.9528,7.341322 -1.3031,3.38106 -2.53943,6.352415 -2.74742,6.603025 -0.54804,0.66035 -1.50207,0.55879 -1.90994,-0.20333 z m -10.070466,-1.26202 c -0.28921,-0.46796 -0.614889,-13.815517 -0.361709,-14.824257 0.159339,-0.63486 0.41586,-0.85474 0.99717,-0.85474 0.430455,0 0.912892,0.252 1.072083,0.56 0.484268,0.93695 0.805155,14.439382 0.356015,14.980567 -0.437051,0.5266 -1.768449,0.61591 -2.063559,0.13843 z m 61.752356,86.33353 c 1.15301,-3.52511 3.81035,-5.91718 7.61407,-6.85396 1.7133,-0.42196 2.19515,-0.67393 2.30627,-1.20599 0.15052,-0.72074 11.38077,-104.750837 11.37273,-105.349917 -0.003,-0.19653 -0.7149,-0.65244 -1.58279,-1.01312 -3.12768,-1.2998 -5.6793,-4.54082 -6.03092,-7.66033 -0.0883,-0.78297 -0.32269,-1.48585 -0.52097,-1.56194 -0.41229,-0.15821 -36.47092,-3.95315 -36.5748,-3.84926 -0.0375,0.0374 1.29378,5.96027 2.95829,13.16183 1.66451,7.20155 3.02639,13.14418 3.02639,13.20583 0,0.0616 0.12238,0.0365 0.27196,-0.056 0.65345,-0.40386 6.49116,0.55566 9.41203,1.54701 4.43521,1.50532 7.81271,3.622952 11.26555,7.063302 3.23855,3.22684 4.36874,4.95993 3.8115,5.844785 -0.62587,0.99385 -1.30454,0.77974 -3.36947,-1.063005 -4.64555,-4.14572 -10.15672,-5.50478 -16.12879,-3.97738 -1.38577,0.35442 -2.6141,0.75042 -2.72962,0.88 -0.22029,0.24711 7.47251,32.907935 7.83681,33.272235 0.40637,0.40637 4.38416,-0.51229 6.49469,-1.49993 5.4094,-2.53136 9.10467,-7.19139 10.14265,-12.79069 0.41701,-2.24957 1.06221,-3.00611 2.03269,-2.38345 0.47975,0.3078 0.55319,0.83492 0.51248,3.67836 -0.10826,7.56252 -3.41296,14.89574 -9.1529,20.3105 -2.1774,2.05406 -5.43205,4.38531 -6.67151,4.7787 -0.33444,0.10615 -0.60807,0.41081 -0.60807,0.67702 0,0.26622 1.88125,8.55926 4.18057,18.42898 4.02624,17.28246 4.15914,17.96538 3.6,18.49858 -0.39883,0.38032 -4.83795,1.4703 -14.18057,3.48188 -7.48,1.61053 -13.87959,3.04147 -14.22131,3.17985 -0.38816,0.1572 2.01354,0.52802 6.4,0.98817 3.86172,0.40511 9.25331,0.99063 11.98131,1.30116 2.728,0.31053 5.19542,0.58027 5.48316,0.59941 0.35933,0.0239 0.69397,-0.48739 1.06857,-1.63265 z m -3.35173,-48.6141 c 3.87242,-2.34826 8.0251,-6.76468 9.95441,-10.58661 1.71934,-3.40598 1.71981,-3.65282 0.004,-1.89088 -2.95635,3.03517 -6.92833,5.13176 -10.9487,5.77923 -1.08576,0.17485 -2.04584,0.38965 -2.13352,0.47734 -0.14169,0.14168 0.26793,2.03613 1.23298,5.70249 0.17373,0.66 0.41831,1.19946 0.54353,1.1988 0.12522,-6.6e-4 0.73167,-0.30682 1.34767,-0.68037 z m -5.83392,-46.219705 c 1.36065,-0.10738 3.33792,-0.0533 4.39392,0.12025 1.056,0.17351 1.97708,0.26114 2.04685,0.19473 0.24133,-0.22971 -4.63846,-2.38219 -6.85835,-3.025232 -2.33289,-0.67577 -7.1885,-1.21756 -7.1885,-0.80209 0,0.24986 0.89089,3.888712 1.1131,4.546432 0.0907,0.26846 0.67085,0.20323 2.0725,-0.23302 1.07061,-0.33321 3.05982,-0.69369 4.42048,-0.80107 z"
       id="path1" />
  </g>
</svg>
