<?xml version="1.0" encoding="UTF-8"?>
<svg version="1.1" xmlns="http://www.w3.org/2000/svg" width="846" height="855">
<path d="M0 0 C279.18 0 558.36 0 846 0 C846 282.15 846 564.3 846 855 C566.82 855 287.64 855 0 855 C0 572.85 0 290.7 0 0 Z " fill="#D2CFCA" transform="translate(0,0)"/>
<path d="M0 0 C0.72767578 0.18723633 1.45535156 0.37447266 2.20507812 0.56738281 C42.54145228 11.31014299 75.91517558 38.01681853 97.0625 73.6875 C104.63668603 87.07596552 110.30360508 101.07831276 114 116 C114.3196875 117.20398438 114.639375 118.40796875 114.96875 119.6484375 C119.55385999 140.23897772 119.08178322 165.56785273 114 186 C113.80132324 186.79970215 113.60264648 187.5994043 113.39794922 188.42333984 C103.11201591 228.2803683 78.63312596 262.57289471 43.4453125 284.23828125 C6.90121075 305.57639055 -35.55821901 313.44328006 -76.96875 302.74609375 C-117.01446388 291.79098869 -151.83132507 266.42393725 -172.98461914 230.48364258 C-193.68532324 193.94288591 -200.26014976 151.08536338 -188.9987793 110.38305664 C-186.13664732 100.55736784 -182.47939739 91.1954704 -178 82 C-177.45601563 80.88238281 -176.91203125 79.76476562 -176.3515625 78.61328125 C-170.4038689 67.03901365 -162.91012811 56.66078214 -154.0078125 47.18359375 C-151.93697176 44.98596772 -151.93697176 44.98596772 -149.96875 42.4296875 C-147.03285461 38.80641978 -143.5697677 35.98100393 -140 33 C-139.2575 32.36964844 -138.515 31.73929687 -137.75 31.08984375 C-99.78466717 -0.31897601 -47.82416223 -12.45378566 0 0 Z " fill="#D2CFCA" transform="translate(462,276)"/>
<path d="M0 0 C3.69961673 3.13906874 5.88557444 6.38115925 8.25 10.625 C11.88347256 17.03056153 16.15991934 22.46847925 21 28 C21.83402344 28.9796875 22.66804688 29.959375 23.52734375 30.96875 C44.71699276 55.38136906 74.62594051 69.35770064 106 75 C106.92594971 75.17345947 107.85189941 75.34691895 108.8059082 75.52563477 C125.16896438 77.95576686 143.96598942 77.04209598 160 73 C160.79519043 72.80132324 161.59038086 72.60264648 162.40966797 72.39794922 C203.25849427 61.84790412 232.50399308 35.62848807 254 0 C254.99 0.33 255.98 0.66 257 1 C258.08584336 41.10938332 249.19296525 74.45940519 221.36328125 104.5625 C197.35810369 129.75801694 164.40075378 143.47755332 129.82250977 144.40478516 C99.94099705 144.71051339 71.51477045 135.6343464 48 117 C46.97777344 116.19304687 45.95554687 115.38609375 44.90234375 114.5546875 C38.99871897 109.81153417 33.70142905 104.93919466 29 99 C28.23171875 98.06800781 27.4634375 97.13601563 26.671875 96.17578125 C7.30837051 72.27759498 -2.16784722 43.61902924 -2.1875 13 C-2.19974609 11.96488281 -2.21199219 10.92976563 -2.22460938 9.86328125 C-2.22654297 8.87714844 -2.22847656 7.89101563 -2.23046875 6.875 C-2.23457764 5.98554688 -2.23868652 5.09609375 -2.24291992 4.1796875 C-2 2 -2 2 0 0 Z " fill="#25283D" transform="translate(296,413)"/>
<path d="M0 0 C0.72767578 0.18723633 1.45535156 0.37447266 2.20507812 0.56738281 C42.54145228 11.31014299 75.91517558 38.01681853 97.0625 73.6875 C104.63668603 87.07596552 110.30360508 101.07831276 114 116 C114.3196875 117.20398438 114.639375 118.40796875 114.96875 119.6484375 C119.55385999 140.23897772 119.08178322 165.56785273 114 186 C113.80132324 186.79970215 113.60264648 187.5994043 113.39794922 188.42333984 C103.11201591 228.2803683 78.63312596 262.57289471 43.4453125 284.23828125 C6.90121075 305.57639055 -35.55821901 313.44328006 -76.96875 302.74609375 C-117.01446388 291.79098869 -151.83132507 266.42393725 -172.98461914 230.48364258 C-193.68532324 193.94288591 -200.26014976 151.08536338 -188.9987793 110.38305664 C-186.13664732 100.55736784 -182.47939739 91.1954704 -178 82 C-177.45601563 80.88238281 -176.91203125 79.76476562 -176.3515625 78.61328125 C-170.4038689 67.03901365 -162.91012811 56.66078214 -154.0078125 47.18359375 C-151.93697176 44.98596772 -151.93697176 44.98596772 -149.96875 42.4296875 C-147.03285461 38.80641978 -143.5697677 35.98100393 -140 33 C-139.2575 32.36964844 -138.515 31.73929687 -137.75 31.08984375 C-99.78466717 -0.31897601 -47.82416223 -12.45378566 0 0 Z M-112 20 C-112.66338379 20.37495605 -113.32676758 20.74991211 -114.01025391 21.13623047 C-124.29754002 27.04668128 -133.29812332 33.9550297 -142 42 C-142.81984375 42.74894531 -143.6396875 43.49789062 -144.484375 44.26953125 C-162.15569737 61.15755032 -174.80181285 83.37041637 -182.3125 106.5 C-182.54283936 107.19770508 -182.77317871 107.89541016 -183.01049805 108.61425781 C-187.28632425 122.54168291 -188.586047 136.57369822 -188.5 151.0625 C-188.49823761 151.86371277 -188.49647522 152.66492554 -188.49465942 153.49041748 C-188.29203047 195.05667892 -171.11943566 231.17674722 -142.390625 260.6796875 C-119.32948757 282.55282694 -89.44633261 296.69837903 -58 301 C-57.154375 301.12890625 -56.30875 301.2578125 -55.4375 301.390625 C-27.52479093 304.97401333 1.95086322 299.5378009 27 287 C27.6280957 286.69336426 28.25619141 286.38672852 28.90332031 286.07080078 C64.13505144 268.76004955 90.81900183 237.86623795 104 201 C104.36738281 200.00355469 104.73476563 199.00710938 105.11328125 197.98046875 C113.64339145 172.8512252 114.8180858 144.83779835 109 119 C108.83371094 118.25492187 108.66742187 117.50984375 108.49609375 116.7421875 C102.33322605 90.1733801 88.68378937 66.73552586 70 47 C69.18015625 46.11570312 68.3603125 45.23140625 67.515625 44.3203125 C40.50037778 16.10616378 2.23809106 1.61692882 -36.33691406 0.66552734 C-63.0851102 0.34199189 -88.6967496 6.78754681 -112 20 Z " fill="#2A2D3E" transform="translate(462,276)"/>
<path d="M0 0 C1.32 0.33 2.64 0.66 4 1 C4.08636719 1.64066406 4.17273438 2.28132813 4.26171875 2.94140625 C5.23482569 8.93181689 6.40483126 13.80997374 11 18 C15.98960717 21.20700962 21.02382638 23.52819682 27 24 C27 25.32 27 26.64 27 28 C26.02160156 28.14695312 26.02160156 28.14695312 25.0234375 28.296875 C18.14329692 29.4740082 13.60060098 31.18268227 8.75 36.4375 C5.66821418 40.95011495 4.43819895 45.76084669 3 51 C2.01 51 1.02 51 0 51 C-0.17015625 50.27554688 -0.3403125 49.55109375 -0.515625 48.8046875 C-2.69532074 39.35331138 -2.69532074 39.35331138 -9.234375 32.6015625 C-14.01549593 30.09509608 -18.75624426 28.25394159 -24 27 C-24 26.01 -24 25.02 -24 24 C-22.82244141 23.77957031 -22.82244141 23.77957031 -21.62109375 23.5546875 C-14.7034441 22.07779052 -9.61240163 20.53488195 -5 15 C-1.99781776 10.34144135 -1.01544889 5.37590591 0 0 Z " fill="#2A2C3D" transform="translate(422,428)"/>
<path d="M0 0 C0.495 1.98 0.495 1.98 1 4 C0.4423999 4.09498779 -0.1152002 4.18997559 -0.68969727 4.2878418 C-30.19386882 9.39462444 -55.43895279 19.94256849 -77 41 C-78.09248047 41.99966797 -78.09248047 41.99966797 -79.20703125 43.01953125 C-92.96628342 55.91034935 -102.63727792 74.79602161 -107.96484375 92.703125 C-109.08688288 96.27671377 -110.47697222 99.58078093 -112 103 C-112.99 102.67 -113.98 102.34 -115 102 C-110.81162713 71.95925664 -91.12462545 44.7155302 -68 26 C-49.33811758 12.53196679 -23.64517095 -0.7985236 0 0 Z " fill="#2C2E3E" transform="translate(412,298)"/>
<path d="M0 0 C-0.94034283 2.30511117 -1.55036594 3.71196571 -3.67730713 5.07447815 C-4.68830475 5.48149208 -4.68830475 5.48149208 -5.71972656 5.89672852 C-6.49388412 6.21624985 -7.26804169 6.53577118 -8.06565857 6.86497498 C-9.34026695 7.36687096 -9.34026695 7.36687096 -10.640625 7.87890625 C-11.53326553 8.24311172 -12.42590607 8.6073172 -13.34559631 8.9825592 C-16.30882043 10.18839638 -19.27931703 11.37517106 -22.25 12.5625 C-24.33416094 13.40725333 -26.41773036 14.25346735 -28.50073242 15.10107422 C-32.83788546 16.86459008 -37.17753715 18.62174048 -41.51904297 20.37451172 C-50.52161866 24.01449327 -59.49294759 27.72958917 -68.46429443 31.44570923 C-72.26244991 33.01832384 -76.06212241 34.5872551 -79.86175537 36.15629578 C-92.12042102 41.21893826 -104.37363774 46.29471305 -116.625 51.375 C-117.4770401 51.72830383 -118.3290802 52.08160767 -119.2069397 52.44561768 C-120.84886937 53.12652479 -122.49071284 53.80763982 -124.13246155 54.48898315 C-125.66804855 55.12569654 -127.20411367 55.76125835 -128.7407074 56.39553833 C-132.07376354 57.77323485 -135.39721566 59.16521037 -138.69824219 60.61816406 C-139.77493164 61.08706055 -140.85162109 61.55595703 -141.9609375 62.0390625 C-143.33064697 62.64935303 -143.33064697 62.64935303 -144.72802734 63.27197266 C-147 64 -147 64 -150 63 C-150 62.01 -150 61.02 -150 60 C-124.93300538 49.39234367 -99.80546689 38.93793044 -74.64038086 28.56532288 C-65.29656786 24.71269545 -55.96118015 20.83987236 -46.62667847 16.9647522 C-44.04142057 15.8921845 -41.45553397 14.82114906 -38.86938477 13.75073242 C-37.23322521 13.07343024 -35.59707586 12.39610339 -33.9609375 11.71875 C-33.18147263 11.39606644 -32.40200775 11.07338287 -31.59892273 10.74092102 C-26.94669036 8.81292609 -22.30288727 6.86628019 -17.6640625 4.90625 C-16.61863281 4.46812988 -15.57320312 4.03000977 -14.49609375 3.57861328 C-12.65949819 2.80867994 -10.8258406 2.03167613 -8.99609375 1.24560547 C-3.33860199 -1.11286733 -3.33860199 -1.11286733 0 0 Z " fill="#2C2E3E" transform="translate(257,496)"/>
<path d="M0 0 C5.5155919 0.61759523 10.14326691 2.52021583 15.20703125 4.65625 C16.10768311 5.03016876 17.00833496 5.40408752 17.9362793 5.78933716 C20.89751229 7.02033172 23.85495849 8.26016581 26.8125 9.5 C28.89061151 10.36569032 30.9689843 11.23075368 33.04760742 12.09521484 C37.30647769 13.86733908 41.5639576 15.64274141 45.8203125 17.42089844 C51.44928028 19.77168923 57.08270896 22.11153724 62.71875 24.4453125 C63.5629097 24.7948851 64.4070694 25.1444577 65.27680969 25.50462341 C66.95679126 26.20025477 68.63678885 26.89584743 70.31680298 27.59140015 C74.48664519 29.31835188 78.65546632 31.04776335 82.82421875 32.77734375 C83.64899216 33.11951431 84.47376556 33.46168488 85.3235321 33.81422424 C90.65963791 36.02825298 95.99510666 38.24381232 101.33030701 40.46002197 C105.03691659 41.99955731 108.74382839 43.53836414 112.45077515 45.0770874 C114.19899523 45.80299704 115.9470687 46.52925989 117.69497681 47.25592041 C128.09995721 51.58158499 138.52480522 55.84685198 149 60 C149 61.32 149 62.64 149 64 C143.4844081 63.38240477 138.85673309 61.47978417 133.79296875 59.34375 C132.89231689 58.96983124 131.99166504 58.59591248 131.0637207 58.21066284 C128.10248771 56.97966828 125.14504151 55.73983419 122.1875 54.5 C120.10938849 53.63430968 118.0310157 52.76924632 115.95239258 51.90478516 C111.69352231 50.13266092 107.4360424 48.35725859 103.1796875 46.57910156 C97.55071976 44.22831079 91.91729591 41.88845095 86.28125 39.5546875 C85.43704498 39.2051149 84.59283997 38.8555423 83.72305298 38.49537659 C82.04302197 37.79975408 80.36297856 37.10416152 78.68292236 36.40859985 C74.51433659 34.68197846 70.34706829 32.95218348 66.1796875 31.22265625 C60.00216575 28.65916995 53.82361757 26.09818021 47.64390564 23.53997803 C43.92719671 22.00137016 40.21074233 20.4621479 36.49429321 18.9229126 C34.73951393 18.19633569 32.98461548 17.4700465 31.22958374 16.74407959 C27.26163473 15.10267243 23.29560594 13.45710901 19.33447266 11.79931641 C16.48626547 10.60895324 13.62767045 9.45269025 10.75537109 8.32177734 C9.46581335 7.80177507 8.17626218 7.28175652 6.88671875 6.76171875 C5.76869873 6.32174561 4.65067871 5.88177246 3.4987793 5.4284668 C1 4 1 4 0.13208008 1.82739258 C0.08849365 1.22435303 0.04490723 0.62131348 0 0 Z " fill="#2C2F3F" transform="translate(107,295)"/>
<path d="M0 0 C-1 3 -1 3 -4.2265625 4.63134766 C-5.68806259 5.23692194 -7.15469475 5.83019161 -8.625 6.4140625 C-9.42151978 6.74066864 -10.21803955 7.06727478 -11.03869629 7.40377808 C-13.68844152 8.48768666 -16.34416464 9.55611057 -19 10.625 C-20.86440798 11.38490166 -22.72833374 12.14598742 -24.59179688 12.90820312 C-28.46949304 14.49322324 -32.34923047 16.07308842 -36.23046875 17.64941406 C-44.16506842 20.87636787 -52.0739865 24.16476217 -59.98300171 27.45379639 C-64.21264706 29.21187078 -68.44434506 30.96499143 -72.67578125 32.71875 C-80.66558598 36.03123338 -88.65429158 39.34636133 -96.64268494 42.6622467 C-103.5192264 45.51622486 -110.39784519 48.36516507 -117.27723694 51.21226501 C-121.96296278 53.15258927 -126.64335735 55.10503868 -131.3203125 57.06640625 C-133.31767257 57.89852335 -135.31506464 58.73056363 -137.3125 59.5625 C-138.17125732 59.92666016 -139.03001465 60.29082031 -139.91479492 60.66601562 C-140.68154541 60.98376953 -141.4482959 61.30152344 -142.23828125 61.62890625 C-142.87805908 61.89775635 -143.51783691 62.16660645 -144.17700195 62.44360352 C-146 63 -146 63 -150 63 C-149.73686218 61.12428284 -149.73686218 61.12428284 -149 59 C-147.36701965 57.88755798 -147.36701965 57.88755798 -145.21020508 57.01147461 C-143.98880829 56.50216904 -143.98880829 56.50216904 -142.74273682 55.98257446 C-141.84407898 55.62609833 -140.94542114 55.26962219 -140.01953125 54.90234375 C-139.08099304 54.51589691 -138.14245483 54.12945007 -137.17547607 53.73129272 C-134.06012582 52.4523879 -130.93647996 51.19516099 -127.8125 49.9375 C-125.62886172 49.04536578 -123.445845 48.1517088 -121.26342773 47.2565918 C-116.7430719 45.40481183 -112.2195657 43.56106518 -107.69335938 41.72363281 C-101.45791106 39.19018744 -95.23419957 36.62923851 -89.015625 34.0546875 C-88.0603038 33.65917694 -87.1049826 33.26366638 -86.12071228 32.85617065 C-84.21356202 32.06642311 -82.30645209 31.27657817 -80.39938354 30.4866333 C-75.68077911 28.53369075 -70.95933902 26.58762731 -66.23828125 24.640625 C-58.60734864 21.49237826 -50.97995319 18.33570566 -43.35546875 15.171875 C-42.4138942 14.78118332 -41.47231964 14.39049164 -40.50221252 13.98796082 C-35.22652821 11.7985557 -29.95152843 9.60750892 -24.67689514 7.41557312 C-22.42333305 6.48089438 -20.16790957 5.55084338 -17.91210938 4.62158203 C-15.52766531 3.63847526 -13.15776397 2.63488581 -10.79101562 1.60888672 C-9.90607422 1.23135254 -9.02113281 0.85381836 -8.109375 0.46484375 C-7.39233398 0.15023193 -6.67529297 -0.16437988 -5.93652344 -0.48852539 C-3.61802482 -1.10088729 -2.24483166 -0.76179652 0 0 Z " fill="#2C2E3F" transform="translate(741,296)"/>
<path d="M0 0 C0.99 0.33 1.98 0.66 3 1 C0.28890434 9.64829797 -3.14357291 17.98960046 -6.5625 26.375 C-7.0499469 27.57432663 -7.0499469 27.57432663 -7.54724121 28.79788208 C-13.59327599 43.67136868 -19.77882849 58.48530648 -25.99731445 73.28735352 C-32.60919096 89.03048685 -39.13313503 104.80921001 -45.63183594 120.59936523 C-49.68137688 130.43210761 -53.76972155 140.24343213 -58 150 C-59.32 149.67 -60.64 149.34 -62 149 C-60.1039201 143.08353145 -57.99073994 137.32112547 -55.5859375 131.59375 C-55.25933136 130.8085498 -54.93272522 130.02334961 -54.59622192 129.21435547 C-53.52537672 126.64168641 -52.45016686 124.07086557 -51.375 121.5 C-50.61359702 119.67266571 -49.85253568 117.84518902 -49.09179688 116.01757812 C-47.51271352 112.22470854 -45.93216902 108.43245287 -44.35058594 104.640625 C-41.07029759 96.77305577 -37.80790654 88.89807913 -34.54537964 81.02313232 C-32.7952442 76.79899869 -31.04415302 72.57526141 -29.29296875 68.3515625 C-28.77033195 67.09093491 -28.77033195 67.09093491 -28.23713684 65.80484009 C-26.00358443 60.41813332 -23.76790618 55.03231298 -21.53091431 49.64703369 C-19.99375183 45.94628922 -18.45730003 42.24524987 -16.92089844 38.54418945 C-16.19582825 36.79811184 -15.4704188 35.05217506 -14.74462891 33.30639648 C-13.7312054 30.86869567 -12.7188784 28.43054301 -11.70703125 25.9921875 C-11.3895694 25.22827698 -11.07210754 24.46436646 -10.74502563 23.67730713 C-9.21542152 19.98461692 -7.71008426 16.28483008 -6.25146484 12.56347656 C-5.97791672 11.86739288 -5.70436859 11.1713092 -5.42253113 10.45413208 C-4.68772554 8.57570422 -3.9601673 6.69444584 -3.2331543 4.81298828 C-2 2 -2 2 0 0 Z " fill="#2C2E3F" transform="translate(353,594)"/>
<path d="M0 0 C6.45667386 2.04600051 12.69789805 4.44092068 18.9375 7.0703125 C19.87816315 7.46355209 20.81882629 7.85679169 21.78799438 8.26194763 C23.80759982 9.10665655 25.8265957 9.95282409 27.84503174 10.80032349 C31.05872645 12.14965747 34.27400236 13.49515674 37.48974609 14.83959961 C40.79614985 16.22198234 44.10246415 17.60457397 47.40829468 18.98832703 C56.6532991 22.85802039 65.90676573 26.70698293 75.16564941 30.54333496 C77.62471598 31.5623823 80.08338042 32.58239502 82.54199219 33.60253906 C90.8120156 37.03234473 99.08712766 40.44939609 107.36959839 43.8490448 C111.62691867 45.59669478 115.8831223 47.34705634 120.13934326 49.09738159 C122.19638173 49.9422547 124.25403059 50.78564337 126.31231689 51.62747192 C129.17322674 52.79757238 132.03209998 53.97252546 134.890625 55.1484375 C135.74073151 55.49453568 136.59083801 55.84063385 137.46670532 56.19721985 C141.52010951 57.87002748 145.3112102 59.59398359 149 62 C148.67 62.99 148.34 63.98 148 65 C143.75777226 64.33070191 140.00551591 62.89159838 136.078125 61.21875 C135.39869843 60.93388733 134.71927185 60.64902466 134.01925659 60.35552979 C132.54097319 59.73510914 131.06357843 59.11256784 129.5869751 58.48815918 C127.1975784 57.47783421 124.80591851 56.47305055 122.41357422 55.46972656 C119.8746229 54.40484565 117.3358208 53.33962283 114.79769897 52.27276611 C106.42382511 48.75317115 98.03530276 45.26934582 89.64331055 41.79321289 C87.1063665 40.74228105 84.56975749 39.69054389 82.03320312 38.63867188 C72.66417956 34.75454283 63.29086466 30.88093706 53.9140625 27.015625 C51.8657204 26.1709039 49.81738055 25.32617736 47.76904297 24.48144531 C43.88594765 22.88014479 40.00206272 21.28078153 36.11767578 19.68261719 C23.69698621 14.5655102 11.3328589 9.32526084 -1 4 C-0.67 2.68 -0.34 1.36 0 0 Z " fill="#2C2E3F" transform="translate(592,495)"/>
<path d="M0 0 C3 1 3 1 4.00463867 2.60595703 C4.3060376 3.31606934 4.60743652 4.02618164 4.91796875 4.7578125 C5.27656982 5.59014404 5.6351709 6.42247559 6.00463867 7.2800293 C6.39498291 8.21886963 6.78532715 9.15770996 7.1875 10.125 C7.61329346 11.12635986 8.03908691 12.12771973 8.4777832 13.15942383 C10.00228066 16.76595381 11.50504764 20.38115626 13 24 C13.28955566 24.70086731 13.57911133 25.40173462 13.87744141 26.12384033 C17.20486183 34.18552773 20.51190841 42.25551198 23.81085205 50.32888794 C27.97904519 60.52808944 32.19143531 70.70799064 36.4375 80.875 C37.66026279 83.80334095 38.88295255 86.73171235 40.10546875 89.66015625 C40.56789223 90.76777313 40.56789223 90.76777313 41.03965759 91.89776611 C45.86764085 103.46836957 50.6590949 115.05418826 55.45483398 126.63818359 C56.14176313 128.29654998 56.82869341 129.95491588 57.515625 131.61328125 C57.82434036 132.35960312 58.13305573 133.10592499 58.4511261 133.87486267 C58.74343613 134.58042801 59.03574615 135.28599335 59.33691406 136.01293945 C59.75173035 137.01715439 59.75173035 137.01715439 60.17492676 138.04165649 C60.72927506 139.35742379 61.29883262 140.66687696 61.88269043 141.96981812 C63.16664731 144.84014021 64 146.81461484 64 150 C62.68 150 61.36 150 60 150 C50.21681417 127.49598571 40.86385095 104.8182165 31.52294922 82.12792969 C27.75885718 72.98445273 23.98998204 63.84295294 20.21792603 54.70275879 C19.01340576 51.78250113 17.81069936 48.86150118 16.6081543 45.94042969 C13.23706696 37.76119287 9.85072644 29.59188483 6.328125 21.4765625 C6.05730103 20.84991699 5.78647705 20.22327148 5.50744629 19.57763672 C4.30463719 16.79596529 3.0914548 14.02004971 1.85546875 11.25292969 C1.45457031 10.33157227 1.05367188 9.41021484 0.640625 8.4609375 C0.29547852 7.68540527 -0.04966797 6.90987305 -0.40527344 6.11083984 C-1.09094564 3.67721018 -0.82558377 2.3583329 0 0 Z " fill="#2C2F3E" transform="translate(292,110)"/>
<path d="M0 0 C32.82991599 0.72081652 63.33249194 19.06051324 85.4921875 42.15625 C98.97929074 56.66631265 114.14621126 79.69954391 115.1484375 100.0078125 C115.07496094 100.99394531 115.07496094 100.99394531 115 102 C113.68 102 112.36 102 111 102 C110.74347656 100.99324219 110.48695313 99.98648438 110.22265625 98.94921875 C101.47231407 66.21324705 81.44850617 38.13894965 52 21 C35.51054866 11.90026574 18.41325745 7.34045821 0 4 C0 2.68 0 1.36 0 0 Z " fill="#2C2E3F" transform="translate(435,298)"/>
<path d="M0 0 C0.99 0.33 1.98 0.66 3 1 C2.40451304 5.67608812 1.06685085 9.71615474 -0.78125 14.01953125 C-1.06620331 14.69776947 -1.35115662 15.37600769 -1.64474487 16.07479858 C-2.26445297 17.54767655 -2.88711241 19.01931549 -3.51239014 20.48983765 C-4.52258496 22.86561534 -5.52519941 25.24446752 -6.52587891 27.62426758 C-7.58884303 30.15180253 -8.65234098 32.67910074 -9.71817017 35.20542908 C-13.28859987 43.66882276 -16.80819701 52.15296732 -20.32077026 60.64050293 C-21.73811526 64.0647789 -23.15725642 67.48830936 -24.57633972 70.91186523 C-25.65507858 73.51441049 -26.73358045 76.11705384 -27.81201172 78.71972656 C-29.66647653 83.1951891 -31.52111132 87.67058114 -33.37602234 92.14585876 C-34.12565007 93.9545409 -34.87517261 95.76326663 -35.62458801 97.57203674 C-37.44275968 101.95968308 -39.26301593 106.34643965 -41.08813477 110.73120117 C-44.15133607 118.09459296 -47.19845213 125.46153312 -50.1484375 132.87109375 C-50.60742432 134.0118335 -51.06641113 135.15257324 -51.53930664 136.32788086 C-52.35861638 138.36916396 -53.16608715 140.41525978 -53.95874023 142.46704102 C-54.48383179 143.76726196 -54.48383179 143.76726196 -55.01953125 145.09375 C-55.30932861 145.83302734 -55.59912598 146.57230469 -55.89770508 147.33398438 C-57 149 -57 149 -59.1237793 149.74414062 C-59.74293213 149.82857422 -60.36208496 149.91300781 -61 150 C-60.39243191 145.10005828 -58.90009546 140.84464879 -57 136.32421875 C-56.69289597 135.57948303 -56.38579193 134.83474731 -56.06938171 134.06744385 C-55.05220555 131.60495175 -54.02612563 129.14627475 -53 126.6875 C-52.27523599 124.93781388 -51.55104433 123.18789057 -50.82739258 121.43774414 C-48.93240337 116.85880316 -47.0300738 112.28294871 -45.1260376 107.70776367 C-43.35442539 103.44759759 -41.5893428 99.18473246 -39.82421875 94.921875 C-37.39507802 89.05699607 -34.9638114 83.19300748 -32.52978516 77.33015442 C-27.29725898 64.72599142 -22.08398828 52.11390631 -16.875 39.5 C-16.28119034 38.06223709 -16.28119034 38.06223709 -15.67538452 36.59542847 C-14.90397888 34.72759112 -14.13266053 32.85971772 -13.36143494 30.99180603 C-12.62461582 29.20740213 -11.88753173 27.42310761 -11.15016174 25.63893127 C-9.40006903 21.40221571 -7.6565758 17.1630067 -5.92675781 12.91796875 C-5.6022464 12.1235437 -5.27773499 11.32911865 -4.94338989 10.51062012 C-4.33504114 9.02035716 -3.72870802 7.52926925 -3.12472534 6.03723145 C-1.11180273 1.11180273 -1.11180273 1.11180273 0 0 Z " fill="#2C2E3E" transform="translate(553,110)"/>
<path d="M0 0 C0.66 0 1.32 0 2 0 C10.83331701 19.84657857 19.03915928 39.95188267 27.30787659 60.03808594 C31.09123179 69.22708588 34.89100055 78.40922276 38.69824219 87.58834839 C39.7424462 90.10678158 40.78539358 92.62573218 41.828125 95.14477539 C44.96313572 102.71363998 48.11044925 110.27680621 51.29855347 117.82348633 C52.71881034 121.185627 54.13445804 124.54970126 55.5501709 127.91375732 C56.53897825 130.25676453 57.53547428 132.59639942 58.53222656 134.93603516 C59.127347 136.34911804 59.72209536 137.7623577 60.31640625 139.17578125 C60.59047806 139.81227097 60.86454987 140.44876068 61.14692688 141.10453796 C62.51280993 144.37745451 63 146.36897992 63 150 C61.15551758 149.80761719 61.15551758 149.80761719 59 149 C57.68237305 146.90332031 57.68237305 146.90332031 56.51171875 144.078125 C56.06103027 143.01005615 55.6103418 141.9419873 55.14599609 140.84155273 C54.66469238 139.65634033 54.18338867 138.47112793 53.6875 137.25 C53.16343477 135.99048241 52.63817576 134.73146098 52.11181641 133.47290039 C50.38438263 129.32476097 48.69019235 125.16342567 47 121 C46.42236389 119.57991512 45.84472717 118.15983048 45.26708984 116.73974609 C42.83371279 110.75135626 40.40764842 104.76003971 37.9909668 98.76489258 C33.45813534 87.53031545 28.83037824 76.33792941 24.14450073 65.16635132 C23.00651026 62.45302251 21.87042675 59.73890139 20.73461914 57.0246582 C17.38182483 49.01924701 14.01576544 41.02020562 10.59793091 33.04231262 C9.16632909 29.69686221 7.74427944 26.34739766 6.32348633 22.99734497 C5.65550803 21.42989059 4.98273826 19.8644685 4.30493164 18.30123901 C3.37503042 16.1561842 2.46127373 14.00491171 1.55078125 11.8515625 C1.03169189 10.64322754 0.51260254 9.43489258 -0.0222168 8.18994141 C-1.0342816 4.88815897 -1.03367147 3.24758834 0 0 Z " fill="#2C2E3E" transform="translate(493,594)"/>
<path d="M0 0 C1.32 0.33 2.64 0.66 4 1 C4.2475 2.216875 4.495 3.43375 4.75 4.6875 C5.80636109 8.70734388 6.79324113 11.18430928 10 14 C13.59450432 15.58199685 17.24930215 16.84245704 21 18 C20.67 19.32 20.34 20.64 20 22 C18.783125 22.2475 17.56625 22.495 16.3125 22.75 C11.70911604 23.90695668 8.47235952 25.75271442 5.8125 29.8125 C4.69237663 32.82821677 3.83595188 35.89503586 3 39 C2.01 39 1.02 39 0 39 C-0.14695312 38.33613281 -0.29390625 37.67226563 -0.4453125 36.98828125 C-1.99965381 30.86917896 -3.38888451 27.42901502 -9 24 C-11.95598716 22.81180908 -14.92784343 21.8397228 -18 21 C-18 20.01 -18 19.02 -18 18 C-17.32453125 17.80664062 -16.6490625 17.61328125 -15.953125 17.4140625 C-14.61507813 17.02347656 -14.61507813 17.02347656 -13.25 16.625 C-12.36828125 16.36976563 -11.4865625 16.11453125 -10.578125 15.8515625 C-5.88342506 14.43039685 -5.88342506 14.43039685 -2.875 10.875 C-1.7792912 7.27481395 -0.86892482 3.66189747 0 0 Z " fill="#292C3D" transform="translate(422,374)"/>
<path d="M0 0 C5.40225572 0.32028701 7.94695134 3.37374205 11.55029297 7.0168457 C12.18661148 7.64454865 12.82292999 8.27225159 13.47853088 8.91897583 C15.57672122 10.99448166 17.65985096 13.08437829 19.7421875 15.17578125 C21.19424003 16.62260059 22.64681279 18.06889799 24.09988403 19.51469421 C27.14100475 22.545407 30.17451776 25.58349318 33.203125 28.62670898 C37.09214607 32.53294667 41.00118756 36.41842888 44.91634941 40.29844379 C47.91908903 43.27926932 50.91009943 46.2716464 53.89773941 49.26759911 C55.33489788 50.70557982 56.77593137 52.13969822 58.22082138 53.56991005 C60.23477715 55.56652531 62.23221494 57.5783141 64.22607422 59.5949707 C64.82961227 60.18681656 65.43315033 60.77866241 66.05497742 61.38844299 C67.68624878 63.05805969 67.68624878 63.05805969 70 66 C69.64460945 68.18387127 69.64460945 68.18387127 69 70 C64.68120604 68.33628409 61.77762363 65.06563513 58.57910156 61.85375977 C57.94453537 61.2243045 57.30996918 60.59484924 56.65617371 59.94631958 C54.5624616 57.86649606 52.47625052 55.77933669 50.390625 53.69140625 C48.93924669 52.2439141 47.48764449 50.79664641 46.03582764 49.34959412 C42.99621239 46.31743865 39.96050012 43.28143837 36.92724609 40.24291992 C33.03261024 36.34247742 29.12670271 32.45354327 25.21759415 28.56761265 C22.21847958 25.58319787 19.2262864 22.59191928 16.23607635 19.59858513 C14.79825113 18.1612746 13.35804904 16.72633783 11.91547394 15.29379463 C9.90420244 13.2948027 7.90263275 11.28657774 5.90332031 9.27563477 C5.30180649 8.68176468 4.70029266 8.08789459 4.08055115 7.47602844 C0 3.34258471 0 3.34258471 0 0 Z " fill="#2C2E3C" transform="translate(551,555)"/>
<path d="M0 0 C4.68161341 0.87649497 7.16838512 3.73965889 10.42089844 7.0168457 C11.05546463 7.64454865 11.69003082 8.27225159 12.34382629 8.91897583 C14.44009667 10.99693775 16.52508399 13.08580841 18.609375 15.17578125 C20.06060696 16.62245399 21.51221115 18.0687534 22.96417236 19.51469421 C26.00543008 22.54701329 29.04093269 25.58495603 32.07275391 28.62670898 C35.96398629 32.52944275 39.87086235 36.41608058 43.78240585 40.29844379 C46.78335847 43.28107832 49.77497756 46.27293706 52.76392365 49.26759911 C54.20100226 50.70483141 55.64120314 52.13894863 57.08452606 53.56991005 C59.09828811 55.56884438 61.09894484 57.58003625 63.09667969 59.5949707 C63.69819351 60.18681656 64.29970734 60.77866241 64.91944885 61.38844299 C69 65.54315008 69 65.54315008 69 70 C64.25926042 69.12187537 61.75828157 66.15738808 58.48730469 62.82788086 C57.84298492 62.18399918 57.19866516 61.54011749 56.53482056 60.87672424 C54.40665093 58.74646442 52.2893045 56.60577495 50.171875 54.46484375 C48.69851042 52.98588406 47.22448214 51.50758529 45.74981689 50.02992249 C41.86996421 46.13861441 37.99920469 42.23838132 34.13024902 38.33624268 C30.18081054 34.35611852 26.22286791 30.38447135 22.265625 26.41210938 C14.50205388 18.61636182 6.74805948 10.81116235 -1 3 C-0.67 2.01 -0.34 1.02 0 0 Z " fill="#2C2E3C" transform="translate(227,230)"/>
<path d="M0 0 C31.68 0 63.36 0 96 0 C96.495 1.98 96.495 1.98 97 4 C64.66 4 32.32 4 -1 4 C-0.67 2.68 -0.34 1.36 0 0 Z " fill="#2F3141" transform="translate(146,425)"/>
<path d="M0 0 C0.99 0.33 1.98 0.66 3 1 C3 32.68 3 64.36 3 97 C1.68 97 0.36 97 -1 97 C-1.02312143 84.500429 -1.04091406 72.00086305 -1.05181217 59.50127506 C-1.05704144 53.69786387 -1.06413987 47.89446725 -1.07543945 42.09106445 C-1.08626678 36.49549147 -1.0922765 30.89993255 -1.09487724 25.3043499 C-1.09673177 23.16441056 -1.10035291 21.02447204 -1.10573006 18.88453865 C-1.11293844 15.89835034 -1.11399103 12.91222093 -1.11352539 9.92602539 C-1.11712067 9.03194977 -1.12071594 8.13787415 -1.12442017 7.21670532 C-1.11405216 1.11405216 -1.11405216 1.11405216 0 0 Z " fill="#2F3141" transform="translate(423,608)"/>
<path d="M0 0 C1.32708733 0.00539291 1.32708733 0.00539291 2.6809845 0.01089478 C4.07108734 0.01067574 4.07108734 0.01067574 5.48927307 0.01045227 C8.56809285 0.01115178 11.64685295 0.01894595 14.72566223 0.02676392 C16.85415616 0.02862796 18.98265051 0.03005193 21.11114502 0.03105164 C26.72537919 0.03487789 32.33958766 0.04470909 37.95381165 0.05575562 C43.67788851 0.06596743 49.40196951 0.07054876 55.12605286 0.07559204 C66.36629855 0.08633126 77.60652513 0.10340896 88.84675598 0.12442017 C89.34175598 2.10442017 89.34175598 2.10442017 89.84675598 4.12442017 C57.83675598 4.12442017 25.82675598 4.12442017 -7.15324402 4.12442017 C-7.15324402 -1.22094801 -4.69519554 0.00806065 0 0 Z " fill="#2F3141" transform="translate(612.1532440185547,424.8755798339844)"/>
<path d="M0 0 C1.32 0.33 2.64 0.66 4 1 C4 32.68 4 64.36 4 97 C2.68 97 1.36 97 0 97 C0 64.99 0 32.98 0 0 Z " fill="#2F3141" transform="translate(422,149)"/>
<path d="M0 0 C-0.87812463 4.74073958 -3.84261192 7.24171843 -7.17211914 10.51269531 C-7.81600082 11.15701508 -8.45988251 11.80133484 -9.12327576 12.46517944 C-11.25353558 14.59334907 -13.39422505 16.7106955 -15.53515625 18.828125 C-17.01411594 20.30148958 -18.49241471 21.77551786 -19.97007751 23.25018311 C-23.86138559 27.13003579 -27.76161868 31.00079531 -31.66375732 34.86975098 C-35.64388148 38.81918946 -39.61552865 42.77713209 -43.58789062 46.734375 C-51.38363818 54.49794612 -59.18883765 62.25194052 -67 70 C-67.99 69.67 -68.98 69.34 -70 69 C-68.33628409 64.68120604 -65.06563513 61.77762363 -61.85375977 58.57910156 C-61.2243045 57.94453537 -60.59484924 57.30996918 -59.94631958 56.65617371 C-57.86649606 54.5624616 -55.77933669 52.47625052 -53.69140625 50.390625 C-52.2439141 48.93924669 -50.79664641 47.48764449 -49.34959412 46.03582764 C-46.31743865 42.99621239 -43.28143837 39.96050012 -40.24291992 36.92724609 C-36.34247742 33.03261024 -32.45354327 29.12670271 -28.56761265 25.21759415 C-25.58319787 22.21847958 -22.59191928 19.2262864 -19.59858513 16.23607635 C-18.1612746 14.79825113 -16.72633783 13.35804904 -15.29379463 11.91547394 C-13.2948027 9.90420244 -11.28657774 7.90263275 -9.27563477 5.90332031 C-8.38482964 5.00104958 -8.38482964 5.00104958 -7.47602844 4.08055115 C-3.34258471 0 -3.34258471 0 0 0 Z " fill="#25283C" transform="translate(296,555)"/>
<path d="M0 0 C-0.87812463 4.74073958 -3.84261192 7.24171843 -7.17211914 10.51269531 C-7.81600082 11.15701508 -8.45988251 11.80133484 -9.12327576 12.46517944 C-11.25353558 14.59334907 -13.39422505 16.7106955 -15.53515625 18.828125 C-17.01411594 20.30148958 -18.49241471 21.77551786 -19.97007751 23.25018311 C-23.86138559 27.13003579 -27.76161868 31.00079531 -31.66375732 34.86975098 C-35.64388148 38.81918946 -39.61552865 42.77713209 -43.58789062 46.734375 C-51.38363818 54.49794612 -59.18883765 62.25194052 -67 70 C-67.99 69.67 -68.98 69.34 -70 69 C-68.33628409 64.68120604 -65.06563513 61.77762363 -61.85375977 58.57910156 C-61.2243045 57.94453537 -60.59484924 57.30996918 -59.94631958 56.65617371 C-57.86649606 54.5624616 -55.77933669 52.47625052 -53.69140625 50.390625 C-52.2439141 48.93924669 -50.79664641 47.48764449 -49.34959412 46.03582764 C-46.31743865 42.99621239 -43.28143837 39.96050012 -40.24291992 36.92724609 C-36.34247742 33.03261024 -32.45354327 29.12670271 -28.56761265 25.21759415 C-25.58319787 22.21847958 -22.59191928 19.2262864 -19.59858513 16.23607635 C-18.1612746 14.79825113 -16.72633783 13.35804904 -15.29379463 11.91547394 C-13.2948027 9.90420244 -11.28657774 7.90263275 -9.27563477 5.90332031 C-8.38482964 5.00104958 -8.38482964 5.00104958 -7.47602844 4.08055115 C-3.34258471 0 -3.34258471 0 0 0 Z " fill="#25283C" transform="translate(621,230)"/>
<path d="M0 0 C0.680625 0.70125 1.36125 1.4025 2.0625 2.125 C4.72871619 4.79883395 7.5596584 7.23971294 10.44921875 9.66796875 C11.68048318 10.72555357 12.85228537 11.85228537 14 13 C13.39671875 13.43570312 12.7934375 13.87140625 12.171875 14.3203125 C7.45218947 17.83723946 3.88845042 20.85102316 1 26 C-1.00093556 24.10437684 -2.65454221 22.17320983 -4.375 20 C-6.81858403 17.20733254 -8.83206565 15.8102482 -12 14 C-12 13.34 -12 12.68 -12 12 C-10.390625 10.703125 -10.390625 10.703125 -8.25 9.25 C-4.46571046 6.52584831 -2.30167638 4.02793366 0 0 Z " fill="#D1CEC9" transform="translate(423,441)"/>
<path d="M0 0 C1.8125 0.0625 1.8125 0.0625 4 1 C5.625 4.4375 5.625 4.4375 7 8 C9.5654594 10.5654594 11.47686668 10.54046087 15 11 C15.33 11.99 15.66 12.98 16 14 C14 16 14 16 10.0625 16.5625 C7.88798846 16.93623369 7.88798846 16.93623369 6 18 C4.39109881 20.87492179 3.63586486 23.78093412 3 27 C2.01 27 1.02 27 0 27 C-0.391875 25.741875 -0.78375 24.48375 -1.1875 23.1875 C-2.32233458 20.1577058 -2.83176781 19.13372302 -5.4375 17.0625 C-7.63588241 16.15097559 -9.66321711 15.43273757 -12 15 C-11.67 13.68 -11.34 12.36 -11 11 C-9.906875 10.773125 -8.81375 10.54625 -7.6875 10.3125 C-3.92910401 9.34290903 -3.92910401 9.34290903 -2.125 6.625 C-1.17052877 4.39790045 -0.44019778 2.37706802 0 0 Z " fill="#2C2E3F" transform="translate(422,332)"/>
<path d="M0 0 C3.50460719 0.5839804 5.16929135 1.79083458 7.66699219 4.27880859 C8.36741638 4.96977631 9.06784058 5.66074402 9.78948975 6.37265015 C10.53442688 7.12365997 11.27936401 7.8746698 12.046875 8.6484375 C13.20367767 9.80093491 13.20367767 9.80093491 14.3838501 10.97671509 C16.01138312 12.60220705 17.63513539 14.23149203 19.25537109 15.86425781 C21.74381098 18.36877101 24.24785082 20.85687733 26.75390625 23.34375 C28.33169219 24.92351793 29.9085475 26.504216 31.484375 28.0859375 C32.23740906 28.83289886 32.99044312 29.57986023 33.76629639 30.34945679 C34.45411194 31.04672882 35.14192749 31.74400085 35.85058594 32.46240234 C36.46029236 33.07449554 37.06999878 33.68658875 37.69818115 34.31723022 C39 36 39 36 39 39 C34.98512111 38.48193976 33.05078173 37.54606583 30.21948242 34.67358398 C29.51913376 33.9729332 28.8187851 33.27228241 28.09721375 32.55039978 C27.3574379 31.78997879 26.61766205 31.0295578 25.85546875 30.24609375 C25.08568192 29.47064713 24.31589508 28.6952005 23.52278137 27.89625549 C21.06813879 25.41923636 18.62777391 22.92866797 16.1875 20.4375 C14.52501077 18.75494764 12.86160982 17.07329561 11.19726562 15.39257812 C7.12087647 11.27210448 3.05612105 7.14042147 -1 3 C-0.67 2.01 -0.34 1.02 0 0 Z " fill="#2C2E3C" transform="translate(632,635)"/>
<path d="M0 0 C3.06268033 1.370801 5.20199357 2.93809422 7.59106445 5.28466797 C8.27469559 5.95231171 8.95832672 6.61995544 9.66267395 7.30783081 C10.38887436 8.02866852 11.11507477 8.74950623 11.86328125 9.4921875 C12.61465866 10.23453644 13.36603607 10.97688538 14.1401825 11.74172974 C15.72386227 13.31091757 17.30475839 14.88291904 18.88305664 16.45751953 C21.30875685 18.87127528 23.75247863 21.26575443 26.19726562 23.66015625 C27.73291624 25.18634836 29.2674604 26.71365476 30.80078125 28.2421875 C31.53710281 28.95897675 32.27342438 29.67576599 33.03205872 30.41427612 C33.69992905 31.08822418 34.36779938 31.76217224 35.0559082 32.45654297 C35.65007034 33.04563446 36.24423248 33.63472595 36.85639954 34.2416687 C38 36 38 36 37.68400574 38.22146606 C37.45828384 38.80838226 37.23256195 39.39529846 37 40 C33.93731967 38.629199 31.79800643 37.06190578 29.40893555 34.71533203 C28.72530441 34.04768829 28.04167328 33.38004456 27.33732605 32.69216919 C26.61112564 31.97133148 25.88492523 31.25049377 25.13671875 30.5078125 C24.38534134 29.76546356 23.63396393 29.02311462 22.8598175 28.25827026 C21.27613773 26.68908243 19.69524161 25.11708096 18.11694336 23.54248047 C15.69124315 21.12872472 13.24752137 18.73424557 10.80273438 16.33984375 C9.26708376 14.81365164 7.7325396 13.28634524 6.19921875 11.7578125 C5.46289719 11.04102325 4.72657562 10.32423401 3.96794128 9.58572388 C3.30007095 8.91177582 2.63220062 8.23782776 1.9440918 7.54345703 C1.34992966 6.95436554 0.75576752 6.36527405 0.14360046 5.7583313 C-1 4 -1 4 -0.68400574 1.77853394 C-0.45828384 1.19161774 -0.23256195 0.60470154 0 0 Z " fill="#2C2E3C" transform="translate(178,180)"/>
<path d="M0 0 C17.16 0 34.32 0 52 0 C52.495 1.98 52.495 1.98 53 4 C35.18 4 17.36 4 -1 4 C-0.67 2.68 -0.34 1.36 0 0 Z " fill="#323444" transform="translate(719,425)"/>
<path d="M0 0 C17.16 0 34.32 0 52 0 C52.495 1.98 52.495 1.98 53 4 C35.18 4 17.36 4 -1 4 C-0.67 2.68 -0.34 1.36 0 0 Z " fill="#2F3141" transform="translate(76,425)"/>
<path d="M0 0 C1.32 0.33 2.64 0.66 4 1 C4 18.16 4 35.32 4 53 C2.02 53.495 2.02 53.495 0 54 C0 36.18 0 18.36 0 0 Z " fill="#25283D" transform="translate(422,79)"/>
<path d="M0 0 C1.32 0.33 2.64 0.66 4 1 C4 18.16 4 35.32 4 53 C2.68 53 1.36 53 0 53 C0 35.51 0 18.02 0 0 Z " fill="#25283D" transform="translate(422,722)"/>
<path d="M0 0 C6.04160871 1.9299514 11.91149026 4.10935832 17.75390625 6.57421875 C18.54022934 6.90291458 19.32655243 7.23161041 20.13670349 7.57026672 C22.61325185 8.60631281 25.08789611 9.64681935 27.5625 10.6875 C29.25573471 11.39678207 30.94909303 12.10576909 32.64257812 12.81445312 C36.76315368 14.53956616 40.88202954 16.26867816 45 18 C45 19.32 45 20.64 45 22 C40.05623705 21.27668936 35.65185431 19.40509888 31.05078125 17.54296875 C29.77003975 17.02661613 29.77003975 17.02661613 28.46342468 16.49983215 C26.66461075 15.77187427 24.86684426 15.04132342 23.07006836 14.30834961 C20.31676178 13.18923226 17.5561397 12.08966046 14.79492188 10.99023438 C13.04638908 10.27984069 11.29832527 9.56829133 9.55078125 8.85546875 C8.7237117 8.52927048 7.89664215 8.2030722 7.04450989 7.86698914 C6.27999008 7.55018692 5.51547028 7.2333847 4.7277832 6.90698242 C4.05447464 6.63464279 3.38116608 6.36230316 2.68745422 6.08171082 C0.55464838 4.71451571 -0.05703582 3.31226666 -1 1 C-0.67 0.67 -0.34 0.34 0 0 Z " fill="#2D303F" transform="translate(46,269)"/>
<path d="M0 0 C0.99 0.33 1.98 0.66 3 1 C3 1.99 3 2.98 3 4 C-8.36669011 9.01198639 -19.75166706 13.98383089 -31.25 18.6875 C-32.08821289 19.038125 -32.92642578 19.38875 -33.79003906 19.75 C-34.56573242 20.06324219 -35.34142578 20.37648438 -36.140625 20.69921875 C-36.81641602 20.97596436 -37.49220703 21.25270996 -38.18847656 21.5378418 C-40 22 -40 22 -43 21 C-43 20.01 -43 19.02 -43 18 C-42.4907901 17.78924332 -41.9815802 17.57848663 -41.4569397 17.36134338 C-36.16852107 15.17235466 -30.88052408 12.98234984 -25.59277344 10.79174805 C-23.61794714 9.97377747 -21.64301262 9.15606814 -19.66796875 8.33862305 C-16.83304976 7.16523414 -13.99851826 5.99091362 -11.1640625 4.81640625 C-10.27756012 4.44971329 -9.39105774 4.08302032 -8.47769165 3.70521545 C-7.65699188 3.3649382 -6.83629211 3.02466095 -5.99072266 2.67407227 C-5.26680328 2.3742897 -4.54288391 2.07450714 -3.79702759 1.76564026 C-2.51289843 1.21852513 -1.24846231 0.62423115 0 0 Z " fill="#2C2F3F" transform="translate(799,269)"/>
<path d="M0 0 C0.99 0.33 1.98 0.66 3 1 C2.38000593 6.47597249 0.51349307 11.0838356 -1.59765625 16.1171875 C-1.95137802 16.97434357 -2.30509979 17.83149963 -2.66954041 18.71463013 C-3.79465033 21.43723066 -4.92843104 24.15612077 -6.0625 26.875 C-6.82935218 28.72632396 -7.59563456 30.57788405 -8.36132812 32.4296875 C-10.23429769 36.95588619 -12.11504914 41.47877859 -14 46 C-15.32 46 -16.64 46 -18 46 C-17.38797312 40.5973543 -15.56476435 36.11496823 -13.4375 31.171875 C-13.0861499 30.34165833 -12.7347998 29.51144165 -12.37280273 28.65606689 C-11.25460976 26.01808254 -10.12737489 23.38407147 -9 20.75 C-8.24160506 18.96378885 -7.48378634 17.17733293 -6.7265625 15.390625 C-1.27626576 2.55253153 -1.27626576 2.55253153 0 0 Z " fill="#2C2F3E" transform="translate(284,759)"/>
<path d="M0 0 C5.80629318 0.56076391 10.59950112 2.2075488 15.9609375 4.45703125 C16.7921109 4.80126633 17.6232843 5.1455014 18.47964478 5.50016785 C20.22439048 6.22636369 21.96732057 6.95693564 23.70849609 7.69165039 C26.3808675 8.81496637 29.06282544 9.91277808 31.74609375 11.00976562 C33.44334888 11.71982501 35.13998674 12.43136205 36.8359375 13.14453125 C38.04206192 13.63382866 38.04206192 13.63382866 39.27255249 14.13301086 C41.50927734 15.09301758 41.50927734 15.09301758 45 17 C45.71817017 19.1191864 45.71817017 19.1191864 46 21 C40.19370682 20.43923609 35.40049888 18.7924512 30.0390625 16.54296875 C28.7923024 16.02661613 28.7923024 16.02661613 27.52035522 15.49983215 C25.77560952 14.77363631 24.03267943 14.04306436 22.29150391 13.30834961 C19.6191325 12.18503363 16.93717456 11.08722192 14.25390625 9.99023438 C12.55665112 9.28017499 10.86001326 8.56863795 9.1640625 7.85546875 C8.35997955 7.52927048 7.55589661 7.2030722 6.72744751 6.86698914 C4.49072266 5.90698242 4.49072266 5.90698242 1 4 C0.28182983 1.8808136 0.28182983 1.8808136 0 0 Z " fill="#2C2E3E" transform="translate(756,564)"/>
<path d="M0 0 C-3.4427251 4.07791631 -7.23467925 5.675664 -12.0546875 7.63671875 C-12.83385529 7.96162796 -13.61302307 8.28653717 -14.415802 8.62129211 C-16.05957021 9.30413764 -17.70536658 9.98211879 -19.35302734 10.65551758 C-21.86435002 11.68314206 -24.36797777 12.72795783 -26.87109375 13.77539062 C-28.47353058 14.43853458 -30.07638211 15.1006775 -31.6796875 15.76171875 C-32.79559769 16.22731453 -32.79559769 16.22731453 -33.93405151 16.70231628 C-37.95387601 18.33508921 -41.65557872 19.47865234 -46 20 C-46 18.68 -46 17.36 -46 16 C-40.26025586 13.54216361 -34.51207234 11.10496075 -28.75756836 8.68188477 C-26.80113758 7.85523073 -24.84668469 7.02387927 -22.89428711 6.18774414 C-20.08694557 4.98643323 -17.27291574 3.80221599 -14.45703125 2.62109375 C-13.58601273 2.24407822 -12.7149942 1.86706268 -11.81758118 1.47862244 C-4.30562161 -1.63821771 -4.30562161 -1.63821771 0 0 Z " fill="#2C2E3F" transform="translate(92,565)"/>
<path d="M0 0 C1.32 0.33 2.64 0.66 4 1 C2.0700486 7.04160871 -0.10935832 12.91149026 -2.57421875 18.75390625 C-2.90291458 19.54022934 -3.23161041 20.32655243 -3.57026672 21.13670349 C-4.60631281 23.61325185 -5.64681935 26.08789611 -6.6875 28.5625 C-7.39678207 30.25573471 -8.10576909 31.94909303 -8.81445312 33.64257812 C-10.53956616 37.76315368 -12.26867816 41.88202954 -14 46 C-15.32 45.67 -16.64 45.34 -18 45 C-15.20323372 35.95712237 -11.50022997 27.29600857 -7.875 18.5625 C-7.22239331 16.98253046 -6.57004739 15.40245318 -5.91796875 13.82226562 C-5.29711111 12.32021488 -4.6760257 10.81825827 -4.0546875 9.31640625 C-3.61719681 8.2586776 -3.61719681 8.2586776 -3.17086792 7.17958069 C-1.11852431 2.23704863 -1.11852431 2.23704863 0 0 Z " fill="#2C2F3E" transform="translate(578,49)"/>
<path d="M0 0 C1.87408447 0.26164246 1.87408447 0.26164246 4 1 C5.12640381 2.64985657 5.12640381 2.64985657 6.01464844 4.8137207 C6.3546991 5.62158524 6.69474976 6.42944977 7.04510498 7.26179504 C7.39631409 8.14091049 7.74752319 9.02002594 8.109375 9.92578125 C8.48104797 10.82491745 8.85272095 11.72405365 9.23565674 12.6504364 C10.01931751 14.55493183 10.79555472 16.46249617 11.56494141 18.37280273 C12.74368947 21.29684587 13.94588164 24.21034487 15.15234375 27.12304688 C15.91025956 28.97338329 16.66681558 30.8242774 17.421875 32.67578125 C17.78118103 33.54882401 18.14048706 34.42186676 18.51068115 35.32136536 C18.83812317 36.13868637 19.16556519 36.95600739 19.50292969 37.7980957 C19.79286804 38.51455765 20.0828064 39.23101959 20.38153076 39.9691925 C21 42 21 42 21 46 C19.11245728 45.7086792 19.11245728 45.7086792 17 45 C15.59440593 42.39173616 14.47568885 39.94504252 13.3984375 37.203125 C13.07589996 36.4173407 12.75336243 35.6315564 12.42105103 34.82196045 C11.3912463 32.3035781 10.38299014 29.77718214 9.375 27.25 C8.68889833 25.56193099 8.00141426 23.87442313 7.3125 22.1875 C5.7713267 18.40483706 4.23949754 14.61875318 2.73358154 10.82189941 C2.11279348 9.28013025 1.45602482 7.75292316 0.79150391 6.22949219 C0 4 0 4 0 0 Z " fill="#2C2E3E" transform="translate(266,49)"/>
<path d="M0 0 C3 1 3 1 4.79345703 4.49072266 C5.46006288 6.04348104 6.11397886 7.60172444 6.7578125 9.1640625 C7.1063327 9.98949554 7.45485291 10.81492859 7.81393433 11.66537476 C8.55035828 13.41678977 9.28134131 15.17050087 10.00732422 16.92626953 C11.11424744 19.59903695 12.24118174 22.26266404 13.37109375 24.92578125 C14.08455446 26.62969754 14.79683197 28.33410983 15.5078125 30.0390625 C15.84322052 30.83100006 16.17862854 31.62293762 16.52420044 32.43887329 C18.39680037 37.00339255 19.52885757 41.08362464 20 46 C19.01 46 18.02 46 17 46 C12.94247254 37.35506793 9.05022474 28.65845038 5.36547852 19.84887695 C4.82252177 18.55644511 4.2745268 17.26612013 3.72192383 15.9777832 C2.90907135 14.08207562 2.11116275 12.18069646 1.31640625 10.27734375 C0.84662354 9.16609131 0.37684082 8.05483887 -0.10717773 6.90991211 C-1.00105989 3.99654558 -1.11486517 2.77977553 0 0 Z " fill="#2C2F3F" transform="translate(561,759)"/>
<path d="M0 0 C0.99 0.33 1.98 0.66 3 1 C1.60919475 4.13738154 -0.01022204 6.25475281 -2.43994141 8.66699219 C-3.14051666 9.36741638 -3.84109192 10.06784058 -4.56289673 10.78948975 C-5.69578629 11.90689545 -5.69578629 11.90689545 -6.8515625 13.046875 C-7.62559418 13.81807678 -8.39962585 14.58927856 -9.19711304 15.3838501 C-11.66841923 17.84396856 -14.14659183 20.29703848 -16.625 22.75 C-18.30254052 24.41750894 -19.97962945 26.08547232 -21.65625 27.75390625 C-25.76560919 31.8412237 -29.88062647 35.92277696 -34 40 C-34.99 39.67 -35.98 39.34 -37 39 C-35.60919475 35.86261846 -33.98977796 33.74524719 -31.56005859 31.33300781 C-30.85948334 30.63258362 -30.15890808 29.93215942 -29.43710327 29.21051025 C-28.68184357 28.46557312 -27.92658386 27.72063599 -27.1484375 26.953125 C-26.37440582 26.18192322 -25.60037415 25.41072144 -24.80288696 24.6161499 C-22.33158077 22.15603144 -19.85340817 19.70296152 -17.375 17.25 C-15.69745948 15.58249106 -14.02037055 13.91452768 -12.34375 12.24609375 C-8.23439081 8.1587763 -4.11937353 4.07722304 0 0 Z " fill="#27293E" transform="translate(668,180)"/>
<path d="M0 0 C-0.5839804 3.50460719 -1.79083458 5.16929135 -4.27880859 7.66699219 C-4.96977631 8.36741638 -5.66074402 9.06784058 -6.37265015 9.78948975 C-7.12365997 10.53442688 -7.8746698 11.27936401 -8.6484375 12.046875 C-9.4167691 12.81807678 -10.18510071 13.58927856 -10.97671509 14.3838501 C-12.60220705 16.01138312 -14.23149203 17.63513539 -15.86425781 19.25537109 C-18.36877101 21.74381098 -20.85687733 24.24785082 -23.34375 26.75390625 C-24.92351793 28.33169219 -26.504216 29.9085475 -28.0859375 31.484375 C-28.83289886 32.23740906 -29.57986023 32.99044312 -30.34945679 33.76629639 C-31.04672882 34.45411194 -31.74400085 35.14192749 -32.46240234 35.85058594 C-33.07449554 36.46029236 -33.68658875 37.06999878 -34.31723022 37.69818115 C-36 39 -36 39 -39 39 C-38.4160196 35.49539281 -37.20916542 33.83070865 -34.72119141 31.33300781 C-33.68473984 30.28237152 -33.68473984 30.28237152 -32.62734985 29.21051025 C-31.50083511 28.09310455 -31.50083511 28.09310455 -30.3515625 26.953125 C-29.5832309 26.18192322 -28.81489929 25.41072144 -28.02328491 24.6161499 C-26.39779295 22.98861688 -24.76850797 21.36486461 -23.13574219 19.74462891 C-20.63122899 17.25618902 -18.14312267 14.75214918 -15.65625 12.24609375 C-14.07648207 10.66830781 -12.495784 9.0914525 -10.9140625 7.515625 C-10.16710114 6.76259094 -9.42013977 6.00955688 -8.65054321 5.23370361 C-7.95327118 4.54588806 -7.25599915 3.85807251 -6.53759766 3.14941406 C-5.92550446 2.53970764 -5.31341125 1.93000122 -4.68276978 1.30181885 C-3 0 -3 0 0 0 Z " fill="#25283D" transform="translate(216,635)"/>
<path d="M0 0 C0 1.32 0 2.64 0 4 C-3.87602877 4.86252919 -7.75379394 5.71672451 -11.63330078 6.56347656 C-13.59633166 6.99371672 -15.55794567 7.43040515 -17.51953125 7.8671875 C-18.76347656 8.13789063 -20.00742188 8.40859375 -21.2890625 8.6875 C-22.43068848 8.93886719 -23.57231445 9.19023437 -24.74853516 9.44921875 C-27.9036142 9.98367275 -30.80748223 10.10148401 -34 10 C-34 8.68 -34 7.36 -34 6 C-29.96284968 5.13906691 -25.92435337 4.28478715 -21.88452148 3.43652344 C-20.51174403 3.14731334 -19.13934098 2.85631989 -17.76733398 2.56347656 C-15.78986926 2.14173218 -13.8111261 1.72651837 -11.83203125 1.3125 C-10.64327393 1.06113281 -9.4545166 0.80976563 -8.22973633 0.55078125 C-5.39806906 0.06788448 -2.86142889 -0.11323049 0 0 Z " fill="#323544" transform="translate(246,461)"/>
<path d="M0 0 C0 0.99 0 1.98 0 3 C-11.25152342 6.01982304 -22.48538723 8.24082305 -34 10 C-34.33 8.68 -34.66 7.36 -35 6 C-9.85176056 -0.60316901 -9.85176056 -0.60316901 0 0 Z " fill="#323444" transform="translate(636,384)"/>
<path d="M0 0 C0.99 0.33 1.98 0.66 3 1 C1.57091424 4.97920991 -0.33566503 8.23626477 -2.6953125 11.73828125 C-3.76845703 13.33833008 -3.76845703 13.33833008 -4.86328125 14.97070312 C-5.61708665 16.08470367 -6.37099417 17.19863511 -7.125 18.3125 C-7.88714522 19.44567682 -8.64886836 20.57913765 -9.41015625 21.71289062 C-11.26930586 24.4780815 -13.13270814 27.24030379 -15 30 C-16.32 29.67 -17.64 29.34 -19 29 C-17.6248213 25.20332952 -15.87456763 22.09633088 -13.59375 18.76953125 C-12.93246094 17.80208984 -12.27117188 16.83464844 -11.58984375 15.83789062 C-10.55537109 14.34032227 -10.55537109 14.34032227 -9.5 12.8125 C-8.81035156 11.80251953 -8.12070312 10.79253906 -7.41015625 9.75195312 C-2.28716351 2.28716351 -2.28716351 2.28716351 0 0 Z " fill="#2E303F" transform="translate(542,247)"/>
<path d="M0 0 C4.44266826 0.55973032 7.26630974 2.22483255 10.95703125 4.7109375 C11.77877083 5.26414169 11.77877083 5.26414169 12.61711121 5.82852173 C13.76697701 6.60618643 14.91402031 7.38803921 16.05834961 8.17382812 C17.81570968 9.37719786 19.58564189 10.56018341 21.35742188 11.7421875 C22.47476865 12.501413 23.59133398 13.26179009 24.70703125 14.0234375 C25.7225708 14.71356934 26.73811035 15.40370117 27.78442383 16.11474609 C28.51556396 16.73687988 29.2467041 17.35901367 30 18 C30 18.99 30 19.98 30 21 C25.36306439 20.49020875 22.48955968 19.34717166 18.671875 16.69140625 C17.70765625 16.02689453 16.7434375 15.36238281 15.75 14.67773438 C14.265 13.63069336 14.265 13.63069336 12.75 12.5625 C11.74453125 11.86833984 10.7390625 11.17417969 9.703125 10.45898438 C2.36404533 5.36404533 2.36404533 5.36404533 0 3 C0 2.01 0 1.02 0 0 Z " fill="#2D2F3F" transform="translate(574,527)"/>
<path d="M0 0 C0.99 0.33 1.98 0.66 3 1 C1.47293469 5.07388804 -1.02881989 6.72512874 -4.55859375 9.14453125 C-5.10354996 9.5185759 -5.64850616 9.89262054 -6.2099762 10.27799988 C-7.35934522 11.06310958 -8.51184537 11.84365263 -9.66723633 12.61987305 C-11.43741624 13.81244357 -13.19249972 15.02513203 -14.94726562 16.24023438 C-16.0668589 17.00125117 -17.18727464 17.76105969 -18.30859375 18.51953125 C-19.32751709 19.21151611 -20.34644043 19.90350098 -21.39624023 20.61645508 C-22.25548096 21.0730249 -23.11472168 21.52959473 -24 22 C-24.99 21.67 -25.98 21.34 -27 21 C-27 20.01 -27 19.02 -27 18 C-25.09657253 16.42709639 -23.25423478 15.08291306 -21.19921875 13.734375 C-20.60704056 13.33671936 -20.01486237 12.93906372 -19.40473938 12.52935791 C-18.14961298 11.69056375 -16.89096783 10.85701487 -15.62915039 10.02832031 C-13.69586228 8.75550546 -11.77831517 7.46126067 -9.86132812 6.1640625 C-8.64151065 5.35283337 -7.42083473 4.54289326 -6.19921875 3.734375 C-5.33655647 3.15015778 -5.33655647 3.15015778 -4.45646667 2.55413818 C-2.8190918 1.49121094 -2.8190918 1.49121094 0 0 Z " fill="#2D2F3F" transform="translate(601,306)"/>
<path d="M0 0 C4.53095055 1.49990087 6.39686761 5.16787113 8.8125 9 C9.68873259 10.36156074 10.56634302 11.72223573 11.4453125 13.08203125 C12.08968262 14.08290771 12.08968262 14.08290771 12.74707031 15.10400391 C14.98704926 18.49365249 17.44988851 21.72344345 19.91796875 24.94921875 C21 27 21 27 20.67578125 29.26953125 C20.45277344 29.84058594 20.22976563 30.41164063 20 31 C15.83746958 29.47239628 14.24648526 26.85460453 11.85546875 23.22265625 C11.4814241 22.655504 11.10737946 22.08835175 10.72200012 21.50401306 C9.93670498 20.30756723 9.1561679 19.10798651 8.38012695 17.90551758 C7.18788096 16.06308871 5.975081 14.23547362 4.75976562 12.40820312 C3.99872548 11.24301896 3.2389163 10.07702966 2.48046875 8.91015625 C1.78848389 7.84933838 1.09649902 6.78852051 0.38354492 5.69555664 C-0.0730249 4.80602295 -0.52959473 3.91648926 -1 3 C-0.67 2.01 -0.34 1.02 0 0 Z " fill="#2E3040" transform="translate(524,577)"/>
<path d="M0 0 C1.74316406 0.14501953 1.74316406 0.14501953 4 1 C6.01464844 3.45263672 6.01464844 3.45263672 8.109375 6.6796875 C8.48104797 7.2482547 8.85272095 7.8168219 9.23565674 8.40261841 C10.01769277 9.60446285 10.79400318 10.81004973 11.56494141 12.01904297 C12.74671504 13.86985533 13.94781238 15.70690685 15.15234375 17.54296875 C21 26.571279 21 26.571279 21 30 C18.14534346 29.66601149 17.13691239 29.15098476 15.17578125 26.98828125 C13.09795174 24.0043961 11.02623988 21.01908879 9 18 C8.58927246 17.39736328 8.17854492 16.79472656 7.75537109 16.17382812 C6.49055966 14.31173117 5.24241913 12.43959833 4 10.5625 C3.60208252 9.97186768 3.20416504 9.38123535 2.79418945 8.77270508 C0.64626814 5.46103024 0 4.07384286 0 0 Z " fill="#2D2F3F" transform="translate(303,247)"/>
<path d="M0 0 C0.99 0.33 1.98 0.66 3 1 C3.81736749 4.9990211 4.62800952 8.99937762 5.4375 13 C5.78264648 14.68802734 5.78264648 14.68802734 6.13476562 16.41015625 C7.31596799 22.26481144 8.36670827 28.06016035 9 34 C7.68 34 6.36 34 5 34 C4.11454963 29.96416223 3.24217216 25.92573759 2.3815918 21.88452148 C2.08728535 20.51136105 1.78947427 19.13894673 1.48803711 17.76733398 C1.05429913 15.79077927 0.63341319 13.81184639 0.21484375 11.83203125 C-0.04176025 10.64327393 -0.29836426 9.4545166 -0.56274414 8.22973633 C-0.98455932 5.11405067 -0.83467943 3.00435058 0 0 Z " fill="#2D2F3F" transform="translate(381,215)"/>
<path d="M0 0 C5.74367147 2.08634561 10.55933279 5.40977301 15.63110352 8.76708984 C17.31664944 9.87773416 19.01430555 10.9680291 20.71289062 12.05859375 C21.77314453 12.75855469 22.83339844 13.45851563 23.92578125 14.1796875 C25.38624878 15.13464111 25.38624878 15.13464111 26.8762207 16.10888672 C27.57706787 16.7329541 28.27791504 17.35702148 29 18 C29 19.32 29 20.64 29 22 C23.25632853 19.91365439 18.44066721 16.59022699 13.36889648 13.23291016 C11.68335056 12.12226584 9.98569445 11.0319709 8.28710938 9.94140625 C7.22685547 9.24144531 6.16660156 8.54148437 5.07421875 7.8203125 C4.10057373 7.18367676 3.12692871 6.54704102 2.1237793 5.89111328 C1.42293213 5.2670459 0.72208496 4.64297852 0 4 C0 2.68 0 1.36 0 0 Z " fill="#2B2D3E" transform="translate(244,306)"/>
<path d="M0 0 C0.99 0 1.98 0 3 0 C3.12876109 4.82585829 2.72926653 9.0989409 1.6875 13.80859375 C1.41679687 15.04931641 1.14609375 16.29003906 0.8671875 17.56835938 C0.58101563 18.84517578 0.29484375 20.12199219 0 21.4375 C-0.28973005 22.7544106 -0.57879858 24.07146693 -0.8671875 25.38867188 C-1.57164185 28.59393915 -2.28276807 31.79757213 -3 35 C-4.32 34.67 -5.64 34.34 -7 34 C-5.82923692 26.42084951 -4.42787844 18.89696424 -2.9375 11.375 C-2.7631543 10.48586914 -2.58880859 9.59673828 -2.40917969 8.68066406 C-2.24192383 7.8450293 -2.07466797 7.00939453 -1.90234375 6.1484375 C-1.67792603 5.02187744 -1.67792603 5.02187744 -1.44897461 3.87255859 C-1 2 -1 2 0 0 Z " fill="#2C2E3E" transform="translate(464,215)"/>
<path d="M0 0 C-1.30620213 3.91860638 -3.68716008 5.08753401 -7.00390625 7.23046875 C-7.60178452 7.62575272 -8.19966278 8.02103668 -8.81565857 8.42829895 C-10.72635256 9.68903423 -12.64422864 10.93833167 -14.5625 12.1875 C-15.85921283 13.04027272 -17.15544315 13.89377962 -18.45117188 14.74804688 C-21.62857841 16.84059162 -24.81247217 18.92290866 -28 21 C-28.99 20.01 -29.98 19.02 -31 18 C-25.15311432 13.14469142 -18.95570179 8.78764595 -12.6875 4.5 C-11.89875488 3.94731445 -11.11000977 3.39462891 -10.29736328 2.82519531 C-9.54310059 2.31569336 -8.78883789 1.80619141 -8.01171875 1.28125 C-7.33584717 0.81783203 -6.65997559 0.35441406 -5.96362305 -0.12304688 C-3.54698819 -1.20231486 -2.43856695 -0.89578621 0 0 Z " fill="#2A2C3E" transform="translate(274,528)"/>
<path d="M0 0 C7.47023967 0.34989413 14.7304555 1.60318296 22.0625 3 C23.00311279 3.17821289 23.94372559 3.35642578 24.9128418 3.54003906 C31.7353962 4.8676981 31.7353962 4.8676981 34 6 C33.67 7.32 33.34 8.64 33 10 C28.62368847 9.21547376 24.24921513 8.42112504 19.875 7.625 C18.01875 7.29242188 18.01875 7.29242188 16.125 6.953125 C14.92617187 6.73398437 13.72734375 6.51484375 12.4921875 6.2890625 C11.39245605 6.09006348 10.29272461 5.89106445 9.15966797 5.68603516 C6.00703113 5.00152662 3.03866716 4.07694528 0 3 C0 2.01 0 1.02 0 0 Z " fill="#2B2E3E" transform="translate(212,384)"/>
<path d="M0 0 C0.99 0.33 1.98 0.66 3 1 C2.35408127 4.78707635 0.6186062 7.39490796 -1.4921875 10.5703125 C-2.54986328 12.16166016 -2.54986328 12.16166016 -3.62890625 13.78515625 C-3.99773926 14.33316895 -4.36657227 14.88118164 -4.74658203 15.44580078 C-5.8723122 17.12100029 -6.98548789 18.80405634 -8.09765625 20.48828125 C-8.80535156 21.54660156 -9.51304687 22.60492187 -10.2421875 23.6953125 C-10.8904248 24.66484863 -11.53866211 25.63438477 -12.20654297 26.63330078 C-14 29 -14 29 -17 31 C-17.73999023 29.39355469 -17.73999023 29.39355469 -18 27 C-16.81140583 24.73482578 -15.61653058 22.78404321 -14.16015625 20.703125 C-13.75921249 20.10949158 -13.35826874 19.51585815 -12.94517517 18.90423584 C-11.6626474 17.0112158 -10.36297143 15.13072608 -9.0625 13.25 C-8.18959875 11.96823472 -7.3178394 10.68569099 -6.44726562 9.40234375 C-4.31131934 6.25904494 -2.15991745 3.1268701 0 0 Z " fill="#2A2C3E" transform="translate(321,577)"/>
<path d="M0 0 C0.99 0 1.98 0 3 0 C8.76303063 23.78877436 8.76303063 23.78877436 9 34 C8.01 34 7.02 34 6 34 C3.91228741 27.31539912 2.63327262 20.49602795 1.3125 13.625 C1.07466797 12.42488281 0.83683594 11.22476563 0.59179688 9.98828125 C0.37201172 8.85003906 0.15222656 7.71179688 -0.07421875 6.5390625 C-0.27619873 5.49959473 -0.47817871 4.46012695 -0.6862793 3.38916016 C-0.78980713 2.6007373 -0.89333496 1.81231445 -1 1 C-0.67 0.67 -0.34 0.34 0 0 Z " fill="#2A2D3D" transform="translate(458,605)"/>
<path d="M0 0 C1.32 0 2.64 0 4 0 C3.3105043 7.47349939 1.95100009 14.71545333 0.4375 22.0625 C0.08655273 23.79016602 0.08655273 23.79016602 -0.27148438 25.55273438 C-0.84413255 28.36922846 -1.42038059 31.18493382 -2 34 C-3.32 34 -4.64 34 -6 34 C-5.3105043 26.52650061 -3.95100009 19.28454667 -2.4375 11.9375 C-2.20353516 10.78572266 -1.96957031 9.63394531 -1.72851562 8.44726562 C-1.15586745 5.63077154 -0.57961941 2.81506618 0 0 Z " fill="#2A2C3D" transform="translate(386,605)"/>
<path d="M0 0 C11.09573878 1.53882509 22.0312912 3.74720437 33 6 C33 7.32 33 8.64 33 10 C25.45614428 9.44890325 18.2442301 8.11104653 10.875 6.4375 C9.823125 6.20353516 8.77125 5.96957031 7.6875 5.72851562 C5.12379565 5.15750875 2.56139504 4.58126181 0 4 C0 2.68 0 1.36 0 0 Z " fill="#282B3C" transform="translate(602,461)"/>
<path d="M0 0 C3 3 6 6 9 9 C8.07038578 10.15224028 7.1309875 11.29659176 6.1875 12.4375 C5.40439453 13.39462891 5.40439453 13.39462891 4.60546875 14.37109375 C3 16 3 16 0 17 C-1.1446875 15.6078125 -1.1446875 15.6078125 -2.3125 14.1875 C-4.11848552 12.01723899 -5.9476629 9.94431935 -8 8 C-6.50260417 6.79557292 -5.00520833 5.59114583 -3.5078125 4.38671875 C-1.74707893 2.87729455 -1.74707893 2.87729455 0 0 Z " fill="#D2CFCA" transform="translate(423,385)"/>
<path d="M0 0 C0.99 0.33 1.98 0.66 3 1 C3.309375 1.639375 3.61875 2.27875 3.9375 2.9375 C5.2342338 5.45468915 6.4221737 5.96886948 9 7 C8.67 7.99 8.34 8.98 8 10 C7.360625 10.309375 6.72125 10.61875 6.0625 10.9375 C3.54531085 12.2342338 3.03113052 13.4221737 2 16 C1.01 16 0.02 16 -1 16 C-1.2475 15.195625 -1.495 14.39125 -1.75 13.5625 C-2.72238859 10.828919 -2.72238859 10.828919 -5.125 10.1875 C-5.74375 10.125625 -6.3625 10.06375 -7 10 C-6.75 8.125 -6.75 8.125 -6 6 C-4.67532254 5.3162955 -3.34136367 4.65035814 -2 4 C-0.73195434 1.9664052 -0.73195434 1.9664052 0 0 Z " fill="#313344" transform="translate(423,301)"/>
<path d="M0 0 C1.9375 0.8125 1.9375 0.8125 3.9375 2.8125 C3.57068342 5.74703261 3.07312754 6.67687246 0.9375 8.8125 C-1.6875 8.4375 -1.6875 8.4375 -4.0625 7.8125 C-4.75 5.5 -4.75 5.5 -5.0625 2.8125 C-3.54188901 0.41153528 -2.87462184 -0.26132926 0 0 Z " fill="#2F3141" transform="translate(620.0625,292.1875)"/>
<path d="M0 0 C2.86724686 0.57344937 3.8614515 0.8614515 6 3 C5.63318342 5.93453261 5.13562754 6.86437246 3 9 C0.375 8.625 0.375 8.625 -2 8 C-2.6875 6.25 -2.6875 6.25 -3 4 C-1.5625 1.75 -1.5625 1.75 0 0 Z " fill="#2E3040" transform="translate(553,227)"/>
<path d="M0 0 C1.2684375 0.12375 1.2684375 0.12375 2.5625 0.25 C4.5625 3.25 4.5625 3.25 4.25 5.375 C3.5625 7.25 3.5625 7.25 2.5625 8.25 C0.125 8.5 0.125 8.5 -2.4375 8.25 C-4.4375 5.25 -4.4375 5.25 -4.125 3.125 C-3.1232041 0.39282935 -2.97911982 0.30555075 0 0 Z " fill="#2F3142" transform="translate(554.4375,618.75)"/>
<path d="M0 0 C2.00720923 0.28674418 4.0085944 0.61866701 6 1 C6.625 3.375 6.625 3.375 7 6 C5 8 5 8 2.5 8.25 C0 8 0 8 -2 6 C-1.44444444 1.44444444 -1.44444444 1.44444444 0 0 Z " fill="#2C2F40" transform="translate(617,554)"/>
<path d="M0 0 C2.00720923 0.28674418 4.0085944 0.61866701 6 1 C6.625 3.375 6.625 3.375 7 6 C5 8 5 8 2.5 8.25 C0 8 0 8 -2 6 C-1.44444444 1.44444444 -1.44444444 1.44444444 0 0 Z " fill="#2A2D3D" transform="translate(652,469)"/>
<path d="M0 0 C2.625 0.375 2.625 0.375 5 1 C5.625 3.875 5.625 3.875 6 7 C5.34 7.66 4.68 8.32 4 9 C-0.55555556 8.44444444 -0.55555556 8.44444444 -2 7 C-2.1875 4.5625 -2.1875 4.5625 -2 2 C-1.34 1.34 -0.68 0.68 0 0 Z " fill="#2C2E3F" transform="translate(291,227)"/>
<path d="M0 0 C2.625 0.375 2.625 0.375 5 1 C5.625 3.875 5.625 3.875 6 7 C5.34 7.66 4.68 8.32 4 9 C-0.55555556 8.44444444 -0.55555556 8.44444444 -2 7 C-2.1875 4.5625 -2.1875 4.5625 -2 2 C-1.34 1.34 -0.68 0.68 0 0 Z " fill="#2A2D3C" transform="translate(376,192)"/>
<path d="M0 0 C1.1446875 0.3403125 1.1446875 0.3403125 2.3125 0.6875 C2.9375 3.0625 2.9375 3.0625 3.3125 5.6875 C1.3125 7.6875 1.3125 7.6875 -1.8125 7.8125 C-3.235625 7.750625 -3.235625 7.750625 -4.6875 7.6875 C-5.375 5.375 -5.375 5.375 -5.6875 2.6875 C-4.0011022 -0.12316299 -3.27764429 -0.38112143 0 0 Z " fill="#2D2F40" transform="translate(655.6875,377.3125)"/>
<path d="M0 0 C2.6875 0.875 2.6875 0.875 5 2 C5.125 4.375 5.125 4.375 5 7 C4.34 7.66 3.68 8.32 3 9 C-1.55555556 8.44444444 -1.55555556 8.44444444 -3 7 C-3.25 4.5625 -3.25 4.5625 -3 2 C-2.01 1.34 -1.02 0.68 0 0 Z " fill="#2C2F40" transform="translate(227,292)"/>
<path d="M0 0 C2.625 0.375 2.625 0.375 5 1 C5.6875 3.3125 5.6875 3.3125 6 6 C4.875 7.875 4.875 7.875 3 9 C0.3125 8.6875 0.3125 8.6875 -2 8 C-2.125 5.125 -2.125 5.125 -2 2 C-1.34 1.34 -0.68 0.68 0 0 Z " fill="#2C2E3F" transform="translate(468,192)"/>
<path d="M0 0 C2.5625 0.1875 2.5625 0.1875 4.5625 2.1875 C4.00694444 6.74305556 4.00694444 6.74305556 2.5625 8.1875 C0.0625 8.3125 0.0625 8.3125 -2.4375 8.1875 C-3.4375 7.1875 -3.4375 7.1875 -3.5625 4.1875 C-3.39891479 0.26145498 -3.39891479 0.26145498 0 0 Z " fill="#2B2D3F" transform="translate(377.4375,653.8125)"/>
<path d="M0 0 C2.4375 0.1875 2.4375 0.1875 3.4375 1.1875 C3.625 3.625 3.625 3.625 3.4375 6.1875 C1.4375 8.1875 1.4375 8.1875 -1.125 8.375 C-3.5625 8.1875 -3.5625 8.1875 -4.5625 7.1875 C-4.75 4.75 -4.75 4.75 -4.5625 2.1875 C-2.5625 0.1875 -2.5625 0.1875 0 0 Z " fill="#2A2C3F" transform="translate(293.5625,618.8125)"/>
<path d="M0 0 C2.4375 0.1875 2.4375 0.1875 3.4375 1.1875 C3.625 3.625 3.625 3.625 3.4375 6.1875 C1.4375 8.1875 1.4375 8.1875 -1.125 8.375 C-3.5625 8.1875 -3.5625 8.1875 -4.5625 7.1875 C-4.75 4.75 -4.75 4.75 -4.5625 2.1875 C-2.5625 0.1875 -2.5625 0.1875 0 0 Z " fill="#2A2C3F" transform="translate(228.5625,553.8125)"/>
<path d="M0 0 C4.55555556 0.55555556 4.55555556 0.55555556 6 2 C6.125 4.5 6.125 4.5 6 7 C5 8 5 8 2 8.125 C-1 8 -1 8 -2 7 C-2.1875 4.5625 -2.1875 4.5625 -2 2 C-1.34 1.34 -0.68 0.68 0 0 Z " fill="#2B2E40" transform="translate(191,469)"/>
<path d="M0 0 C1.2684375 0.12375 1.2684375 0.12375 2.5625 0.25 C4.5625 3.25 4.5625 3.25 4.25 5.375 C3.5625 7.25 3.5625 7.25 2.5625 8.25 C0.0625 8.375 0.0625 8.375 -2.4375 8.25 C-3.4375 7.25 -3.4375 7.25 -3.5625 4.25 C-3.39994635 0.34871245 -3.39994635 0.34871245 0 0 Z " fill="#2A2C3E" transform="translate(469.4375,653.75)"/>
<path d="M0 0 C4.55555556 0.55555556 4.55555556 0.55555556 6 2 C6.125 4.5 6.125 4.5 6 7 C5 8 5 8 2 8.125 C-1 8 -1 8 -2 7 C-2.1875 4.5625 -2.1875 4.5625 -2 2 C-1.34 1.34 -0.68 0.68 0 0 Z " fill="#2A2C3E" transform="translate(191,377)"/>
<path d="M0 0 C0.99 0.33 1.98 0.66 3 1 C2.39009109 4.55780196 1.4216319 7.6828589 0 11 C-1.32 11 -2.64 11 -4 11 C-3.48964169 6.6109185 -2.47785723 3.66291938 0 0 Z " fill="#313342" transform="translate(260,818)"/>
<path d="M0 0 C4.3890815 0.51035831 7.33708062 1.52214277 11 4 C10.67 4.99 10.34 5.98 10 7 C6.44219804 6.39009109 3.3171411 5.4216319 0 4 C0 2.68 0 1.36 0 0 Z " fill="#313342" transform="translate(815,588)"/>
<path d="M0 0 C3 1 3 1 4.6875 4.375 C6 8 6 8 6 11 C4.68 11 3.36 11 2 11 C-1.07692308 4.6 -1.07692308 4.6 -0.6875 1.5625 C-0.460625 1.046875 -0.23375 0.53125 0 0 Z " fill="#313341" transform="translate(257,25)"/>
<path d="M0 0 C-1 3 -1 3 -4.375 4.6875 C-8 6 -8 6 -11 6 C-11 4.68 -11 3.36 -11 2 C-3.57142857 -1.57142857 -3.57142857 -1.57142857 0 0 Z " fill="#2D2F3E" transform="translate(33,589)"/>
<path d="M0 0 C4.55737263 0.43820891 7.57653445 0.85041169 11 4 C10.67 4.99 10.34 5.98 10 7 C8.51515588 6.60404157 7.0371169 6.18249294 5.5625 5.75 C4.73878906 5.51796875 3.91507813 5.2859375 3.06640625 5.046875 C1 4 1 4 0.21484375 1.890625 C0.14394531 1.26671875 0.07304687 0.6428125 0 0 Z " fill="#303241" transform="translate(22,260)"/>
<path d="M0 0 C0.99 0 1.98 0 3 0 C6 6.5 6 6.5 6 11 C4.125 10.8125 4.125 10.8125 2 10 C0.12320013 6.62176024 -0.21849583 3.82367701 0 0 Z " fill="#303242" transform="translate(585,818)"/>
<path d="M0 0 C0.66 0.33 1.32 0.66 2 1 C1.49287967 4.71888239 0.88391785 7.73454239 -1 11 C-2.32 10.67 -3.64 10.34 -5 10 C-4.54857119 8.70590408 -4.08858979 7.41478941 -3.625 6.125 C-3.36976563 5.40570312 -3.11453125 4.68640625 -2.8515625 3.9453125 C-2 2 -2 2 0 0 Z " fill="#2D3040" transform="translate(589,25)"/>
<path d="M0 0 C-2.51830747 3.12270126 -3.7261549 3.94523098 -7.75 4.75 C-9.35875 4.87375 -9.35875 4.87375 -11 5 C-10.8125 3.125 -10.8125 3.125 -10 1 C-6.36806148 -1.11863081 -3.99237419 -1.14067834 0 0 Z " fill="#2B2D3E" transform="translate(826,261)"/>
<path d="M0 0 C1.32 0.33 2.64 0.66 4 1 C4 3.64 4 6.28 4 9 C2.68 9.33 1.36 9.66 0 10 C0 6.7 0 3.4 0 0 Z " fill="#333543" transform="translate(422,797)"/>
<path d="M0 0 C3.79588866 0.54226981 5.47211993 2.20127563 8 5 C7.67 5.99 7.34 6.98 7 8 C3.76912579 7.44295272 1.97638863 6.66812465 0 4 C0 2.68 0 1.36 0 0 Z " fill="#1B1B1C" transform="translate(685,688)"/>
<path d="M0 0 C2.64 0 5.28 0 8 0 C8.33 1.32 8.66 2.64 9 4 C5.7 4 2.4 4 -1 4 C-0.67 2.68 -0.34 1.36 0 0 Z " fill="#323442" transform="translate(45,425)"/>
<path d="M0 0 C1.65 1.65 3.3 3.3 5 5 C3.35 6.32 1.7 7.64 0 9 C-1.32 7.35 -2.64 5.7 -4 4 C-2.68 2.68 -1.36 1.36 0 0 Z " fill="#CAC8C4" transform="translate(423,341)"/>
<path d="M0 0 C2.86207152 1.28299758 5.0245088 2.530636 7 5 C7 5.99 7 6.98 7 8 C4.28324005 7.63287028 2.38936287 7.27255401 0.125 5.6875 C-1 4 -1 4 -0.6875 1.8125 C-0.460625 1.214375 -0.23375 0.61625 0 0 Z " fill="#30323F" transform="translate(156,158)"/>
<path d="M0 0 C2.64 0 5.28 0 8 0 C8.33 1.32 8.66 2.64 9 4 C6.03 4 3.06 4 0 4 C0 2.68 0 1.36 0 0 Z " fill="#343645" transform="translate(794,425)"/>
<path d="M0 0 C1.32 0.33 2.64 0.66 4 1 C4 3.64 4 6.28 4 9 C2.68 9 1.36 9 0 9 C0 6.03 0 3.06 0 0 Z " fill="#343644" transform="translate(422,48)"/>
<path d="M0 0 C0.99 0.33 1.98 0.66 3 1 C1.71700242 3.86207152 0.469364 6.0245088 -2 8 C-2.99 8 -3.98 8 -5 8 C-4.45773019 4.20411134 -2.79872437 2.52788007 0 0 Z " fill="#26293C" transform="translate(160,688)"/>
<path d="M0 0 C0.99 0.33 1.98 0.66 3 1 C1.71700242 3.86207152 0.469364 6.0245088 -2 8 C-2.99 8 -3.98 8 -5 8 C-4.45773019 4.20411134 -2.79872437 2.52788007 0 0 Z " fill="#2B2E40" transform="translate(690,158)"/>
</svg>
