<?xml version="1.0" standalone="no"?>
<!DOCTYPE svg PUBLIC "-//W3C//DTD SVG 20010904//EN"
 "http://www.w3.org/TR/2001/REC-SVG-20010904/DTD/svg10.dtd">
<svg version="1.0" xmlns="http://www.w3.org/2000/svg"
 width="1024.000000pt" height="1024.000000pt" viewBox="0 0 1024.000000 1024.000000"
 preserveAspectRatio="xMidYMid meet">
<metadata>
Created by potrace 1.14, written by Peter Selinger 2001-2017
</metadata>
<g transform="translate(0.000000,1024.000000) scale(0.100000,-0.100000)"
fill="#000000" stroke="none">
<path d="M2225 10221 c-89 -21 -141 -38 -206 -71 -205 -105 -357 -290 -432
-527 l-21 -68 -2 -4375 c-1 -2754 1 -4404 7 -4454 40 -330 270 -592 612 -699
l72 -22 2835 -2 c1930 -2 2851 1 2885 8 279 58 495 218 613 454 30 59 57 133
66 177 3 13 9 44 14 70 11 55 9 8773 -2 8828 -26 130 -78 252 -151 355 -45 64
-140 159 -190 190 -16 11 -32 22 -35 26 -13 16 -164 82 -235 102 l-80 22
-2835 2 c-2698 1 -2839 1 -2915 -16z m1405 -903 c3 -4 6 -44 5 -90 l0 -83
-245 -3 -245 -2 -290 -290 -290 -290 0 -245 1 -245 -91 0 -92 0 2 428 c1 460
2 471 56 572 74 139 213 230 379 249 77 8 804 8 810 -1z m3822 -2 c194 -32
344 -175 395 -377 3 -13 7 -214 8 -446 l2 -423 -91 0 -92 0 0 246 0 245 -289
289 -290 290 -245 2 -245 3 -1 85 c0 47 1 87 2 90 3 7 801 4 846 -4z m-2343
-1891 c34 -17 91 -85 113 -135 38 -84 51 -161 49 -304 -1 -132 -20 -251 -67
-416 -40 -141 -42 -151 -44 -235 -1 -62 2 -91 11 -100 3 -2 32 -7 65 -10 32
-3 75 -10 94 -15 54 -15 56 -14 95 49 57 96 167 189 343 294 185 109 258 175
303 270 17 36 33 91 36 122 6 55 6 55 26 38 34 -31 57 -93 57 -159 0 -169
-116 -375 -329 -584 -59 -58 -118 -120 -131 -139 l-24 -35 29 -20 c15 -12 54
-42 85 -68 l57 -46 64 45 c159 110 286 142 589 148 102 2 201 6 220 10 141 24
247 87 316 186 33 48 44 38 44 -39 0 -134 -133 -284 -347 -390 -119 -59 -294
-117 -408 -135 -73 -12 -245 -100 -245 -127 0 -5 11 -33 24 -62 14 -29 32 -73
41 -98 l16 -45 67 -3 c135 -5 250 -47 487 -181 122 -69 202 -95 290 -95 66 1
168 25 190 45 18 18 23 8 12 -26 -22 -72 -133 -154 -232 -170 -125 -22 -246
-22 -380 0 -41 6 -162 38 -230 60 -38 13 -90 25 -115 27 l-46 5 -15 -110 -14
-109 65 -31 c91 -43 166 -95 227 -158 69 -70 107 -124 208 -295 145 -244 244
-326 424 -350 56 -7 60 -10 35 -30 -105 -84 -281 -77 -453 18 -150 83 -238
154 -391 311 -76 79 -124 119 -175 148 -38 21 -74 39 -80 39 -5 0 -21 -17 -35
-37 -14 -20 -44 -59 -66 -86 l-42 -48 34 -68 c61 -122 74 -192 79 -441 6 -298
39 -387 185 -502 l35 -27 -35 -2 c-78 -3 -99 0 -147 24 -150 77 -281 294 -358
597 -20 80 -44 159 -53 177 l-17 32 -62 -29 c-34 -16 -79 -34 -101 -41 -37
-11 -40 -14 -35 -42 17 -109 4 -255 -32 -363 -30 -89 -43 -117 -142 -291 -100
-176 -126 -253 -125 -363 0 -70 6 -98 30 -157 l29 -71 -46 20 c-88 37 -147
119 -177 244 -23 100 -23 306 0 420 2 12 7 37 10 56 3 19 22 88 42 154 29 94
38 139 40 214 2 52 0 101 -4 108 -5 7 -28 14 -53 16 -24 3 -73 9 -108 15 -36
6 -65 9 -66 8 -1 -1 -14 -24 -29 -51 -39 -67 -146 -172 -239 -234 -42 -29 -79
-52 -81 -52 -11 0 -137 -79 -188 -117 -102 -77 -162 -172 -174 -272 -8 -69
-11 -75 -29 -58 -60 61 -74 175 -35 297 47 147 138 280 299 439 106 105 161
167 161 182 0 4 -20 22 -44 38 -25 17 -51 37 -58 43 -8 7 -26 23 -40 36 l-26
23 -48 -36 c-56 -43 -158 -95 -229 -118 -81 -26 -175 -37 -358 -42 -252 -7
-326 -19 -415 -71 -50 -29 -117 -92 -147 -137 -25 -38 -38 -21 -37 48 1 170
190 344 494 456 84 31 107 37 248 70 88 20 185 62 233 101 l28 23 -42 105 -42
105 -71 2 c-95 2 -230 43 -336 100 -47 26 -121 66 -165 90 -115 63 -187 86
-270 85 -83 -1 -94 -3 -174 -38 -18 -8 -36 -13 -39 -10 -2 3 7 27 20 53 73
141 291 195 596 148 61 -10 180 -39 202 -50 28 -14 155 -43 183 -42 13 0 17 9
18 36 2 50 7 93 18 140 l9 40 -72 33 c-180 83 -283 193 -456 489 -34 59 -82
129 -106 157 -76 87 -177 141 -296 158 -34 4 -45 10 -41 20 8 22 107 65 159
69 178 13 432 -120 640 -336 131 -135 157 -159 214 -193 92 -56 101 -55 146
11 21 32 51 70 66 85 l28 28 -35 63 c-52 94 -75 198 -81 357 -11 325 -16 367
-58 449 -22 42 -73 99 -119 132 -45 33 -36 42 39 41 120 -1 253 -122 354 -322
42 -83 103 -266 117 -355 4 -26 52 -155 57 -155 1 0 24 11 52 24 27 13 67 29
89 37 60 20 64 25 54 67 -13 60 -2 230 20 306 29 99 91 228 170 356 41 67 94
191 107 251 13 66 -2 214 -25 244 -4 5 -13 24 -19 42 -10 31 -10 32 14 23 13
-5 37 -16 53 -25z m-2545 -5497 l-1 -243 291 -292 291 -293 245 0 245 0 0 -87
c0 -49 -3 -90 -6 -93 -10 -7 -754 -4 -829 4 -99 10 -212 69 -284 146 -31 34
-66 80 -77 102 -50 99 -51 107 -54 558 -1 234 -1 428 2 433 2 4 43 7 91 7 l87
0 -1 -242z m5291 -185 c-2 -402 -3 -432 -22 -490 -59 -178 -214 -307 -397
-330 -88 -10 -817 -9 -824 2 -4 6 -7 47 -7 93 l-1 82 246 0 245 0 289 289 290
290 0 245 0 246 91 0 92 0 -2 -427z"/>
<path d="M5429 5371 c-48 -19 -126 -69 -147 -94 -9 -11 -7 -18 11 -34 150
-137 411 -124 494 24 l23 40 -82 39 c-73 33 -93 38 -168 41 -63 2 -97 -2 -131
-16z"/>
<path d="M4650 5366 c-90 -22 -200 -90 -200 -124 0 -22 90 -82 163 -108 72
-26 177 -30 235 -10 23 8 42 13 42 10 0 -2 11 3 25 12 14 9 28 14 31 12 3 -3
7 -50 9 -104 7 -178 14 -246 34 -321 9 -31 18 -43 40 -51 37 -13 98 -7 165 17
98 34 98 40 1 35 -50 -3 -95 -7 -101 -9 -7 -2 -10 42 -11 134 0 240 -21 400
-57 440 -47 51 -273 92 -376 67z"/>
</g>
</svg>
